<?xml version="1.0" encoding="UTF-8" standalone="no"?>
<svg
   xmlns:dc="http://purl.org/dc/elements/1.1/"
   xmlns:cc="http://creativecommons.org/ns#"
   xmlns:rdf="http://www.w3.org/1999/02/22-rdf-syntax-ns#"
   xmlns:svg="http://www.w3.org/2000/svg"
   xmlns="http://www.w3.org/2000/svg"
   xmlns:sodipodi="http://sodipodi.sourceforge.net/DTD/sodipodi-0.dtd"
   xmlns:inkscape="http://www.inkscape.org/namespaces/inkscape"
   id="Layer_1"
   data-name="Layer 1"
   viewBox="0 0 910.94 46.28"
   version="1.1"
   sodipodi:docname="distribution_company.svg"
   width="910.94"
   height="46.279999"
   inkscape:version="0.92.2 (5c3e80d, 2017-08-06)">
  <metadata
     id="metadata3723">
    <rdf:RDF>
      <cc:Work
         rdf:about="">
        <dc:format>image/svg+xml</dc:format>
        <dc:type
           rdf:resource="http://purl.org/dc/dcmitype/StillImage" />
        <dc:title>distribution company</dc:title>
      </cc:Work>
    </rdf:RDF>
  </metadata>
  <sodipodi:namedview
     pagecolor="#ffffff"
     bordercolor="#666666"
     borderopacity="1"
     objecttolerance="10"
     gridtolerance="10"
     guidetolerance="10"
     inkscape:pageopacity="0"
     inkscape:pageshadow="2"
     inkscape:window-width="1280"
     inkscape:window-height="961"
     id="namedview3721"
     showgrid="false"
     inkscape:pagecheckerboard="false"
     inkscape:zoom="14.360654"
     inkscape:cx="897.78875"
     inkscape:cy="22.748435"
     inkscape:window-x="-8"
     inkscape:window-y="-8"
     inkscape:window-maximized="1"
     inkscape:current-layer="Layer_1" />
  <defs
     id="defs3714">
    <style
       id="style3712">.cls-1{fill:white;}</style>
  </defs>
  <title
     id="title3716">distribution company</title>
  <path
     class="cls-1"
     d="m 6.2525945,33.480745 h 4.9999945 a 26.52,26.52 0 0 0 6.2,-0.54 9.27,9.27 0 0 0 3.63,-1.89 11.19,11.19 0 0 0 3.11,-4.48 17.32,17.32 0 0 0 1,-6.24 17.19,17.19 0 0 0 -1,-6.24 11.29,11.29 0 0 0 -3.11,-4.5000043 9.16,9.16 0 0 0 -3.73,-1.8699995 29,29 0 0 0 -6.83,-0.54 H 6.2525945 Z m -6.00000021,5.47 V 1.7607415 H 8.2525945 c 8.9999945,0 17.4299945,0.2199999 21.4999945,9.7900035 a 22.44,22.44 0 0 1 1.64,8.82 22.1,22.1 0 0 1 -1.59,8.81 c -3.82,8.89 -11.36,9.79 -19.8999994,9.79 H 0.25259429 Z m 53.63999471,0 V 1.7607415 h 6 V 38.950745 Z m 28,-7.45 4.76,-2.23 a 6.76,6.76 0 0 0 2.49,3.8 7.8,7.8 0 0 0 4.63,1.31 6,6 0 0 0 4.250002,-1.51 5.28,5.28 0 0 0 1.550064,-4 c 0,-2.18 -1.780064,-4.14 -5.380066,-5.83 a 12.7,12.7 0 0 0 -1.16,-0.56 q -6.07,-3 -8.09,-5.42 a 9,9 0 0 1 -2,-5.940001 9.57,9.57 0 0 1 3,-7.3600026 11.33,11.33 0 0 1 8,-2.80999977 13.35,13.35 0 0 1 6.800101,1.57999977 8.23,8.23 0 0 1 3.78,4.5499998 L 99.86268,9.5007407 C 96.612591,4.3507414 89.142589,5.2707412 89.142589,10.780743 c 0,7.180002 16.490101,6.240002 16.490101,17.650002 a 11,11 0 0 1 -3.29,8.4 c -2.18,2.07 -5.160099,3.11 -8.890101,3.11 a 12.79,12.79 0 0 1 -7.7,-2.18 10.29,10.29 0 0 1 -3.91,-6.26 v 0 z M 139.54269,6.8907412 V 38.950745 h -6 V 6.8907412 h -9.76 V 1.7607415 h 25.47 v 5.1299997 h -9.72 z m 35.71,10.7400038 h 1.09 c 3.16,0 5.25,-0.39 6.29,-1.13 1.04,-0.74 1.56,-2.07 1.56,-4 q 0,-3.0800043 -1.67,-4.3200041 c -1.11,-0.8599997 -3.18,-1.2599997 -6.18,-1.2599997 h -1.09 z m -0.38,4.68 v 16.64 h -5.58 V 1.7607415 h 8.32 a 26.39,26.39 0 0 1 5.69,0.4699999 8.38,8.38 0 0 1 6.07,5.0899998 11.51,11.51 0 0 1 0.93,4.6800038 10.48,10.48 0 0 1 -2.13,7 9.29,9.29 0 0 1 -6.29,3 l 12.62,16.93 h -6.71 l -12.19,-16.62 h -0.69 z m 38.8,16.64 V 1.7607415 h 6 V 38.950745 Z m 35.93,-21.48 h 2.27 c 2.85,0 4.84,-0.4 6,-1.19 a 4.42,4.42 0 0 0 1.78,-4 c 0,-2.050005 -0.56,-3.4700041 -1.64,-4.3000038 -1.08,-0.83 -3.14,-1.22 -6.16,-1.22 h -2.27 V 17.470745 Z m 0,16.44 h 2 a 33.85,33.85 0 0 0 4.7,-0.25 6.1,6.1 0 0 0 2.46,-0.9 4.73,4.73 0 0 0 1.69,-2 6,6 0 0 0 0.6,-2.75 6.25,6.25 0 0 0 -0.71,-3.08 5.17,5.17 0 0 0 -2.09,-2.07 7,7 0 0 0 -1.93,-0.63 17.1,17.1 0 0 0 -2.91,-0.2 h -3.85 v 11.87 z m -5.87,5 V 1.7607415 h 9.27 a 28.17,28.17 0 0 1 5.85,0.4299999 8.78,8.78 0 0 1 3.24,1.42 8.42,8.42 0 0 1 2.65,3.3299998 10.8,10.8 0 0 1 0.93,4.5500038 8.63,8.63 0 0 1 -1.35,5 7.24,7.24 0 0 1 -3.93,2.79 7.51,7.51 0 0 1 5,3 10,10 0 0 1 1.85,6.19 12.13,12.13 0 0 1 -0.78,4.3 9.85,9.85 0 0 1 -2.2,3.45 8.66,8.66 0 0 1 -3.76,2.18 30.24,30.24 0 0 1 -7.49,0.63 h -9.32 z m 45,-37.1900035 h 5.89 V 24.340745 c 0,3.35 0.78,5.87 2.32,7.56 1.54,1.69 3.8,2.52 6.85,2.52 3.05,0 5.31,-0.84 6.85,-2.52 1.54,-1.68 2.29,-4.21 2.29,-7.56 V 1.7607415 h 6 V 24.900745 c 0,5 -1.25,8.81 -3.76,11.3 -2.51,2.49 -6.29,3.74 -11.34,3.74 -5.05,0 -8.83,-1.24 -11.32,-3.74 -2.49,-2.5 -3.73,-6.26 -3.73,-11.3 V 1.7607415 Z m 65.77,5.1299997 V 38.950745 h -6 V 6.8907412 h -9.76 V 1.7607415 h 25.51 v 5.1299997 h -9.72 z m 29.88,32.0600038 V 1.7607415 h 6 V 38.950745 h -6 z m 61.52,-18.53 a 14.55,14.55 0 0 0 -1,-5.36 13.94,13.94 0 0 0 -2.91,-4.500003 13.14,13.14 0 0 0 -14.63,-3.0000008 13.5,13.5 0 0 0 -4.36,3.0000008 13.93,13.93 0 0 0 -2.91,4.480003 14.57,14.57 0 0 0 -1,5.38 13.92,13.92 0 0 0 3.91,9.84 13.34,13.34 0 0 0 4.36,3 13.22,13.22 0 0 0 10.27,0 13.46,13.46 0 0 0 4.36,-3 13.75,13.75 0 0 0 2.91,-4.5 14.43,14.43 0 0 0 1,-5.34 z m 6.2,0 a 19.22,19.22 0 0 1 -1.45,7.5 19.4,19.4 0 0 1 -4.29,6.3 20.35,20.35 0 0 1 -6.41,4.25 19.73,19.73 0 0 1 -21.36,-4.25 19.23,19.23 0 0 1 -4.27,-6.28 19.61,19.61 0 0 1 -1.45,-7.52 19.84,19.84 0 0 1 1.45,-7.52 19.58,19.58 0 0 1 4.27,-6.3200038 19.33,19.33 0 0 1 6.38,-4.2099998 20.37,20.37 0 0 1 15,0 19.31,19.31 0 0 1 12.09,18.0500036 v 0 z m 22.37,18.53 V 0.30074183 l 23.35,22.73000317 c 0.62,0.63 1.26,1.31 1.93,2.05 0.67,0.74 1.34,1.55 2,2.45 V 1.7607415 h 5.52 V 40.410745 l -23.76,-23.17 a 24.42,24.42 0 0 1 -1.84,-2 c -0.58,-0.7 -1.16,-1.42 -1.69,-2.18 v 25.89 h -5.49 z m 117.29,-28.100002 a 18.17,18.17 0 0 0 -5.36,-3.2800018 16.54,16.54 0 0 0 -5.94,-1.08 13,13 0 0 0 -9.78,3.8999998 14,14 0 0 0 -3.78,10.150004 13.93,13.93 0 0 0 3.67,9.92 12.15,12.15 0 0 0 9.27,3.9 16.42,16.42 0 0 0 6.2,-1.17 19.52,19.52 0 0 0 5.67,-3.51 v 6.82 a 17.72,17.72 0 0 1 -5.25,2.63 22.45,22.45 0 0 1 -13.94,-0.54 18.58,18.58 0 0 1 -10.39,-10.37 20.79,20.79 0 0 1 -1.44,-7.72 20.46,20.46 0 0 1 1.44,-7.68 18.28,18.28 0 0 1 4.18,-6.3000038 18.58,18.58 0 0 1 6.27,-4.1599998 20.4,20.4 0 0 1 7.67,-1.46999967 19.24,19.24 0 0 1 6.16,0.99999977 21.52,21.52 0 0 1 5.71,2.8799999 z m 54.36,9.610002 a 14.11,14.11 0 0 0 -1,-5.36 13.75,13.75 0 0 0 -2.91,-4.500003 13,13 0 0 0 -19,0 13.47,13.47 0 0 0 -2.91,4.480003 14.57,14.57 0 0 0 -1,5.38 14.25,14.25 0 0 0 1,5.34 13.75,13.75 0 0 0 2.91,4.5 13,13 0 0 0 9.52,4.05 12.55,12.55 0 0 0 5.09,-1 13.33,13.33 0 0 0 4.36,-3 14.07,14.07 0 0 0 3.93,-9.84 v 0 z m 6.23,0 a 19.23,19.23 0 0 1 -1.47,7.5 18.81,18.81 0 0 1 -4.29,6.3 19.91,19.91 0 0 1 -6.34,4.25 19.76,19.76 0 0 1 -21.45,-4.29 18.82,18.82 0 0 1 -4.25,-6.28 19.2,19.2 0 0 1 -1.46,-7.52 19.42,19.42 0 0 1 1.46,-7.52 19.15,19.15 0 0 1 4.25,-6.3200038 19.59,19.59 0 0 1 6.39,-4.2099998 20.43,20.43 0 0 1 15.07,0 19.14,19.14 0 0 1 6.33,4.2099998 19.29,19.29 0 0 1 5.76,13.8400038 v 0 z m 52.31,0.16 c -0.06,-0.27 -0.18,-1.08 -0.33,-2.39 -0.14,-1.08 -0.24,-2 -0.36,-2.68 a 17.1,17.1 0 0 1 -0.64,2.52 17.37,17.37 0 0 1 -1,2.61 l -9.6,19.81 -9.65,-20.27 c -0.4,-0.84 -0.75,-1.62 -1,-2.41 -0.25,-0.79 -0.56,-1.56 -0.76,-2.3 0,0.77 -0.09,1.58 -0.2,2.45 -0.11,0.87 -0.29,1.73 -0.49,2.68 l -3.93,18.3 h -5.49 l 8.62,-38.72000327 10.85,23.48000327 c 0.18,0.36 0.43,1 0.76,1.84 0.33,0.84 0.76,1.94 1.25,3.2 a 42.1,42.1 0 0 1 1.67,-4.06 c 0.2,-0.45 0.33,-0.78 0.44,-1 l 10.58,-23.46000327 8.87,38.77000327 h -5.56 z m 35.84,-3.26 h 1.54 c 3.31,0 5.53,-0.38 6.63,-1.1 1.1,-0.72 1.67,-2 1.67,-3.85 0,-1.850003 -0.61,-3.3800041 -1.79,-4.1900041 -1.18,-0.8099997 -3.3,-1.2199997 -6.51,-1.2199997 h -1.54 V 17.310745 Z m -0.35,4.93 v 16.7 h -5.6 V 1.7607415 h 9 a 28.75,28.75 0 0 1 5.91,0.4299999 9.12,9.12 0 0 1 3.31,1.46 8.63,8.63 0 0 1 2.75,3.5299998 11.93,11.93 0 0 1 1,4.8400038 12.15,12.15 0 0 1 -1,4.89 8.56,8.56 0 0 1 -2.71,3.51 9.09,9.09 0 0 1 -3.31,1.44 28.75,28.75 0 0 1 -5.91,0.43 h -3.44 z m 45,2.1 h 10.23 l -3.76,-8.49 c -0.24,-0.54 -0.44,-1.17 -0.69,-1.87 -0.25,-0.7 -0.47,-1.49 -0.69,-2.34 -0.2,0.81 -0.42,1.55 -0.64,2.27 a 17.7,17.7 0 0 1 -0.69,1.94 z m 16.49,14.61 -4.15,-9.57 h -14.54 l -4.27,9.57 h -6.27 l 17.84,-38.66000317 17.76,38.65000317 h -6.32 z m 25.28,0 V 0.30074183 l 23.33,22.73000317 c 0.63,0.63 1.27,1.31 1.94,2.05 0.67,0.74 1.34,1.55 2,2.45 V 1.7607415 h 5.51 V 40.410745 l -23.72,-23.17 a 24.49,24.49 0 0 1 -1.85,-2 27.27,27.27 0 0 1 -1.68,-2.18 v 25.89 h -5.5 z m 64.7,0 v -17 l -12.37,-20.2000035 h 6.27 l 7.73,12.6000035 c 0.18,0.34 0.4,0.77 0.69,1.29 0.29,0.52 0.53,1.1 0.83,1.71 0.24,-0.61 0.49,-1.17 0.76,-1.69 0.27,-0.52 0.53,-1 0.8,-1.44 l 7.92,-12.4700035 h 6 l -12.71,20.1700035 v 17 h -5.89 z m 0,0"
     id="path3718"
     inkscape:connector-curvature="0"
     style="fill:#ffffff" />
</svg>
