<?xml version="1.0" encoding="UTF-8" standalone="no"?>
<svg
   xmlns:dc="http://purl.org/dc/elements/1.1/"
   xmlns:cc="http://creativecommons.org/ns#"
   xmlns:rdf="http://www.w3.org/1999/02/22-rdf-syntax-ns#"
   xmlns:svg="http://www.w3.org/2000/svg"
   xmlns="http://www.w3.org/2000/svg"
   xmlns:sodipodi="http://sodipodi.sourceforge.net/DTD/sodipodi-0.dtd"
   xmlns:inkscape="http://www.inkscape.org/namespaces/inkscape"
   width="938"
   height="140"
   version="1.1"
   id="svg3745"
   sodipodi:docname="eurodrinks.svg"
   inkscape:version="0.92.2 (5c3e80d, 2017-08-06)">
  <metadata
     id="metadata3749">
    <rdf:RDF>
      <cc:Work
         rdf:about="">
        <dc:format>image/svg+xml</dc:format>
        <dc:type
           rdf:resource="http://purl.org/dc/dcmitype/StillImage" />
        <dc:title></dc:title>
      </cc:Work>
    </rdf:RDF>
  </metadata>
  <sodipodi:namedview
     pagecolor="#ffffff"
     bordercolor="#666666"
     borderopacity="1"
     objecttolerance="10"
     gridtolerance="10"
     guidetolerance="10"
     inkscape:pageopacity="0"
     inkscape:pageshadow="2"
     inkscape:window-width="1280"
     inkscape:window-height="961"
     id="namedview3747"
     showgrid="false"
     inkscape:zoom="1.210496"
     inkscape:cx="474.11566"
     inkscape:cy="143.52883"
     inkscape:window-x="-8"
     inkscape:window-y="-8"
     inkscape:window-maximized="1"
     inkscape:current-layer="svg3745" />
  <defs
     id="defs3740">
    <style
       id="style3738">
          .eu{
          fill: white;
          }
      </style>
  </defs>
  <g
     id="g3743"
     transform="translate(2.4783231,0.56503082)">
    <path
       id="eu"
       class="eu"
       d="m 874.32187,66.110156 c 3.70001,4.2 7.3,7.4 10.9,9.5 3.6,2.1 7.2,3.1 10.7,3.1 3.3,0 6.10001,-0.9 8.20001,-2.7 2.1,-1.8 3.2,-4.1 3.2,-6.9 0,-3.1 -0.9,-5.4 -2.8,-7.1 -1.9,-1.6 -6,-3.4 -12.5,-5.1 -8.9,-2.4 -15.3,-5.6 -19,-9.5 -3.7,-3.9 -5.6,-9.3 -5.6,-16.1 0,-8.8 2.9,-16 8.8,-21.6 5.8,-5.6 13.4,-8.3 22.7,-8.3 5,0 9.8,0.7 14.3,2 4.5,1.4 8.8,3.4 12.8,6.2 l -7.8,18 c -2.8,-2.4 -5.7,-4.3 -8.7,-5.5 -3,-1.2 -5.9,-1.8 -8.8,-1.8 -3,0 -5.4,0.7 -7.3,2.2 -1.9,1.4 -2.8,3.3 -2.8,5.5 0,2.3 0.8,4.2 2.5,5.5 1.6,1.4 4.8,2.6 9.5,4 l 1.1,0.3 c 10.1,2.9 16.8,5.8 20,9.1 2.2,2.2 3.8,5 5,8.1 1.1,3.2 1.7,6.7 1.7,10.6 0,9.8 -3.2,17.6 -9.5,23.6 -6.4,6 -14.8,8.9 -25.4,8.9 -6.4,0 -12.2,-1.1 -17.4,-3.3 -5.2,-2.2 -10.2,-5.6 -15,-10.3 z m -41.2,-26.9 c 6.5,0 11.7,5.3 11.7,11.8 0,6.6 -5.29999,11.8 -11.7,11.8 -6.5,0 -11.7,-5.3 -11.7,-11.8 0,-6.5 5.2,-11.8 11.7,-11.8 z m -720.7,-35.5 h 24.7 v 44.9 c 0,6.6 0.2,11.3 0.5,14.2 0.3,2.9 0.9,5.3 1.7,7.2 0.9,2.3 2.6,4.2 5,5.4 2.4,1.2 5.3,1.9 8.6,1.9 3.4,0 6.3,-0.6 8.6,-1.9 2.3,-1.2 4,-3.1 5,-5.4 0.8,-1.9 1.4,-4.3 1.7,-7.2 0.3,-2.9 0.5,-7.6 0.5,-14.2 v -44.9 h 24.8 v 48.7 c 0,10.1 -0.6,17.6 -1.8,22.4 -1.2,4.8 -3.2,8.9 -6.1,12.3 -3.1,3.7 -7.4,6.5 -12.8,8.4 -5.5,1.9 -12,2.8 -19.8,2.8 -7.8,0 -14.4,-0.9 -19.8,-2.8 -5.4,-1.9 -9.8,-4.7 -12.9,-8.4 -2.8,-3.4 -4.9,-7.5 -6.1,-12.3 -1.2,-4.8 -1.8,-12.3 -1.8,-22.4 z m 100.1,92.2 v -92.2 h 26 c 10.2,0 17.3,0.5 21.3,1.4 4,0.9 7.5,2.5 10.4,4.7 3.3,2.5 5.8,5.8 7.6,9.6 1.8,3.9 2.6,8.2 2.6,12.9 0,7.1 -1.7,13 -5.2,17.4 -3.5,4.5 -8.6,7.4 -15.2,8.9 l 24.9,37.2 h -28.1 l -20.9,-36.1 v 36.2 z m 23.3,-48.7 h 4.6 c 5.4,0 9.3,-0.9 11.7,-2.8 2.5,-1.8 3.7,-4.7 3.7,-8.7 0,-4.6 -1.1,-7.9 -3.4,-9.9 -2.3,-2 -6.2,-2.9 -11.6,-2.9 h -5 z m 152.2,2.8 c 0,6.6 -1.2,12.9 -3.6,18.7 -2.4,5.8 -5.9,11 -10.5,15.6 -4.6,4.5 -10,8 -16,10.5 -6,2.5 -12.2,3.7 -18.6,3.7 -6.5,0 -12.8,-1.2 -18.7,-3.7 -6,-2.5 -11.2,-6 -15.7,-10.5 -4.7,-4.6 -8.3,-9.8 -10.7,-15.6 -2.4,-5.8 -3.6,-12 -3.6,-18.6 0,-6.6 1.2,-12.8 3.6,-18.6 2.4,-5.8 6,-11 10.7,-15.6 4.5,-4.5 9.8,-8 15.7,-10.5 5.9,-2.5 12.2,-3.7 18.7,-3.7 6.5,0 12.7,1.2 18.7,3.7 6,2.5 11.3,6 15.8,10.5 4.6,4.5 8.1,9.7 10.5,15.6 2.5,5.6 3.7,11.9 3.7,18.5 z m -48.8,27 c 6.9,0 12.6,-2.5 17.1,-7.7 4.5,-5.1 6.8,-11.6 6.8,-19.4 0,-7.7 -2.3,-14.2 -6.9,-19.3 -4.5,-5.2 -10.2,-7.7 -17,-7.7 -6.9,0 -12.6,2.6 -17.1,7.7 -4.5,5.1 -6.8,11.6 -6.8,19.4 0,7.9 2.2,14.4 6.7,19.5 4.5,5 10.2,7.5 17.2,7.5 z m 64.4,18.9 v -92.2 h 19 c 14.2,0 24.2,0.7 30.1,2 5.9,1.3 11.1,3.6 15.5,6.7 5.8,4.1 10.2,9.3 13.1,15.6 3,6.3 4.5,13.6 4.5,21.8 0,8.1 -1.5,15.4 -4.5,21.7 -3,6.3 -7.4,11.6 -13.1,15.7 -4.4,3.1 -9.4,5.3 -15.1,6.6 -5.6,1.3 -14.4,2 -26.3,2 h -23.2 z m 24.6,-20.7 h 4.2 c 9.8,0 16.9,-2 21.4,-6.1 4.5,-4 6.7,-10.5 6.7,-19.3 0,-8.8 -2.2,-15.3 -6.7,-19.4 -4.5,-4.1 -11.6,-6.2 -21.4,-6.2 h -4.2 z m 73.1,20.7 v -92.2 h 26 c 10.20001,0 17.3,0.5 21.3,1.4 4,0.9 7.5,2.5 10.4,4.7 3.3,2.5 5.8,5.8 7.6,9.6 1.8,3.9 2.6,8.2 2.6,12.9 0,7.1 -1.7,13 -5.2,17.4 -3.5,4.5 -8.6,7.4 -15.2,8.9 l 24.9,37.2 h -28.1 l -20.9,-36.1 v 36.2 z m 23.4,-48.7 h 4.6 c 5.4,0 9.3,-0.9 11.70001,-2.8 2.5,-1.8 3.7,-4.7 3.7,-8.7 0,-4.6 -1.1,-7.9 -3.4,-9.9 -2.3,-2 -6.2,-2.9 -11.6,-2.9 h -5 z m 59.1,48.7 v -92.2 h 25.20001 v 92.2 z m 45.1,0 v -92.2 h 24 l 34.5,47.4 c 0.70001,0.9 1.70001,2.9 3.3,5.8 1.5,2.9 3.2,6.4 5,10.4 -0.5,-3.8 -0.9,-7.2 -1.1,-10.2 -0.2,-3 -0.3,-5.6 -0.3,-7.9 v -45.5 h 23.9 v 92.2 h -23.9 l -34.5,-47.6 c -0.7,-1 -1.79999,-2.9 -3.29999,-5.8 -1.5,-2.9 -3.20001,-6.4 -5,-10.3 0.5,3.9 0.79999,7.3 1.1,10.3 0.2,3 0.29999,5.6 0.29999,7.9 v 45.5 z m 108.8,0 v -92.2 h 24.6 v 41.9 l 28.8,-41.9 h 29 l -33.7,45 36.6,47.3 h -31 l -29.7,-41.4 v 41.3 z m -707.999995,-35 c 2.5,5.9 6.3,10.3 11.3,13.1 5.8,3.4 12.1,3.9 18.7,1.7 6,-2.1 10.4,-5.9 13.1,-11.4 h 24.8 c -0.8,2.4 -1.7,4.7 -2.9,7 -3,5.8 -6.9,10.8 -11.8,15.1 -4.9,4.3 -10.4,7.4 -16.5,9.5 -6.2,2.1 -12.5,3 -18.9,2.6 -6.4,-0.4 -12.5,-2.1 -18.2,-4.8 -5.9,-2.9 -10.9,-6.6 -15.1,-11.4 -4.1,-4.8 -7.2,-10.2 -9.3,-16.4 -2.1,-6.3 -2.9,-12.5 -2.5,-18.8 0.5,-6.3 2.3,-12.4 5.2,-18.2 2.9,-5.8 6.7,-10.8 11.6,-15 4.9,-4.3 10.4,-7.4 16.6,-9.5 6.1,-2.1 12.4,-3 18.9,-2.6 6.5,0.4 12.6,2 18.3,4.8 5.8,2.8 10.7,6.6 14.9,11.4 4.1,4.7 7.3,10.2 9.3,16.5 1.5,4.4 2.3,8.9 2.5,13.3 z m -2.8,-16.4 44.1,-8.3 c -2.3,-4.1 -5.6,-7.5 -9.9,-10 -6,-3.4 -12.2,-4 -18.6,-1.8 -6.5,2.2 -11.1,6.5 -13.8,12.8 -0.8,2.4 -1.5,4.8 -1.8,7.3 z m 0,0"
       inkscape:connector-curvature="0"
       style="fill:#ffffff" />
  </g>
</svg>
