<?xml version="1.0" encoding="utf-8"?>
<!-- Generator: Adobe Illustrator 19.2.0, SVG Export Plug-In . SVG Version: 6.00 Build 0)  -->
<svg version="1.1" id="Layer_1" xmlns="http://www.w3.org/2000/svg" xmlns:xlink="http://www.w3.org/1999/xlink" x="0px" y="0px"
	 viewBox="0 0 26 26" style="enable-background:new 0 0 26 26;" xml:space="preserve">
<style type="text/css">
	.st0{fill:#d7b089;}
	.st1{fill:white;}
</style>
<path class="st0" d="M13,1c6.6,0,12,5.4,12,12s-5.4,12-12,12S1,19.6,1,13S6.4,1,13,1 M13,0C5.8,0,0,5.8,0,13s5.8,13,13,13
	s13-5.8,13-13S20.2,0,13,0L13,0z"/>
<path class="st1" d="M15.4,6.8v0.5h-0.2c-2,0-2,1.4-2,2v1.2v1h1h1.1L15.2,12h-1.1h-1v1v6.2h-0.6V13v-1h-1h-0.8v-0.5h0.8h1v-1V9
	c0-1.8,0.4-2.3,1.9-2.3L15.4,6.8 M16.4,5.8h-2c-2.4,0-2.9,1.2-2.9,3.3v1.5H9.7v2.5h1.8v7.2h2.7v-7.2h2l0.3-2.5h-2.2V9.4
	c0-0.6,0-1,1-1h1.2V5.8H16.4z"/>
</svg>
