<svg id="Layer_1" data-name="Layer 1" xmlns="http://www.w3.org/2000/svg" viewBox="0 0 80.1 46.9"><defs><style>.cls-1{fill:white;}</style></defs><title>logo</title><path class="cls-1" d="M24.1,32.6l-0.9.5h0L21.9,33l0.2,0.4h0.8l0.4-.1-0.3.3-0.1.1-0.1.1h0l-0.3.5,0.2,0.4,0.6-1.2h0l0.9-.5Zm4.3,6.3-0.2.6,0.5-.4Zm-1.8-2.4L27.1,37l0.1,0.1-0.1.1-1.2,1.2,0.3,0.3,1.5-1.5-0.9-.9ZM24,35.8h0l1.5-1-0.3-.4-1.4,1-0.1.1-0.1-.1L23.4,35l-0.3.2L24,36.4l0.3-.2L24,35.8h0Zm5.3,3.1H29.2l-0.7-.5H28.4V38.3l0.1-.3-0.3-.3-0.7,2.2,0.2,0.2,0.1-.2c0-.1,0-0.1.1-0.1h0V39.7h0l0.3-.8V38.8l0.1,0.1,0.5,0.4,0.1,0.1-0.1.1-0.7.5-0.1.1H27.8l-0.1.1-0.2.2,0.2,0.2,1.9-1.3L29.3,39V38.9ZM24.5,37l0.3,0.3,1.6-1.4-0.3-.3Zm25.7,3.6-0.1-.1H49.2a0.1,0.1,0,0,1-.1-0.1L49,40.3V40.1h0a0.1,0.1,0,0,1,.1-0.1l0.1-.1a0.31,0.31,0,0,0,.2-0.1h0.5V39.4H49.4a0.2,0.2,0,0,0-.2.1c-0.1.1-.2,0.1-0.3,0.2s-0.1.2-.2,0.3v0.3a0.37,0.37,0,0,0,.1.3,0.1,0.1,0,0,0,.1.1L49,40.8a0.1,0.1,0,0,1,.1.1h0.3a0.37,0.37,0,0,0,.3-0.1H50a0.1,0.1,0,0,1,.1.1L50.2,41h0v0.2a0.1,0.1,0,0,1-.1.1l-0.1.1H49.7v0.3h0.5a0.2,0.2,0,0,0,.2-0.1,0.38,0.38,0,0,0,.2-0.2,0.2,0.2,0,0,0,.1-0.2V40.9a0.37,0.37,0,0,0-.1-0.3C50.3,40.7,50.2,40.7,50.2,40.6ZM51.5,38l0.1,0.3v0.1H51.5l-0.7.6H50.6l-0.3-.2-0.3.3,1.9,1.3,0.2-.2L51.9,40H51.8l-0.1-.1a0.1,0.1,0,0,1-.1-0.1h0l-0.7-.5-0.1-.1,0.1-.1,0.5-.4,0.1-.1v0.1l0.3,0.8v0.2h0v0.2l0.1,0.2,0.2-.2-0.7-2.2ZM38.6,44.2H39V42.7l-0.1-.6H38.6v2.1Zm12.8-5,0.5,0.4L51.7,39ZM37.5,41.9a0.48,0.48,0,0,1-.4-0.1H36.6a0.2,0.2,0,0,0-.2.1h0c-0.1,0-.1.1-0.2,0.1l-0.2.2h0c0,0.1-.1.1-0.1,0.2s-0.1.2-.1,0.3v0.5a0.35,0.35,0,0,0,.1.2c0,0.1.1,0.1,0.1,0.2l0.1,0.1c0.1,0,.1.1,0.2,0.1s0.2,0.1.3,0.1S36.9,44,37,44l0.4,0.1L37.8,42l-0.4-.1h0.1Zm-0.1.4-0.2,1.3v0.1H37c-0.1,0-.2-0.1-0.3-0.1a0.22,0.22,0,0,1-.2-0.2,0.37,0.37,0,0,1-.1-0.3V42.8h0c0-.1.1-0.2,0.1-0.3a0.38,0.38,0,0,1,.2-0.2c0.1,0,.2-0.1.3-0.1h0.5l-0.1.1h0Zm10.9-.2h0L48.2,42l-0.7-1.6-0.4.2,0.7,1.6v0.1H47.7l-0.4.2,0.1,0.3,1.4-.6-0.1-.3Zm-5.5.6-0.4.1,0.3,0.6Zm0.3-.6h0l-1,.2H42V42.2l-0.2-.3-0.4.1,1.1,2h0.3l-0.1-.2V43.5h0l-0.4-.7-0.1-.1h0.1l0.6-.1H43v0.1l-0.1.8v0.7h0.3l0.4-2.3-0.4.1Zm-2.8,1h0v0.2h0v0.3l0.1,0.6-0.2-.6c0-.1,0-0.1-0.1-0.1a0.1,0.1,0,0,0-.1-0.1h0V43.3h0l-0.8-1.2H39l0.3,0.6c0,0.1,0,.1.1,0.1a0.1,0.1,0,0,0,.1.1h0a0.1,0.1,0,0,0,.1.1h0l0.8,1.2h0.5V42H40.5Zm4.6-1.7L45,41.7l0.7-.2h0.1v0.1L45.9,42v0.1H45.8l-0.6.2,0.1,0.3,0.6-.2H46v0.1l0.1,0.4V43H46l-0.7.2,0.1,0.3,1.2-.4L46,41Zm10.7-7.2c0,0.1.1,0.1,0.1,0.2s0.1,0.1.1,0.2a0.2,0.2,0,0,0,.2.1c0.1,0,.1.1,0.2,0.1a0.2,0.2,0,0,1,.2.1h0.4a0.2,0.2,0,0,0,.2-0.1c0.1,0,.1-0.1.2-0.1a0.38,0.38,0,0,0,.2-0.2,0.2,0.2,0,0,0,.1-0.2h0c0-.1.1-0.1,0.1-0.2a0.2,0.2,0,0,1,.1-0.2h0V33.5a0.2,0.2,0,0,0-.1-0.2c0-.1-0.1-0.1-0.1-0.2s-0.1-.1-0.1-0.2-0.1-.1-0.2-0.1h0c-0.1,0-.1-0.1-0.2-0.1a0.2,0.2,0,0,1-.2-0.1H56.4a0.2,0.2,0,0,0-.2.1c-0.1,0-.1.1-0.2,0.1a0.38,0.38,0,0,0-.2.2,0.2,0.2,0,0,0-.1.2c0,0.1-.1.1-0.1,0.2a0.2,0.2,0,0,1-.1.2V34A0.31,0.31,0,0,1,55.6,34.2Zm0.4-.9a0.38,0.38,0,0,1,.2-0.2,0.37,0.37,0,0,1,.3-0.1h0.3c0.1,0,.2.1,0.3,0.1h0a0.38,0.38,0,0,1,.2.2,0.37,0.37,0,0,1,.1.3h0v0.3a0.37,0.37,0,0,1-.1.3,0.38,0.38,0,0,1-.2.2,0.37,0.37,0,0,1-.3.1H56.5c-0.1,0-.2-0.1-0.3-0.1h0a0.38,0.38,0,0,1-.2-0.2,0.37,0.37,0,0,1-.1-0.3V33.6C55.9,33.5,56,33.4,56,33.3Zm-3.7,4,1.2,1.3,0.1,0.1-0.1.1-0.3.3,0.2,0.3,1.1-1-0.2-.3-0.3.3-0.1.1-0.1-.1-1.2-1.3ZM56.2,34a0.38,0.38,0,0,0,.2.2c0.1,0,.1.1,0.2,0.1h0.2a0.2,0.2,0,0,0,.2-0.1,0.1,0.1,0,0,0,.1-0.1h0c0-.1.1-0.1,0.1-0.2V33.7c0-.1-0.1-0.1-0.1-0.2a0.38,0.38,0,0,0-.2-0.2,0.35,0.35,0,0,1-.2-0.1H56.5a0.2,0.2,0,0,0-.2.1c-0.1,0-.1.1-0.1,0.2s-0.1.1-.1,0.2v0.2Zm-1,1.5h0l-0.5.6,0.2,0.2,0.4-.5,0.1-.1,0.1,0.1,0.3,0.3,0.1,0.1-0.1.1-0.4.6,0.2,0.2,0.8-1-1.7-1.3-0.2.2,0.7,0.5h0ZM33.5,41.3a0.35,0.35,0,0,0-.2-0.1l0.1,0.4,0.1,0.2-0.2-.1-0.5-.2h0v0.2a0.37,0.37,0,0,1-.1.3v0.2c0,0.1.1,0.1,0.1,0.2a0.35,0.35,0,0,0,.2.1h0.2a0.2,0.2,0,0,0,.2-0.1h0c0.1,0,.1-0.1.2-0.1s0.1-.1.1-0.2,0-.2.1-0.2V41.7A1.87,1.87,0,0,0,33.5,41.3Zm6.7-2.4a15.21,15.21,0,0,1-13.6-8.5H0v0.5H17.9a23.26,23.26,0,0,0,44.2,0H80V30.4H53.7A14.88,14.88,0,0,1,40.2,38.9ZM22.8,35.1l-0.1-.2-0.4-.7V34.1h0l0.4-.6H21.9V33.4l-0.4-.7-0.1-.2h0.2l1.5,0.1,0.9-.5h0.1v0.1l0.3,0.5v0.1H24.3l-0.9.5-0.7,1.3ZM24,36.7h0l-1-1.5-0.1-.1L23,35l0.5-.3,0.1-.1,0.1,0.1,0.2,0.4,1.4-1,0.1-.1,0.1,0.1,0.4,0.5L26,34.7l-0.1.1-1.4,1,0.2,0.4,0.1,0.1-0.1.1-0.7.3h0Zm0.8,0.9h0L24.3,37l-0.1-.1,0.1-.1,1.8-1.6,0.1-.1,0.1,0.1,0.4,0.5,0.1,0.1-0.1.1-1.9,1.7h0ZM26.2,39h0l-0.5-.5-0.1-.1,0.1-.1,1.2-1.2-0.5-.5-0.1-.1,0.1-.1,0.4-.4,0.1-.1L27,36l1,1,0.1,0.1-0.1.1L26.2,39h0ZM28,40.5h0L27.3,40H27.2V39.9L28,37.5V37.4l0.1,0.1,0.5,0.4h0.1V38l-0.1.3,0.6,0.5,0.3-.2h0.2L30.2,39l0.1,0.1-0.1.1L28,40.5h0Zm3.5,0.6-0.1.2-0.5.9-0.1.1-0.1-.1-0.5-.3H30.1V41.8l0.6-1h0c0-.1.1-0.1,0.1-0.2a0.1,0.1,0,0,1,.1-0.1V40.3h0V40.1L30.8,40a0.1,0.1,0,0,1-.1-0.1H30.2l-0.1.1a0.1,0.1,0,0,1-.1.1c0,0.1-.1.1-0.1,0.2h0l-0.1.1-0.5.9-0.1.1H29.1l-0.6-.3H28.4V41L29,39.9c0.1-.1.1-0.2,0.2-0.3a0.38,0.38,0,0,1,.2-0.2c0-.1.1-0.1,0.2-0.1s0.1-.1.2-0.1h0.4c0.1,0,.2,0,0.2.1s0.2,0.1.3,0.1a0.38,0.38,0,0,1,.2.2l0.2,0.2h0a0.2,0.2,0,0,1,.1.2c0,0.1.1,0.1,0.1,0.2v0.4a0.2,0.2,0,0,1-.1.2C31.7,40.9,31.6,41,31.5,41.1Zm2.9,1.2a0.35,0.35,0,0,1-.1.2,0.38,0.38,0,0,1-.2.2l-0.2.2c-0.1,0-.1.1-0.2,0.1h0a0.35,0.35,0,0,0-.2.1H32.9a0.37,0.37,0,0,1-.3-0.1,0.35,0.35,0,0,1-.2-0.1,0.38,0.38,0,0,1-.2-0.2L32,42.5a0.2,0.2,0,0,1-.1-0.2,0.35,0.35,0,0,0-.1-0.2V41.8h0V41.5a0.37,0.37,0,0,1,.1-0.3A0.35,0.35,0,0,1,32,41a0.38,0.38,0,0,1,.2-0.2h0l0.2-.2a0.35,0.35,0,0,1,.2-0.1l-0.2-.6-0.1-.2,0.2,0.1L33,40h0l0.1,0.3h0.3c0.1,0,.1.1,0.2,0.1s0.1,0.1.2,0.1,0.1,0.1.2,0.1a0.35,0.35,0,0,1,.1.2c0.1,0.1.1,0.2,0.2,0.3s0.1,0.2.1,0.3v0.3A1.06,1.06,0,0,1,34.4,42.3Zm3.8-.4-0.4,2.3v0.1H37.7l-0.5-.1c-0.2,0-.3-0.1-0.5-0.1S36.5,44,36.4,44h0c-0.1,0-.1-0.1-0.2-0.1s-0.1-.1-0.2-0.1l-0.2-.2c0-.1-0.1-0.2-0.1-0.3h0V42.7h0a0.37,0.37,0,0,1,.1-0.3c0-.1.1-0.2,0.1-0.3a0.38,0.38,0,0,1,.2-0.2,0.38,0.38,0,0,0,.2-0.2c0.1,0,.1-0.1.2-0.1H37a0.6,0.6,0,0,1,.4.1h0.1L38,41.8l0.2,0.1h0Zm2.8,0v2.5H40.3l-0.9-1.2v1.3H38.5V41.9h0.8l0.9,1.2h0V41.8h0.1L41,41.9h0Zm2.8-.3-0.4,2.5v0.1H43.3l-0.8.1H42.4V44.2L41.2,42l-0.1-.1h0.1l0.6-.1h0.1v0.1l0.2,0.3,0.8-.1V41.6H43l0.6-.1h0.1Zm3.1,1.6-1.4.4H45.4V43.5L45.2,43V42.9h0.1l0.7-.2-0.1-.2-0.6.2H45.2V42.6l-0.1-.5V42h0.1l0.6-.2-0.1-.2-0.7.2H44.9V41.7l-0.2-.5V41.1h0.1l1.4-.4h0.1v0.1L47,43.1l-0.1.1h0Zm2.1-.8-1.6.7H47.3V43l-0.2-.5V42.4h0.1l0.4-.2-0.7-1.6V40.5H47l0.6-.3h0.1v0.1l0.7,1.6,0.4-.2h0.1v0.1l0.2,0.5-0.1.1h0Zm1.5-1a0.92,0.92,0,0,1-.5.5c-0.1,0-.1.1-0.2,0.1a0.2,0.2,0,0,0-.2.1H49.1V41.4h0.4a0.6,0.6,0,0,0-.4.1H48.8a0.1,0.1,0,0,1-.1-0.1l-0.1-.1-0.1-.1-0.1-.1h0a0.48,0.48,0,0,1-.1-0.4V40.3a0.92,0.92,0,0,1,.5-0.5,0.35,0.35,0,0,0,.2-0.1h0.4a0.37,0.37,0,0,1,.3.1h0.1v0.8H49.7a0.2,0.2,0,0,1-.2-0.1H49.1a0.1,0.1,0,0,0-.1.1v0.3h0V41h0.9c0.1,0,.1.1,0.2,0.1l0.2,0.2a0.37,0.37,0,0,1,.1.3C50.6,41.1,50.6,41.3,50.5,41.4ZM52.7,40l-0.6.5H51.9l-2.1-1.4L49.7,39l0.1-.1,0.5-.4h0.2l0.3,0.2,0.6-.5-0.1-.3V37.8h0.1l0.5-.4,0.1-.1v0.1l0.8,2.4-0.1.2h0Zm2.7-6.5h0a0.37,0.37,0,0,1,.1-0.3,0.35,0.35,0,0,1,.1-0.2,0.38,0.38,0,0,1,.2-0.2l0.2-.2h0a0.2,0.2,0,0,1,.2-0.1,0.35,0.35,0,0,0,.2-0.1H57a0.37,0.37,0,0,1,.3.1,0.35,0.35,0,0,1,.2.1,0.38,0.38,0,0,1,.2.2L57.9,33h0c0,0.1.1,0.1,0.1,0.2s0.1,0.2.1,0.3v0.6a0.37,0.37,0,0,1-.1.3,0.35,0.35,0,0,1-.1.2,0.22,0.22,0,0,1-.2.2l-0.2.2h0a0.2,0.2,0,0,1-.2.1,0.35,0.35,0,0,0-.2.1H56.5a0.37,0.37,0,0,1-.3-0.1A0.35,0.35,0,0,1,56,35h0a0.38,0.38,0,0,1-.2-0.2l-0.2-.2h0a0.2,0.2,0,0,1-.1-0.2c0-.1-0.1-0.2-0.1-0.3V33.8A0.19,0.19,0,0,1,55.4,33.5Zm-1.1,1.4,0.4-.5,0.1-.1,0.1,0.1,1.8,1.5L56.8,36l-0.1.1-0.9,1.1-0.1.1-0.1-.1-0.4-.3-0.1-.1,0.1-.1,0.4-.6L55.5,36l-0.4.5-0.1.1-0.1-.1-0.4-.3-0.1-.1,0.1-.1,0.4-.5L54.3,35V34.9h0Zm-0.1,2.9h0.1l0.4,0.4,0.1,0.1-0.1.1-1.2,1.2-0.1.1-0.1-.1-0.4-.4-0.1-.1,0.1-.1,0.3-.3L52,37.4l-0.1-.1,0.1-.1,0.5-.4,0.1-.1,0.1,0.1L53.9,38ZM36.9,42.3a0.2,0.2,0,0,0-.2.1h0a0.1,0.1,0,0,0-.1.1,0.35,0.35,0,0,1-.1.2h0V43a0.2,0.2,0,0,0,.1.2h0c0,0.1.1,0.1,0.2,0.1s0.2,0.1.3,0.1h0l0.2-1.1H36.9Zm-2.7-.9a0.35,0.35,0,0,0-.1-0.2L34,41.1,33.9,41h0a0.35,0.35,0,0,0-.2-0.1c-0.1,0-.1-0.1-0.2-0.1H33V40.7l-0.1-.4-0.3-.1,0.1,0.5v0.1H32.6c-0.1,0-.1.1-0.2,0.1s-0.1.1-.2,0.1a0.2,0.2,0,0,0-.1.2c0,0.1-.1.1-0.1,0.2a0.2,0.2,0,0,1-.1.2V42a0.2,0.2,0,0,0,.1.2h0c0,0.1.1,0.1,0.1,0.2s0.1,0.1.1,0.2a0.2,0.2,0,0,0,.2.1c0.1,0,.1.1,0.2,0.1a0.2,0.2,0,0,1,.2.1h0.4a0.2,0.2,0,0,0,.2-0.1h0c0.1,0,.1-0.1.2-0.1s0.1-.1.2-0.1a0.2,0.2,0,0,0,.1-0.2c0-.1.1-0.1,0.1-0.2h0c0-.1.1-0.2,0.1-0.3V41.6h0C34.3,41.6,34.2,41.5,34.2,41.4Zm-0.4.6a0.53,0.53,0,0,1-.2.3l-0.2.2c-0.1,0-.2.1-0.3,0.1H32.8a0.22,0.22,0,0,1-.2-0.2l-0.2-.2h0a0.32,0.32,0,0,1,0-.3,0.37,0.37,0,0,1,.1-0.3V41.5a1414386.63,1414386.63,0,0,0,.2-0.2l0.1-.1,0.1-.1v0.2l0.3,0.1-0.1-.3V41h0.3a0.22,0.22,0,0,1,.2.2l0.2,0.2h0c0,0.1.1,0.2,0.1,0.3S33.8,41.9,33.8,42Zm-2.2-1.8a0.2,0.2,0,0,0-.1-0.2c0-.1-0.1-0.1-0.1-0.2a0.38,0.38,0,0,0-.2-0.2L31,39.4a0.35,0.35,0,0,1-.2-0.1c-0.1,0-.1-0.1-0.2-0.1H30.2a0.1,0.1,0,0,0-.1.1l-0.1.1a0.35,0.35,0,0,0-.1.2c-0.1.1-.1,0.2-0.2,0.3h0l-0.6,1,0.4,0.2,0.4-.8,0.1-.1h0c0-.1.1-0.1,0.1-0.2a2828769.18,2828769.18,0,0,0,.2-0.2l0.1-.1h0a0.1,0.1,0,0,0,.1-0.1h0.2a0.1,0.1,0,0,1,.1.1h0l0.1,0.1L31,39.9h0v0.4h0a0.31,0.31,0,0,1-.1.2c0,0.1-.1.1-0.1,0.2l-0.5.9,0.4,0.2,0.4-.8h0l0.1-.2c0.1-.1.1-0.2,0.2-0.3a0.35,0.35,0,0,1,.1-0.2V40.1c0.1,0.2.1,0.1,0.1,0.1h0ZM27.9,7.4h0l0.4-.3-0.2-.3-1.2.9L27.1,8l0.3-.3,0.1-.1,0.1,0.1,1,1.4L29,8.8,27.9,7.4h0ZM36.6,5h0l-0.1-.1L36.2,3.2l-0.4.1,0.4,2.1,1.2-.2-0.1-.4ZM33.9,3.9L34,4.1V4.2l0.1,0.1V4.4h0l0.5,0.7,0.1,0.1H34.6L34,5.4H33.9v-1h0V3.9L33.5,4,33.4,6.3l0.4-.1V5.7h0.1l0.9-.3h0.1V5.5l0.2,0.3,0.4-.1L34.1,3.8ZM34,4.5V5.1L34.4,5Zm6.3-.4h0a0.2,0.2,0,0,1-.1-0.2A0.35,0.35,0,0,0,40,3.8c-0.1,0-.2-0.1-0.3-0.1H39.5c-0.1,0-.1,0-0.1-0.1h0l-0.1-.1V3.4h0V3.3a0.1,0.1,0,0,1,.1-0.1h0a0.1,0.1,0,0,0,.1-0.1h0.3a0.1,0.1,0,0,1,.1.1h0L40,2.9H39.9a0.2,0.2,0,0,1-.2-0.1H39.3a0.37,0.37,0,0,0-.3.1h0a0.35,0.35,0,0,0-.2.1,0.2,0.2,0,0,0-.1.2V3.5h0V3.7a0.1,0.1,0,0,0,.1.1,0.35,0.35,0,0,0,.2.1c0.1,0,.2.1,0.3,0.1s0.2,0,.2.1,0.1,0,.1.1h0l0.1,0.1V4.4h0V4.5a0.1,0.1,0,0,1-.1.1l-0.1.1H39.2A0.2,0.2,0,0,1,39,4.6h0c-0.1,0-.1-0.1-0.2-0.1h0l-0.1-.1-0.2.3,0.1,0.1c0.1,0,.1.1,0.2,0.1h0.4a0.37,0.37,0,0,0,.3-0.1,0.22,0.22,0,0,0,.2-0.2,0.2,0.2,0,0,0,.1-0.2V4.1h0V4C40.3,4.2,40.3,4.2,40.3,4.1Zm2.2-.2V4.5h0V4.7h0l-0.1.1a0.1,0.1,0,0,0-.1.1H42a0.1,0.1,0,0,1-.1-0.1h0l-0.1-.1a0.1,0.1,0,0,0-.1-0.1h0V4.4h0V4l0.1-1.1H41.4l-0.1.9V4h0V4.7a0.1,0.1,0,0,0,.1.1h0l0.1,0.1a0.35,0.35,0,0,0,.2.1h0c0.1,0,.1.1,0.2,0.1h0.8A0.2,0.2,0,0,0,42.9,5,0.1,0.1,0,0,0,43,4.9h0l0.1-.1a0.1,0.1,0,0,1,.1-0.1,0.2,0.2,0,0,1,.1-0.2V4.2L43.4,3H43ZM45.3,4V3.9a0.1,0.1,0,0,0-.1-0.1h0l-0.1-.1A0.1,0.1,0,0,1,45,3.6a0.31,0.31,0,0,1-.2-0.1c-0.1,0-.2-0.1-0.3-0.1l-0.6-.1L43.4,5.4l0.4,0.1,0.1-.7V4.7h0.9a0.1,0.1,0,0,0,.1-0.1L45,4.5l0.1-.1a0.2,0.2,0,0,1,.1-0.2h0V4c0.1,0.1.1,0,.1,0h0Zm-0.4.2a0.2,0.2,0,0,1-.1.2l-0.1.1H44.1V4.4l0.1-.5V3.8h0.2a0.2,0.2,0,0,1,.2.1,0.1,0.1,0,0,1,.1.1l0.1,0.1C44.9,4.1,44.9,4.1,44.9,4.2ZM44.7,4h0a0.31,0.31,0,0,0-.2-0.1h0l-0.1.4h0.3V4h0ZM23.8,11l0.6,0.5,0.1,0.1-0.1.1-0.5.7-0.1.1-0.1-.1-0.6-.5-0.3.4,1.7,1.3,0.3-.4-0.7-.5L24,12.6l0.1-.1,0.5-.7,0.1-.1,0.1,0.1,0.7,0.5,0.3-.4-1.7-1.3Zm8.3-6.1h0l0.5-.2-0.1-.3L31.1,5l0.1,0.3,0.4-.2h0.1V5.2l0.7,1.6,0.4-.2L32.1,4.9h0Zm-9.6,8.6h0l0.3-.5-0.3-.2-0.7,1.3,0.3,0.2,0.2-.4V13.8h0.1l1.5,0.8,0.2-.4-1.6-.7h0Zm8.6-7.1c0-.1-0.1-0.1-0.1-0.2h0c0-.1-0.1-0.1-0.1-0.2a0.2,0.2,0,0,0-.2-0.1c-0.1,0-.1-0.1-0.2-0.1s-0.1-.1-0.2-0.1H29.9a0.2,0.2,0,0,0-.2.1c-0.1,0-.1.1-0.2,0.1S29.4,6,29.3,6l-0.2.2c0,0.1-.1.1-0.1,0.2s-0.1.1-.1,0.2V7a0.2,0.2,0,0,0,.1.2c0,0.1.1,0.1,0.1,0.2s0.1,0.1.1,0.2a0.2,0.2,0,0,0,.2.1c0.1,0,.1.1,0.2,0.1s0.1,0.1.2,0.1h0.4a0.2,0.2,0,0,0,.2-0.1c0.1,0,.1-0.1.2-0.1s0.1-.1.2-0.1L31,7.4c0-.1.1-0.1,0.1-0.2s0.1-.1.1-0.2V6.6C31.2,6.5,31.2,6.4,31.1,6.4ZM30.8,7c0,0.1-.1.2-0.1,0.3l-0.2.2a0.37,0.37,0,0,1-.3.1H29.9c-0.1,0-.2-0.1-0.3-0.1h0l-0.2-.2A0.37,0.37,0,0,1,29.3,7V6.7c0-.1.1-0.2,0.1-0.3l0.2-.2a0.37,0.37,0,0,1,.3-0.1h0.3c0.1,0,.2.1,0.3,0.1l0.2,0.2a0.37,0.37,0,0,1,.1.3V7h0Zm-0.3-.5a0.38,0.38,0,0,0-.2-0.2c-0.1,0-.1-0.1-0.2-0.1H29.9a0.2,0.2,0,0,0-.2.1c-0.1,0-.1.1-0.2,0.1s-0.1.1-.1,0.2V6.8c0,0.1,0,.2.1,0.2h0a0.38,0.38,0,0,0,.2.2c0.1,0,.1.1,0.2,0.1h0.2a0.2,0.2,0,0,0,.2-0.1h0c0.1,0,.1-0.1.2-0.1s0.1-.1.1-0.2V6.7A0.35,0.35,0,0,1,30.5,6.5Zm-4.1,4.3H26.3L26,10.5l-0.1-.1,0.1-.1,0.4-.5-0.2-.2-0.4.5-0.1.1-0.1-.1-0.3-.3-0.1-.1,0.1-.1,0.5-.5L25.5,9l-0.8.9,1.6,1.4,0.8-.9-0.2-.2ZM46,5.7h0l0.2-.5V5.1h0.1l0.6,0.2L47,5l-0.6-.2H46.3V4.7l0.1-.4V4.2h0.1l0.7,0.2,0.1-.3-1.2-.4L45.4,5.8l1.2,0.4,0.1-.3L46,5.7h0Zm7.8,3.8H54l0.1-.1h0l0.1-.1V9.1L54.1,9h0l-0.3.3h0A0.14,0.14,0,0,0,53.8,9.5ZM56.6,12l0.3,0.4,0.3-.2L56.3,11l-0.3.2,0.3,0.3,0.1,0.1-0.1.1-1.4,1,0.3,0.4,1.4-1V12h0Zm1,2H57.4l-0.4.1,0.3-.3,0.1-.1V13.6h0l0.3-.5-0.2-.4-0.6,1.2h0l-0.8.5,0.2,0.4,0.8-.5h0l1.3,0.1L58.2,14H57.6Zm-3.4-4h0a0.2,0.2,0,0,0,.2-0.1c0.1,0,.1-0.1.2-0.1h0l0.1-.1a0.1,0.1,0,0,1,.1-0.1h0V9.3a0.1,0.1,0,0,0-.1-0.1A0.35,0.35,0,0,1,54.6,9l-0.2-.2L54,8.4,52.5,10l0.3,0.3,0.6-.6,0.2-.3h0L54,9l0.1-.1L54.2,9l0.1,0.1a0.2,0.2,0,0,1,.1.2c0,0.1.1,0.1,0.1,0.2h0V9.7c0,0.1-.1.1-0.1,0.2l-0.1.1H54.1a0.2,0.2,0,0,1-.2-0.1c-0.1,0-.1-0.1-0.2-0.1l-0.1-.1h0V9.9l-0.2,1,0.3,0.3,0.2-1V10.1L54,10.2c0.1,0,.1.1,0.2,0.1C54.1,10.1,54.1,10.1,54.2,10ZM54,11.5l0.3,0.3,1.6-1.4-0.3-.3ZM48.9,6.2h0.2a0.1,0.1,0,0,0,.1-0.1,0.35,0.35,0,0,0,.1-0.2h0a0.1,0.1,0,0,1,.1-0.1V5.7h0V5.5a0.1,0.1,0,0,0-.1-0.1l-0.1-.1h0A0.35,0.35,0,0,0,49,5.2,0.53,0.53,0,0,1,48.7,5l-0.5-.3-1,2,0.4,0.2L48,6.2,48.1,6h0V5.9l0.3-.6V5.2h0.1l0.1,0.1c0.1,0,.1.1,0.2,0.1a0.1,0.1,0,0,1,.1.1h0V5.7a0.2,0.2,0,0,1-.1.2,0.1,0.1,0,0,1-.1.1l-0.1.1H48.4A0.2,0.2,0,0,1,48.2,6h0l-0.1-.1h0V6.1l0.1,1,0.4,0.2-0.1-1V6.2h0.4Zm-0.3-.4c0-.1.1-0.1,0,0a0.1,0.1,0,0,0,.1-0.1h0V5.5l-0.1-.1-0.1-.1h0l-0.2.4h0a0.37,0.37,0,0,1,.3.1h0Zm0.7,1.8,0.4,0.2,1.1-1.9-0.4-.2ZM52,7.4c-0.1,0-.1-0.1-0.2-0.1H51.6a0.2,0.2,0,0,0-.2.1,0.38,0.38,0,0,0-.2.2,0.2,0.2,0,0,0-.1.2V8a0.2,0.2,0,0,0,.1.2c0,0.1.1,0.1,0.1,0.2s0.1,0.1.2,0.1h0.2a0.2,0.2,0,0,0,.2-0.1,0.38,0.38,0,0,0,.2-0.2A0.2,0.2,0,0,0,52.2,8V7.8a0.2,0.2,0,0,0-.1-0.2A0.2,0.2,0,0,0,52,7.4Zm0.3,1.5c0.1,0,.1-0.1.2-0.1l0.2-.2h0c0-.1.1-0.1,0.1-0.2s0.1-.1.1-0.2V7.8c0-.1,0-0.2-0.1-0.2s-0.1-.1-0.1-0.2-0.1-.1-0.1-0.2L52.4,7c-0.1,0-.1-0.1-0.2-0.1S52.1,6.8,52,6.8H51.4c-0.1,0-.1.1-0.2,0.1S51.1,7,51,7a0.38,0.38,0,0,0-.2.2c0,0.1-.1.1-0.1,0.2s-0.1.1-.1,0.2V8h0c0,0.1,0,.2.1,0.2s0.1,0.1.1,0.2,0.1,0.1.1,0.2a0.38,0.38,0,0,0,.2.2c0.1,0,.1.1,0.2,0.1S51.4,9,51.5,9h0.6a0.35,0.35,0,0,1,.2-0.1h0ZM52,8.5a0.37,0.37,0,0,1-.3.1H51.4c-0.1,0-.2-0.1-0.3-0.1l-0.2-.2c0-.1-0.1-0.2-0.1-0.3V7.7c0-.1.1-0.2,0.1-0.3a0.38,0.38,0,0,1,.2-0.2,0.37,0.37,0,0,1,.3-0.1h0.3c0.1,0,.2.1,0.3,0.1l0.2,0.2c0,0.1.1,0.2,0.1,0.3V8c0,0.1-.1.2-0.1,0.3A0.22,0.22,0,0,1,52,8.5Zm10,7.2a23.26,23.26,0,0,0-44,0H0v0.5H26.9a15.15,15.15,0,0,1,26.6,0H80.1V15.7H62ZM24.3,14.4L24,15v0.1H23.9l-1.5-.8-0.2.4v0.1H22.1l-0.5-.3H21.5V14.4l0.8-1.5V12.8h0.1l0.5,0.3H23v0.1l-0.2.4,1.5,0.8h0ZM26,12l-0.4.5-0.1.1-0.1-.1L24.7,12l-0.4.5L25,13l0.1,0.1-0.1.1-0.4.5-0.1.1-0.1-.1-1.9-1.4-0.1-.1,0.1-.1,0.4-.5,0.1-.1,0.1,0.1,0.6,0.5,0.4-.5-0.6-.5V11l0.1-.1,0.4-.5,0.1-.1,0.1,0.1,1.9,1.4L26,12h0Zm1.3-1.5-1,1.1-0.1.1-0.1-.1L24.4,10l-0.1-.1,0.1-.1,1-1.1,0.1-.1,0.1,0.1L26,9l0.1,0.1L26,9.2l-0.5.5,0.2,0.1,0.4-.5,0.1-.1,0.1,0.1,0.4,0.3,0.1,0.1-0.1.1-0.4.5,0.2,0.1L27,9.9l0.1-.1,0.1,0.1,0.4,0.4-0.3.2h0ZM29.1,9l-0.5.4-0.1.1-0.1-.1L27.4,8l-0.3.3L27,8.4l-0.1-.1-0.3-.5-0.1-.1,0.1-.1,1.4-1,0.1-.1,0.1,0.1,0.3,0.5,0.1,0.1-0.1.1-0.3.3,1,1.4H29.1Zm2.3-1.9h0c0,0.1-.1.2-0.1,0.3a0.35,0.35,0,0,1-.1.2L31,7.8,30.8,8h0a0.35,0.35,0,0,0-.2.1c-0.1,0-.2.1-0.3,0.1H29.7a0.37,0.37,0,0,1-.3-0.1A0.35,0.35,0,0,1,29.2,8L29,7.8l-0.2-.2h0a0.35,0.35,0,0,0-.1-0.2c0-.1-0.1-0.2-0.1-0.3h0V6.5a0.35,0.35,0,0,1,.1-0.2,0.35,0.35,0,0,1,.1-0.2h0L29,5.9h0l0.2-.2a0.35,0.35,0,0,0,.2-0.1c0.1,0,.2-0.1.3-0.1h0.6c0.1,0,.2,0,0.2.1a0.35,0.35,0,0,1,.2.1h0l0.2,0.2,0.2,0.2a0.35,0.35,0,0,0,.1.2c0,0.1.1,0.2,0.1,0.3V6.9C31.4,6.9,31.4,7,31.4,7.1ZM33,6.7L32.4,7H32.3V6.9L31.6,5.3l-0.4.2H31.1V5.4l-0.2-.5V4.8H31l1.5-.7h0.1V4.2l0.2,0.5V4.8H32.7L32.3,5,33,6.6V6.7h0Zm2.7-.9L35.1,6H35V5.9l-0.2-.3-0.7.2V6.3H34l-0.6.2H33.3V6.4l0.1-2.5V3.8h0.1l0.8-.2h0.1V3.7l1.5,2L36,5.8H35.7Zm1.8-.4-1.4.3H36V5.6L35.6,3.3V3.2h0.1l0.6-.1h0.1V3.2l0.3,1.7,0.7-.1h0.1V4.9l0.1,0.5H37.5Zm3-.7a0.53,0.53,0,0,1-.2.3,0.53,0.53,0,0,1-.3.2,2.27,2.27,0,0,1-.4.1H39.4c-0.1,0-.2,0-0.2-0.1S39.1,5.1,39,5.1a0.38,0.38,0,0,1-.2-0.2l-0.1-.1V4.7L39,4.2l0.1-.1,0.1,0.1,0.1,0.1,0.1,0.1h0.4V4.2H39.7a0.2,0.2,0,0,1-.2-0.1c-0.1,0-.2-0.1-0.3-0.1A0.35,0.35,0,0,1,39,3.9a0.2,0.2,0,0,1-.1-0.2,0.37,0.37,0,0,0-.1-0.3V3.1A0.53,0.53,0,0,1,39,2.8a0.53,0.53,0,0,1,.3-0.2h0a2.27,2.27,0,0,1,.4-0.1h0.4a0.2,0.2,0,0,1,.2.1c0.1,0,.1.1,0.2,0.1h0.1V2.8l-0.2.5V3.4l-0.1-.1a0.1,0.1,0,0,1-.1-0.1H39.9a1,1,0,0,1,.3.1,0.35,0.35,0,0,1,.2.1h0l0.1,0.1,0.1,0.1V3.9A4.53,4.53,0,0,0,40.5,4.7Zm2.6-.4a0.37,0.37,0,0,1-.1.3c0,0.1,0,.2-0.1.2h0c0,0.1-.1.1-0.1,0.2s-0.1.1-.1,0.2-0.1.1-.2,0.1-0.1.1-.2,0.1H41.7a0.37,0.37,0,0,1-.3-0.1,0.35,0.35,0,0,1-.2-0.1c-0.1,0-.1-0.1-0.2-0.1S40.9,5,40.9,4.9s-0.1-.1-0.1-0.2v-1h0l0.1-1V2.6H41l0.6,0.1h0.1V2.8L41.6,3.9V4.5h0.6V4h0V3.8l0.1-1V2.7h0.1L43,2.8h0.1V4.3Zm2,0.7h0a0.1,0.1,0,0,0-.1.1H44.3l-0.1.7V5.9H44.1l-0.6-.1H43.4V5.7l0.5-2.3V3.3H44l0.7,0.1c0.1,0,.2.1,0.3,0.1a0.35,0.35,0,0,1,.2.1c0.1,0,.1.1,0.2,0.1l0.1,0.1c0,0.1.1,0.1,0.1,0.2a0.2,0.2,0,0,0,.1.2V4.6a0.2,0.2,0,0,1-.1.2c0,0.1-.1.1-0.1,0.2a0.1,0.1,0,0,1-.1.1C45.2,4.9,45.1,4.9,45.1,5Zm1.7,1.5h0l-0.1.1-1.4-.5H45.2V6L46,3.8V3.7h0.1l1.4,0.5h0.1V4.3l-0.2.5V4.9H47.3l-0.7-.2-0.1.2,0.6,0.2h0.1V5.2L47,5.7V5.8H46.9l-0.6-.2-0.1.2L46.9,6H47V6.1Zm2,1-0.6-.3H48.1V7.1L48,6.4l-0.2.5V7H47.7l-0.5-.3H47.1V6.6l1-2.1V4.4h0.1l0.6,0.3h0c0.1,0.1.2,0.1,0.3,0.2a0.2,0.2,0,0,0,.2.1l0.1,0.1,0.1,0.1a0.2,0.2,0,0,0,.1.2V5.8a0.2,0.2,0,0,1-.1.2,0.22,0.22,0,0,1-.2.2l-0.2.2a0.35,0.35,0,0,0-.2.1H48.8l0.1,1V7.7Zm1,0.6h0l-0.6-.4-0.1-.1,0.1-.1,1.2-2,0.1-.1,0.1,0.1,0.6,0.3,0.1,0.1L51.2,6,49.8,8.1h0Zm2.1,1.1H51.3a0.35,0.35,0,0,1-.2-0.1A0.35,0.35,0,0,1,50.9,9l-0.2-.2-0.2-.2h0a0.35,0.35,0,0,0-.1-0.2,0.37,0.37,0,0,0-.1-0.3V7.5a0.35,0.35,0,0,1,.1-0.2,0.35,0.35,0,0,1,.1-0.2h0l0.2-.2,0.2-.2a0.35,0.35,0,0,0,.2-0.1,0.37,0.37,0,0,0,.3-0.1H52a0.35,0.35,0,0,1,.2.1,0.35,0.35,0,0,1,.2.1h0l0.2,0.2,0.2,0.2a0.35,0.35,0,0,0,.1.2c0,0.1.1,0.2,0.1,0.3h0V8.2h0a0.35,0.35,0,0,1-.1.2,0.35,0.35,0,0,1-.1.2h0l-0.2.2a0.2,0.2,0,0,1-.2.1,0.35,0.35,0,0,0-.2.1c-0.2.2-.2,0.2-0.3,0.2h0Zm1.8,2.2-0.1-.1-0.5-.5h0V10.7l0.2-.7-0.4.4-0.1.1-0.1-.1L52.3,10l-0.1-.1,0.1-.1,1.6-1.7L54,8l0.1,0.1,0.5,0.5,0.2,0.2a0.2,0.2,0,0,1,.1.2,0.1,0.1,0,0,0,.1.1V9.3h0V9.7a0.2,0.2,0,0,1-.1.2c0,0.1-.1.1-0.1,0.2h0l-0.2.2a0.35,0.35,0,0,0-.2.1H54l-0.2,1H53.7Zm0.6,0.8h0l-0.5-.6-0.1-.1,0.1-.1,1.8-1.6,0.1-.1,0.1,0.1,0.4,0.5,0.1,0.1-0.1.1-1.9,1.7h0Zm0.7,1h0l-0.4-.6-0.1-.1,0.1-.1,1.4-1-0.3-.3L55.6,11l0.1-.1,0.5-.3,0.1-.1,0.1,0.1,1,1.4,0.1,0.1-0.1.1-0.4.3-0.1.1-0.1-.1-0.2-.4L55,13.2h0Zm3.6,1.4-1.5-.1-0.9.5H56.1V14.9l-0.3-.5V14.3h0.1l0.9-.5,0.7-1.3,0.1-.2,0.1,0.2,0.4,0.6v0.1h0l-0.4.6h0.8v0.1l0.4,0.6L59,14.7Zm-16.5,20H41.8v1.9h0.3V34.6ZM40.4,36h0.7l0.2,0.5h0.3l-0.9-2-0.9,2h0.3Zm0.3-.7h0a0.35,0.35,0,0,1,.1-0.2v0.2L41,35.7H40.5Zm-5.8.5a0.8,0.8,0,1,0,1.6,0V34.6H36.2v1.2a0.51,0.51,0,1,1-1,0V34.6H34.9v1.2Zm10.8-.9V34.6h-1v1.9h1V36.2H45V35.6h0.7V35.3H45V34.8Zm-8.5.7,0.7,1h0.4l-0.8-1.1,0.7-.8H37.8l-0.7.8V34.7H36.8v1.9h0.3Zm5.4,0.9h0.3V35.2L43,35.3l0.1,0.1,1.2,1.2v-2H44v1.3l-0.1-.1-0.1-.1-1.2-1.2v2Zm-3.8-.8h0l0.7,0.9h0.3l-0.6-.9a0.53,0.53,0,0,0,.3-0.2,0.48,0.48,0,0,0,.1-0.4V34.9c0-.1-0.1-0.1-0.1-0.2s-0.1-.1-0.2-0.1H38.5v1.9h0.3V35.7Zm0-.8h0a0.48,0.48,0,0,1,.4.1c0.1,0,.1.1,0.1,0.2s0,0.2-.1.2-0.2.1-.3,0.1H38.8V34.9Zm-0.2-1.1h0.2V33.2l0.5,0.6h0.3l-0.5-.7,0.5-.6H39.4L39,33V32.5H38.8Zm1.3,0h0.2V33.2l0.4-.7H40.3l-0.3.4h0v0h0l-0.3-.4H39.5l0.4,0.7v0.6Zm0.9,0V32.6H40.6v1.2h0.2Zm1-1.3-0.3.7v0l-0.3-.7H41l0.5,1.3L42,32.5H41.8ZM47,31.2l-0.2-.4h0l-0.2.4H47Zm-0.4-.1,0.1-.3,0.2,0.3H46.6Zm-0.2.5,0.1-.3h0.4L47,31.6h0.2l-0.5-1.2h0l-0.5,1.2h0.2Zm-0.1,0,0.5-1.1,0.5,1.1H47.2l-0.1-.3H46.5l-0.1.3H46.3Zm-12-1.1h0v1.2h0.2V31.2l0.4,0.5h0.2l-0.4-.5h0.1a0.1,0.1,0,0,0,.1-0.1A0.1,0.1,0,0,1,35,31V30.5H34.3Zm0.4,0h0c0.1,0,.1.1,0,0l0.1,0.1v0.1h0V31a0.1,0.1,0,0,1-.1.1,0.1,0.1,0,0,0-.1.1H34.4l0.4,0.5H34.7l-0.4-.5h0v0.5H34.2V30.6h0.2a0.49,0.49,0,0,1,.3-0.1h0Zm11.1,0.6h0.6V30.6h0V30.5H45.6v1.1h0.2V31.1h0Zm0,0v0.5H45.7V30.5h0.5v0.6H45.8Zm0.3-.1c0.1,0,.1-0.1,0,0a0.2,0.2,0,0,0,.1-0.2V30.7a0.1,0.1,0,0,0-.1-0.1H45.8V31h0.3Zm-0.2,0h0V30.7h0.3V31H45.9ZM49,31.7V31.2l0.4-.6H49.2l-0.3.5-0.3-.5H48.4l0.4,0.6v0.5H49Zm-0.5-1.2h0.1L48.9,31h0l0.3-.5h0.1l-0.4.6h0v0.5H48.8V31.1h0Zm-14.1.1V31h0.3V30.6H34.4Zm0.3,0.1h0v0.2H34.5V30.6h0.1l0.1,0.1h0Zm-0.8,1h0v-1h0.3V30.5H33.4v0.2h0.3v1h0.2Zm-0.5-1.1h0l0.7-.1v0.1H33.8v1H33.7v-1H33.4Zm9.5,0.5v0.2a2828773,2828773,0,0,1,.2.2l0.1,0.1a0.1,0.1,0,0,1,.1.1h0.4a2828771.19,2828771.19,0,0,0,.2-0.2l0.1-.1a0.1,0.1,0,0,1,.1-0.1V30.9a1414386.61,1414386.61,0,0,0-.2-0.2l-0.1-.1a0.1,0.1,0,0,1-.1-0.1H43.3a1414386.88,1414386.88,0,0,1-.2.2l-0.1.1a0.1,0.1,0,0,1-.1.1v0.2ZM43,31V30.9a1414386.63,1414386.63,0,0,1,.2-0.2l0.1-.1a0.1,0.1,0,0,0,.1-0.1h0.4a1414386.81,1414386.81,0,0,0,.2.2l0.1,0.1a0.1,0.1,0,0,0,.1.1v0.4a2828773.17,2828773.17,0,0,0-.2.2h0l-0.1.1a0.1,0.1,0,0,0-.1.1H43.4a9952250288575,9952250288575,0,0,1-.2-0.2l-0.1-.1a0.1,0.1,0,0,0-.1-0.1V31Zm1.9,0.7h0l0.3-.8,0.1,0.7h0.2l-0.2-1.2v0l-0.4.9-0.4-.9v0l-0.2,1.2h0.2l0.1-.7,0.3,0.8h0Zm-0.4-.9h0l-0.2.8H44.2l0.2-1.1,0.4,0.9h0l0.4-.9,0.2,1.1H45.3l-0.1-.8v0l-0.3.8-0.4-.8h0Zm-1.8-.3h0a0.31,0.31,0,0,0-.2-0.1H42.2a2828772.19,2828772.19,0,0,1-.2.2l-0.1.1a0.1,0.1,0,0,1-.1.1v0.3a0.1,0.1,0,0,0,.1.1L42,31.3l0.1,0.1h0.7a0.1,0.1,0,0,0,.1-0.1h0V31.1h0a0.1,0.1,0,0,1-.1.1,0.1,0.1,0,0,0-.1.1H42.3a0.1,0.1,0,0,1-.1-0.1l-0.1-.1V30.4l0.1-.1,0.1-.1h0.5a0.1,0.1,0,0,1,.1.1,0.1,0.1,0,0,1,.1.1h0V30.2l-0.3.3h0Zm0,0.2h0l-0.1-.1H42.1a0.1,0.1,0,0,0-.1.1l-0.1.1v0.7a0.1,0.1,0,0,0,.1.1,0.1,0.1,0,0,1,.1.1h0.4a0.1,0.1,0,0,0,.1-0.1h0v0.1H41.8l-0.1-.1-0.1-.1V31.1a7961800628913.21,7961800628913.21,0,0,1,.2-0.2l0.1-.1a0.1,0.1,0,0,0,.1-0.1h0.7Zm-10.8.1h0a0.2,0.2,0,0,1-.1-0.2H31.2v0.9h0.6l0.1-.1V30.8Zm0,0.4h0a0.35,0.35,0,0,1-.1.2l-0.1.1H31.1V30.7h0.6l0.1,0.1v0.3C31.9,31.1,31.9,31.1,31.9,31.2Zm0.1-.4a0.1,0.1,0,0,0-.1-0.1l-0.1-.1a0.1,0.1,0,0,1-.1-0.1H31.1v1.1h0.7a0.1,0.1,0,0,0,.1-0.1l0.1-.1a0.1,0.1,0,0,1,.1-0.1V31a0.35,0.35,0,0,0-.1-0.2h0Zm0,0.4v0.1a0.1,0.1,0,0,1-.1.1l-0.1.1H31.1V30.4h0.7l0.1,0.1a0.1,0.1,0,0,0,.1.1v0.6Zm0.4,0.5V30.5H32.2v1.2h0.2Zm-0.1-1.2h0l0.1,1.1H32.3V30.5Zm8.8,1.2h0V30.5H40.9v0.8l-0.8-.9h0v1.3h0.2V30.9l0.8,0.8h0Zm0-.1-0.8-.9h0v0.9H40.2V30.5L41,31.4h0V30.5h0.1v1.1Zm2-.3h0a0.2,0.2,0,0,1,.1.2l0.1,0.1h0.6a0.1,0.1,0,0,0,.1-0.1l0.1-.1V30.8a0.1,0.1,0,0,0-.1-0.1l-0.1-.1H43.3a0.1,0.1,0,0,0-.1.1l-0.1.1v0.1h0v0.4h0Zm0-.3h0a0.2,0.2,0,0,1,.1-0.2l0.1-.1,0.1-.1H44l0.1,0.1,0.1,0.1v0.6l-0.1.1-0.1.1H43.4l-0.1-.1-0.1-.1V31.2a0.2,0.2,0,0,1-.1-0.2h0Zm4.3-.6h0v1.2h0.2V30.8l0.8,0.9h0V30.4H48.2v0.8Zm0.8,1h0V30.5h0.1v1.1l-0.8-.9h0v0.9H47.4V30.5Zm-15.3-.8h0.2v0.1h0l0.1-.1h0a0.1,0.1,0,0,0-.1-0.1L33,30.4H32.7a0.1,0.1,0,0,0-.1.1l-0.1.1v0.3a0.1,0.1,0,0,0,.1.1,0.1,0.1,0,0,1,.1.1l0.1,0.1H33v0.4H32.6V31.4h0l-0.2.1h0v0.1a0.1,0.1,0,0,0,.1.1,0.1,0.1,0,0,1,.1.1h0.3a0.1,0.1,0,0,0,.1-0.1l0.1-.1V31.3a0.1,0.1,0,0,0-.1-0.1,0.1,0.1,0,0,1-.1-0.1h0L32.7,31H32.6a1.87,1.87,0,0,1,.3-0.4h0Zm-0.1.2h0a0.1,0.1,0,0,0,.1.1H33L33.2,31a0.1,0.1,0,0,1,.1.1l0.1,0.1v0.3a0.1,0.1,0,0,1-.1.1l-0.1.1H32.9a0.1,0.1,0,0,1-.1-0.1V31.5h0.1v0.1a0.1,0.1,0,0,0,.1.1h0.4V31.3l-0.1-.1H33.2l-0.1-.1A0.1,0.1,0,0,1,33,31l-0.1-.1c-0.2,0-.2,0-0.1-0.1-0.1,0-.1,0-0.1-0.1V30.6a0.1,0.1,0,0,1,.1-0.1,0.1,0.1,0,0,0,.1-0.1h0.3l0.1,0.1v0.1l-0.1.1H32.8v0.1h0Zm6,0.6h0L39,31.6a0.1,0.1,0,0,1,.1.1h0.4a2828771.18,2828771.18,0,0,1,.2-0.2l0.1-.1a0.1,0.1,0,0,1,.1-0.1V30.9a6634833857418.19,6634833857418.19,0,0,1-.2-0.2l-0.1-.1a0.1,0.1,0,0,1-.1-0.1H39.1a2828772.19,2828772.19,0,0,1-.2.2l-0.1.1a0.1,0.1,0,0,1-.1.1v0.4A0.1,0.1,0,0,1,38.8,31.4Zm0-.4V30.9a3980900314456.43,3980900314456.43,0,0,1,.2-0.2l0.1-.1a0.1,0.1,0,0,0,.1-0.1h0.4a9952250786138.84,9952250786138.84,0,0,1,.4.4v0.4a1414386.88,1414386.88,0,0,0-.2.2l-0.1.1a0.1,0.1,0,0,0-.1.1H39.2a2828773.3,2828773.3,0,0,1-.2-0.2l-0.1-.1a0.1,0.1,0,0,0-.1-0.1V31Zm0.1,0.3h0a0.2,0.2,0,0,1,.1.2h0l0.1,0.1h0.6a0.1,0.1,0,0,0,.1-0.1l0.1-.1V30.8a0.1,0.1,0,0,0-.1-0.1l-0.1-.1H39.1l-0.1.1-0.1.1v0.5h0Zm0-.3h0c0-.1.1-0.1,0.1-0.2l0.1-.1h0l0.1-.1h0.6l0.1,0.1h0L40,30.8v0.6l-0.1.1-0.1.1H39.2l-0.1-.1L39,31.4V31.3h0V31.2a0.2,0.2,0,0,1-.1-0.2h0Zm-3.6-.5H35.1v1.2h0.2V30.5Zm0,1.1h0l-0.1-1.1h0.1v1.1Zm1.2,0,0.1,0.1H37c0.1,0,.1,0,0.1-0.1a0.35,0.35,0,0,0,.1-0.2V30.5H37v0.9a0.1,0.1,0,0,0-.1.1H36.7a0.1,0.1,0,0,1-.1-0.1,0.1,0.1,0,0,0-.1-0.1V30.5H36.3v0.9C36.5,31.5,36.5,31.5,36.5,31.6Zm0-1.1h0l0.1,0.7v0.2a0.1,0.1,0,0,0,.1.1l0.1,0.1H37a0.1,0.1,0,0,0,.1-0.1,0.1,0.1,0,0,1,.1-0.1V30.5h0.1v0.9c0,0.1,0,.1-0.1.1l-0.1.1H36.7c-0.1,0-.1,0-0.1-0.1l-0.1-.1V30.5Zm1.3,1.2H38v-1h0.3V30.5H37.5v0.2h0.3v1h0Zm-0.3-1.1h0l0.7-.1v0.1H37.9v1H37.8v-1H37.5Zm-1.3.4V30.5H35.5v1.1h0.7V31c0,0.1-.1.1,0,0h0ZM36,31h0l0.1,0.1v0.5H35.6V30.5h0.5v0.4c0,0.1,0,.1-0.1.1h0Zm2.5,0.6V30.5H38.3v1.1h0.2Zm0,0h0l-0.1-1.1h0.1v1.1Zm-2.5-1H35.7V31H36l0.1-.1V30.8a0.31,0.31,0,0,0-.1-0.2h0Zm0,0.3h0l-0.1.1H35.7V30.7H36v0.2h0Zm-0.2.2H35.6v0.4h0.3V31.1H35.8Zm0.2,0h0l0.1,0.1v0.1H35.8V30.9h0.1c0,0.2,0,.2.1,0.2h0Zm1.5-16.7a1.7,1.7,0,0,0,.1.7,1.84,1.84,0,0,0,1,1,2.5,2.5,0,0,0,1.4,0,1.84,1.84,0,0,0,1-1,1.48,1.48,0,0,0,.1-0.7,1.7,1.7,0,0,0-.1-0.7,1.84,1.84,0,0,0-1-1,1.48,1.48,0,0,0-.7-0.1,1.7,1.7,0,0,0-.7.1,1.84,1.84,0,0,0-1,1C37.6,13.9,37.5,14.1,37.5,14.4Zm0.7-.5a1.77,1.77,0,0,1,.7-0.7,1.3,1.3,0,0,1,1,0c0.1,0.1.3,0.2,0.4,0.3s0.2,0.3.3,0.4a0.9,0.9,0,0,1,.1.5,0.9,0.9,0,0,1-.1.5,1.38,1.38,0,0,1-.3.4c-0.1.1-.3,0.2-0.4,0.3a0.75,0.75,0,0,1-.5.1,0.9,0.9,0,0,1-.5-0.1,1.38,1.38,0,0,1-.4-0.3c-0.1-.1-0.2-0.3-0.3-0.4a0.9,0.9,0,0,1-.1-0.5A0.75,0.75,0,0,1,38.2,13.9Zm3-.8h0.7V16h0.5V12.6h-1ZM40.7,9.8v0.4H40.5v0.2h0.2v0.9H41V10.4h0.2V10.2H41V9.7H40.7V9.8Zm-0.8,1.5H39.7l-0.1-.1-0.2.1a0.22,0.22,0,0,0,.2.2c0.1,0,.2.1,0.3,0.1a0.6,0.6,0,0,0,.4-0.1,0.37,0.37,0,0,0,.1-0.3,0.2,0.2,0,0,0-.1-0.2c0-.1-0.1-0.1-0.2-0.1H40a0.38,0.38,0,0,1-.2-0.2V10.6H40l0.1,0.1,0.2-.1a0.1,0.1,0,0,0-.1-0.1c-0.1,0-.1-0.1-0.2-0.1a0.35,0.35,0,0,0-.4.4,0.2,0.2,0,0,0,.1.2,0.77,0.77,0,0,0,.3.2h0.1a0.22,0.22,0,0,1,.2.2,0.1,0.1,0,0,1-.1.1C40,11.3,40,11.3,39.9,11.3Zm-0.6-.5a0.69,0.69,0,0,0-.6-0.7,0.52,0.52,0,0,0-.4.2,0.76,0.76,0,0,0-.2.5,1.06,1.06,0,0,0,.2.5,0.76,0.76,0,0,0,.4.2,0.37,0.37,0,0,0,.3-0.1,0.34,0.34,0,0,0,.2-0.3L39,11a0.38,0.38,0,0,1-.2.2c-0.1,0-.1.1-0.2,0.1s-0.2,0-.2-0.1a0.28,0.28,0,0,1-.1-0.3l1-.1h0Zm-1-.1a0.35,0.35,0,0,1,.1-0.2c0.1,0,.1-0.1.2-0.1s0.2,0,.2.1,0.1,0.1.1,0.2H38.3Zm-2.2,3.8L34.8,16h2.3V15.6H35.8l0.4-.5a3.63,3.63,0,0,0,.7-0.9,1.42,1.42,0,0,0,.2-0.6,0.91,0.91,0,0,0-.3-0.7,1,1,0,0,0-.8-0.3,1.14,1.14,0,0,0-.8.3,0.91,0.91,0,0,0-.3.7h0.5a0.52,0.52,0,0,1,.2-0.4,0.48,0.48,0,0,1,.4-0.1,2.27,2.27,0,0,1,.4.1,0.48,0.48,0,0,1,.1.4,0.76,0.76,0,0,1-.1.4A1.33,1.33,0,0,1,36.1,14.5ZM43,15.1a0.78,0.78,0,0,0,.3.7,1.14,1.14,0,0,0,.8.3,1.4,1.4,0,0,0,.9-0.3,0.91,0.91,0,0,0,.3-0.7,1.42,1.42,0,0,0-.2-0.6,2.18,2.18,0,0,0-.5-0.3A0.52,0.52,0,0,0,45,14a0.76,0.76,0,0,0,.2-0.5,0.91,0.91,0,0,0-.3-0.7,0.84,0.84,0,0,0-.7-0.2,1.17,1.17,0,0,0-.7.2,0.91,0.91,0,0,0-.3.7h0.5a1,1,0,0,1,.1-0.3,0.85,0.85,0,0,1,.8,0,0.37,0.37,0,0,1,.1.3,0.52,0.52,0,0,1-.2.4,0.75,0.75,0,0,1-.5.1H43.9v0.4h0.2a0.68,0.68,0,0,1,.7.7,0.52,0.52,0,0,1-.2.4,0.76,0.76,0,0,1-.5.2,0.48,0.48,0,0,1-.4-0.1,0.52,0.52,0,0,1-.2-0.4H43V15.1Zm-1.3-3.7V11.2H41.5v0.2h0.1C41.6,11.5,41.7,11.5,41.7,11.4Zm7.1,10.5a3.59,3.59,0,0,0-.2-1.1A5.55,5.55,0,0,0,48,20a1.88,1.88,0,0,0-.9-0.4,8.16,8.16,0,0,0-1.8-.1H43.1v7.9h2V24.3l1.8,3.1h2.4l-2.1-3.2a2,2,0,0,0,1.3-.8A3.34,3.34,0,0,0,48.8,21.9ZM46.4,23a1.36,1.36,0,0,1-1,.2H45V21.1h0.4a1.33,1.33,0,0,1,1,.3A1.22,1.22,0,0,1,46.4,23ZM32,20.5a3.39,3.39,0,0,0-1.4-.9,4.53,4.53,0,0,0-1.6-.3,4.15,4.15,0,0,0-1.6.3,4.19,4.19,0,0,0-1.4.9,3.81,3.81,0,0,0-.9,1.3,4.42,4.42,0,0,0,0,3.2,4.42,4.42,0,0,0,2.2,2.2,4.15,4.15,0,0,0,1.6.3,4.53,4.53,0,0,0,1.6-.3,4.19,4.19,0,0,0,1.4-.9,3.81,3.81,0,0,0,.9-1.3,4.42,4.42,0,0,0,0-3.2A2.58,2.58,0,0,0,32,20.5Zm-1.5,4.6a2.13,2.13,0,0,1-1.5.7,1.8,1.8,0,0,1-1.5-.7,2.35,2.35,0,0,1-.6-1.7,2.52,2.52,0,0,1,.6-1.7A2.13,2.13,0,0,1,29,21a1.8,1.8,0,0,1,1.5.7,2.35,2.35,0,0,1,.6,1.7A2.35,2.35,0,0,1,30.5,25.1Zm21.7-5.7H50v7.9h2.2V19.4Zm-42.6,0v4.2a7.75,7.75,0,0,0,.2,1.9,3.7,3.7,0,0,0,.5,1.1,2.1,2.1,0,0,0,1.1.7,4.42,4.42,0,0,0,1.7.2,7.93,7.93,0,0,0,1.7-.2,3,3,0,0,0,1.1-.7,2.81,2.81,0,0,0,.5-1.1,8.44,8.44,0,0,0,.2-1.9V19.4H14.5v5c0,0.2-.1.5-0.1,0.6a1,1,0,0,1-.4.5,1.32,1.32,0,0,1-1.4,0,1,1,0,0,1-.4-0.5,1.27,1.27,0,0,1-.1-0.6V19.3H9.6v0.1ZM8.5,23.2a3.59,3.59,0,0,0-.2-1.1,3.92,3.92,0,0,0-.8-1.4,6.42,6.42,0,0,0-1.3-1,4.19,4.19,0,0,0-1.6-.4,4.14,4.14,0,0,0-1.6.2,6.38,6.38,0,0,0-1.4.8,4.12,4.12,0,0,0-1,1.3,2.93,2.93,0,0,0-.4,1.6,4.4,4.4,0,0,0,.2,1.6,3.92,3.92,0,0,0,.8,1.4,6.42,6.42,0,0,0,1.3,1,4.19,4.19,0,0,0,1.6.4,4.14,4.14,0,0,0,1.6-.2,6.38,6.38,0,0,0,1.4-.8,4.12,4.12,0,0,0,1-1.3,1.42,1.42,0,0,0,.2-0.6H6.2a1.82,1.82,0,0,1-1.1,1,2.19,2.19,0,0,1-1.6-.1,2.71,2.71,0,0,1-1-1.1l3.9-.8ZM2.2,23a1.42,1.42,0,0,1,.2-0.6,1.89,1.89,0,0,1,1.2-1.1,1.8,1.8,0,0,1,1.6.2,1.76,1.76,0,0,1,.8.9ZM24,21.9a3.59,3.59,0,0,0-.2-1.1,2.7,2.7,0,0,0-.7-0.8,2.47,2.47,0,0,0-.9-0.4,8.16,8.16,0,0,0-1.8-.1H18.2v7.9h2V24.3L22,27.4h2.4l-2.1-3.2a2,2,0,0,0,1.3-.8A2.41,2.41,0,0,0,24,21.9ZM21.6,23a1.36,1.36,0,0,1-1,.2H20.2V21.1h0.4a1.33,1.33,0,0,1,1,.3A1.22,1.22,0,0,1,21.6,23Zm13,4.4h2a12.14,12.14,0,0,0,2.3-.2,3.1,3.1,0,0,0,1.3-.6,3.34,3.34,0,0,0,1.1-1.3,3.81,3.81,0,0,0,.4-1.9,4.06,4.06,0,0,0-.4-1.9,3.48,3.48,0,0,0-1.1-1.3,3.1,3.1,0,0,0-1.3-.6,14.22,14.22,0,0,0-2.6-.2H34.7Zm2.1-6.2h0.4a2.76,2.76,0,0,1,1.8.5,2.2,2.2,0,0,1,.6,1.7,2.2,2.2,0,0,1-.6,1.7,2.43,2.43,0,0,1-1.8.5H36.7V21.2ZM59,23.5l-3-4.1H53.9v7.9H56V22.7c0-.3-0.1-0.6-0.1-0.9a3.55,3.55,0,0,1,.4.9,2.19,2.19,0,0,0,.3.5l3,4.1h2V19.4h-2V24c0,0.3.1,0.5,0.1,0.9a3.55,3.55,0,0,1-.4-0.9A0.91,0.91,0,0,1,59,23.5Zm12.5,1a1,1,0,1,0-1-1A0.94,0.94,0,0,0,71.5,24.5Zm5.4,1.4a1.61,1.61,0,0,1-.9-0.3,6.47,6.47,0,0,1-.9-0.8l-1,1.6a3.81,3.81,0,0,0,1.3.9,3.34,3.34,0,0,0,1.5.3,3.29,3.29,0,0,0,2.2-.8,3.16,3.16,0,0,0,.7-2.9,1.61,1.61,0,0,0-.4-0.7,4.44,4.44,0,0,0-1.7-.8H77.6a2.19,2.19,0,0,1-.8-0.3,0.72,0.72,0,0,1,0-1,1.42,1.42,0,0,1,.6-0.2,3.09,3.09,0,0,1,.8.2,1.79,1.79,0,0,1,.7.5L79.6,20a3.7,3.7,0,0,0-1.1-.5,5,5,0,0,0-1.2-.2,2.72,2.72,0,0,0-2,.7,2.56,2.56,0,0,0-.8,1.9,2.17,2.17,0,0,0,.5,1.4,4,4,0,0,0,1.6.8,10,10,0,0,1,1.1.4,0.56,0.56,0,0,1,.2.6,0.86,0.86,0,0,1-.3.6A1.45,1.45,0,0,1,76.9,25.9ZM63.3,19.4v7.9h2.1V23.7L68,27.3h2.7l-3.1-4.1,2.9-3.9H68l-2.5,3.6V19.3H63.3v0.1Z"/></svg>