<svg width="26" height="26" xmlns="http://www.w3.org/2000/svg" xmlns:svg="http://www.w3.org/2000/svg" xmlns:xlink="http://www.w3.org/1999/xlink">
 <style type="text/css">
  .st0{fill:#f6d4b0;}
  .st1{fill:#d0bfa9;}
 </style>
 <defs>
  <symbol viewBox="0 0 54.757 54.757" y="0px" x="0px" id="svg_3" xmlns:xlink="http://www.w3.org/1999/xlink" xmlns="http://www.w3.org/2000/svg">
   <g>
    <path d="m27.557,12c-3.859,0 -7,3.141 -7,7s3.141,7 7,7s7,-3.141 7,-7s-3.141,-7 -7,-7zm0,12c-2.757,0 -5,-2.243 -5,-5s2.243,-5 5,-5s5,2.243 5,5s-2.243,5 -5,5z"/>
    <path d="m40.94,5.617c-3.622,-3.622 -8.438,-5.617 -13.56,-5.617c-5.123,0 -9.938,1.995 -13.56,5.617c-6.703,6.702 -7.536,19.312 -1.804,26.952l15.364,22.188l15.341,-22.157c5.755,-7.671 4.922,-20.281 -1.781,-26.983zm0.159,25.814l-13.719,19.812l-13.741,-19.843c-5.199,-6.932 -4.454,-18.32 1.596,-24.369c3.244,-3.244 7.557,-5.031 12.145,-5.031s8.901,1.787 12.146,5.031c6.05,6.049 6.795,17.437 1.573,24.4z"/>
   </g>
   <g/>
   <g/>
   <g/>
   <g/>
   <g/>
   <g/>
   <g/>
   <g/>
   <g/>
   <g/>
   <g/>
   <g/>
   <g/>
   <g/>
   <g/>
  </symbol>
 </defs>
 <g>
  <title>Layer 1</title>
  <path fill="black" id="svg_1" d="m13,1c6.6,0 12,5.4 12,12s-5.4,12 -12,12s-12,-5.4 -12,-12s5.4,-12 12,-12m0,-1c-7.2,0 -13,5.8 -13,13s5.8,13 13,13s13,-5.8 13,-13s-5.8,-13 -13,-13l0,0z" class="st0"/>
  <use fill="#d0bfa9" stroke-width="0" x="13.98598" y="-48.56887" transform="matrix(0.5815546486689351,0,0,0.5169315595184185,-2.5177005305312976,32.47135007554834) " xlink:href="#svg_3" id="svg_4"/>
  <g id="svg_5"/>
 </g>
</svg>