<svg id="Layer_1" data-name="Layer 1" xmlns="http://www.w3.org/2000/svg" viewBox="0 0 24 24">
    <defs>
        <style type="text/css">
            .cls-1{fill:#f6d4b0;}
            .cls-2{fill:#d0bfa9;}
        </style>
    </defs>
    <title>phone</title>
    <path class="cls-2"
          d="M420.47,472.43l0.39,0.42,0.24,0.27,0.35,0.39,0.36,0.39,0,0,0,0-0.14.15-0.75.82a1.21,1.21,0,0,0-.24,1.3,6.82,6.82,0,0,0,.94,1.65,10.65,10.65,0,0,0,2.5,2.46,5,5,0,0,0,.44.26l0.18,0.1a1.19,1.19,0,0,0,.63.18,1.17,1.17,0,0,0,.89-0.42l0.8-.87,1.36,1.47,0,0,0,0-0.27.29c-0.2.21-.4,0.42-0.59,0.65a0.53,0.53,0,0,1-.48.22H427a4.4,4.4,0,0,1-1.81-.59,11.34,11.34,0,0,1-3.68-3.13,11.17,11.17,0,0,1-1.8-3.25,3.92,3.92,0,0,1-.27-1.57,0.66,0.66,0,0,1,.18-0.46l0.56-.61,0.27-.3m0-1.09a0.89,0.89,0,0,0-.65.32c-0.3.33-.6,0.66-0.91,1a1.66,1.66,0,0,0-.46,1.08,4.93,4.93,0,0,0,.32,2,12.93,12.93,0,0,0,5.95,6.94,5.44,5.44,0,0,0,2.22.7h0.14a1.52,1.52,0,0,0,1.25-.58c0.26-.31.55-0.6,0.82-0.9a1,1,0,0,0,0-1.43l-1.45-1.58a0.81,0.81,0,0,0-1.29,0l-0.9,1a0.17,0.17,0,0,1-.25,0c-0.2-.12-0.4-0.21-0.59-0.34a9.7,9.7,0,0,1-2.26-2.24,5.92,5.92,0,0,1-.81-1.41,0.21,0.21,0,0,1,0-.26c0.3-.32.6-0.64,0.89-1a1,1,0,0,0,0-1.44l-0.71-.77-0.73-.8a0.89,0.89,0,0,0-.65-0.32h0Z"
          transform="translate(-412.5 -465.5)"/>
    <path class="cls-1" d="M424.5,466.5a11,11,0,1,1-11,11,11,11,0,0,1,11-11m0-1a12,12,0,1,0,12,12,12,12,0,0,0-12-12h0Z"
          transform="translate(-412.5 -465.5)"/>
</svg>