<svg width="26" height="26" xmlns="http://www.w3.org/2000/svg" xmlns:svg="http://www.w3.org/2000/svg">
    <style type="text/css">.st0{fill:#f6d4b0;}
        .st1{fill:#d0bfa9;}</style>
    <g>
        <title>Layer 1</title>
        <path fill="black" id="svg_1" d="m13,1c6.6,0 12,5.4 12,12s-5.4,12 -12,12s-12,-5.4 -12,-12s5.4,-12 12,-12m0,-1c-7.2,0 -13,5.8 -13,13s5.8,13 13,13s13,-5.8 13,-13s-5.8,-13 -13,-13l0,0z" class="st0"/>
        <path fill="black" id="svg_2" d="m9.90501,8.47526c0,0 0.08438,0 0,0c0.16877,0.16708 0.33753,0.33416 0.5063,0.50124l0.25315,0.25061l0.33753,0.33416l0.33753,0.33416l0.08438,0.08354c0,0 0,0 -0.08438,0.08354l-0.16877,0.16708c-0.25315,0.25061 -0.5063,0.50124 -0.75944,0.75185c-0.33753,0.33416 -0.42191,0.75185 -0.25315,1.16955c0.16877,0.50124 0.5063,1.00247 0.92821,1.5037c0.75944,0.91893 1.60326,1.67078 2.44709,2.17202c0.16877,0.08354 0.25315,0.16708 0.42191,0.25061c0.08438,0 0.16877,0.08354 0.16877,0.08354c0.16877,0.08354 0.33753,0.16708 0.5063,0.16708c0.16877,0 0.5063,-0.08354 0.75944,-0.33416c0.25315,-0.33416 0.59068,-0.58477 0.84383,-0.91893c0,0 0,0 0.08438,0c0,0 0,0 0.08438,0c0.5063,0.50124 0.92821,0.91893 1.4345,1.42017c0,0 0,0.08354 0.08438,0.08354c0,0 0,0 -0.08438,0.08354s-0.16877,0.16708 -0.25315,0.25061c-0.16877,0.16708 -0.42191,0.33416 -0.59068,0.58477c-0.16877,0.16708 -0.33753,0.25062 -0.59068,0.25062l-0.08438,0c-0.59068,0 -1.18136,-0.16708 -1.85642,-0.58478c-1.4345,-0.66831 -2.70023,-1.67078 -3.71282,-2.84033c-0.84383,-1.00247 -1.4345,-1.9214 -1.77203,-2.92387c-0.25315,-0.58477 -0.33753,-1.00247 -0.25315,-1.42016c0,-0.16708 0.08438,-0.33416 0.16877,-0.4177c0.16877,-0.16708 0.33753,-0.33415 0.59068,-0.58477c0.16877,-0.25061 0.25315,-0.33416 0.42191,-0.50124l0,0m0,-0.83539c-0.25315,0 -0.42191,0.08354 -0.67506,0.25061c-0.33753,0.33416 -0.59068,0.58478 -0.92821,0.91893c-0.25315,0.25062 -0.42191,0.58478 -0.42191,1.00247c-0.08438,0.58477 0.08438,1.16955 0.33753,1.75432c0.42191,1.16955 1.09697,2.25556 1.9408,3.17449c1.09697,1.33663 2.44709,2.3391 3.96597,3.09095c0.67506,0.33416 1.4345,0.58477 2.19395,0.66832c0.08438,0 0.08438,0 0.16877,0c0.5063,0 0.92821,-0.16708 1.26574,-0.50124c0.25315,-0.25061 0.5063,-0.58477 0.84383,-0.83539c0.42191,-0.4177 0.42191,-0.91893 0,-1.33663c-0.5063,-0.50123 -0.92821,-0.91893 -1.4345,-1.42016c-0.16877,-0.16708 -0.42191,-0.25062 -0.67506,-0.25062s-0.42191,0.08354 -0.67506,0.25062c-0.33753,0.33415 -0.59068,0.58477 -0.92821,0.91893c-0.08438,0.08354 -0.08438,0.08354 -0.16877,0.08354l-0.08438,0c-0.16877,-0.08354 -0.42191,-0.16708 -0.59068,-0.33416c-0.84383,-0.50123 -1.60327,-1.25308 -2.27833,-2.00493c-0.33752,-0.4177 -0.59067,-0.83539 -0.84382,-1.25309c0,-0.08354 0,-0.16708 0.08438,-0.25062c0.33752,-0.25061 0.59067,-0.58477 0.9282,-0.91893c0.42191,-0.41769 0.42191,-0.91893 0,-1.33662c-0.25315,-0.25061 -0.50629,-0.50124 -0.67505,-0.66831c-0.25315,-0.25062 -0.5063,-0.50124 -0.75944,-0.75186c-0.16877,-0.16707 -0.33753,-0.25061 -0.59068,-0.25061l0,0l0,0z" class="st1"/>
    </g>
</svg>