<svg id="Layer_1" data-name="Layer 1" xmlns="http://www.w3.org/2000/svg" viewBox="0 0 24 24">
    <defs>
        <style type="text/css">
            .cls-1{fill:#f6d4b0;}
            .cls-2{fill:#d0bfa9;}
        </style>
    </defs>
    <title>pin</title>
    <path class="cls-2"
          d="M12,6a4,4,0,0,1,4,4c0,1.52-2.21,5-4,7.37C10.21,15,8,11.52,8,10a4,4,0,0,1,4-4m0-1a5,5,0,0,0-5,5c0,2.76,5,9,5,9s5-6.24,5-9a5,5,0,0,0-5-5h0Z"/>
    <path class="cls-2" d="M12,9a1,1,0,1,1-1,1,1,1,0,0,1,1-1m0-1a2,2,0,1,0,2,2,2,2,0,0,0-2-2h0Z"/>
    <path class="cls-1" d="M12,1A11,11,0,1,1,1,12,11,11,0,0,1,12,1m0-1A12,12,0,1,0,24,12,12,12,0,0,0,12,0h0Z"/>
</svg>