<?xml version="1.0" encoding="UTF-8" standalone="no"?>
<svg
   xmlns:dc="http://purl.org/dc/elements/1.1/"
   xmlns:cc="http://creativecommons.org/ns#"
   xmlns:rdf="http://www.w3.org/1999/02/22-rdf-syntax-ns#"
   xmlns:svg="http://www.w3.org/2000/svg"
   xmlns="http://www.w3.org/2000/svg"
   xmlns:sodipodi="http://sodipodi.sourceforge.net/DTD/sodipodi-0.dtd"
   xmlns:inkscape="http://www.inkscape.org/namespaces/inkscape"
   id="Layer_1"
   data-name="Layer 1"
   viewBox="0 0 222.12413 22.999999"
   version="1.1"
   sodipodi:docname="FooterMapTitle.svg"
   width="222.12413"
   height="23"
   inkscape:version="0.92.2 (5c3e80d, 2017-08-06)">
  <metadata
     id="metadata23">
    <rdf:RDF>
      <cc:Work
         rdf:about="">
        <dc:format>image/svg+xml</dc:format>
        <dc:type
           rdf:resource="http://purl.org/dc/dcmitype/StillImage" />
        <dc:title>Untitled-1</dc:title>
      </cc:Work>
    </rdf:RDF>
  </metadata>
  <sodipodi:namedview
     pagecolor="#ffffff"
     bordercolor="#666666"
     borderopacity="1"
     objecttolerance="10"
     gridtolerance="10"
     guidetolerance="10"
     inkscape:pageopacity="0"
     inkscape:pageshadow="2"
     inkscape:window-width="1280"
     inkscape:window-height="961"
     id="namedview21"
     showgrid="false"
     fit-margin-top="0"
     fit-margin-left="0"
     fit-margin-right="0"
     fit-margin-bottom="0"
     inkscape:zoom="4.2089905"
     inkscape:cx="94.22435"
     inkscape:cy="17.970953"
     inkscape:window-x="-8"
     inkscape:window-y="-8"
     inkscape:window-maximized="1"
     inkscape:current-layer="Layer_1"
     inkscape:measure-start="115.942,-20.1949"
     inkscape:measure-end="188.126,34.2683" />
  <defs
     id="defs12">
    <style
       id="style10">.cls-1{fill:#131126;}.cls-1,.cls-2{fill-rule:evenodd;}.cls-2{fill:#fff;}</style>
    <filter
       style="color-interpolation-filters:sRGB"
       inkscape:label="Drop Shadow"
       id="filter5131">
      <feFlood
         flood-opacity="0.498039"
         flood-color="rgb(0,0,0)"
         result="flood"
         id="feFlood5121" />
      <feComposite
         in="flood"
         in2="SourceGraphic"
         operator="in"
         result="composite1"
         id="feComposite5123" />
      <feGaussianBlur
         in="composite1"
         stdDeviation="1.3"
         result="blur"
         id="feGaussianBlur5125" />
      <feOffset
         dx="1"
         dy="1.5"
         result="offset"
         id="feOffset5127" />
      <feComposite
         in="SourceGraphic"
         in2="offset"
         operator="over"
         result="composite2"
         id="feComposite5129" />
    </filter>
    <filter
       style="color-interpolation-filters:sRGB"
       inkscape:label="Drop Shadow"
       id="filter5551">
      <feFlood
         flood-opacity="0.988235"
         flood-color="rgb(3,9,0)"
         result="flood"
         id="feFlood5541" />
      <feComposite
         in="flood"
         in2="SourceGraphic"
         operator="in"
         result="composite1"
         id="feComposite5543" />
      <feGaussianBlur
         in="composite1"
         stdDeviation="0.6"
         result="blur"
         id="feGaussianBlur5545" />
      <feOffset
         dx="0.7"
         dy="0.7"
         result="offset"
         id="feOffset5547" />
      <feComposite
         in="SourceGraphic"
         in2="offset"
         operator="over"
         result="composite2"
         id="feComposite5549" />
    </filter>
    <filter
       style="color-interpolation-filters:sRGB"
       inkscape:label="Drop Shadow"
       id="filter6019">
      <feFlood
         flood-opacity="0.431373"
         flood-color="rgb(0,0,0)"
         result="flood"
         id="feFlood6009" />
      <feComposite
         in="flood"
         in2="SourceGraphic"
         operator="in"
         result="composite1"
         id="feComposite6011" />
      <feGaussianBlur
         in="composite1"
         stdDeviation="0.9"
         result="blur"
         id="feGaussianBlur6013" />
      <feOffset
         dx="1"
         dy="0.8"
         result="offset"
         id="feOffset6015" />
      <feComposite
         in="SourceGraphic"
         in2="offset"
         operator="over"
         result="composite2"
         id="feComposite6017" />
    </filter>
  </defs>
  <title
     id="title14">Untitled-1</title>
  <path
     class="cls-1"
     d="m 191.92931,13.884102 a 9,9 0 0 0 2.18,1.88 4.26,4.26 0 0 0 2.14,0.62 2.47,2.47 0 0 0 1.63,-0.53 1.69,1.69 0 0 0 0.64,-1.35 1.77,1.77 0 0 0 -0.55,-1.4 7,7 0 0 0 -2.5,-1 8.18,8.18 0 0 1 -3.78,-1.88 4.39,4.39 0 0 1 -1.11,-3.17 5.59,5.59 0 0 1 1.75,-4.2599997 6.34,6.34 0 0 1 4.53,-1.66 9.9,9.9 0 0 1 2.85,0.4 9.28,9.28 0 0 1 2.56,1.23 l -1.56,3.56 a 6.55,6.55 0 0 0 -1.74,-1.09 4.59,4.59 0 0 0 -1.76,-0.37 2.33,2.33 0 0 0 -1.45,0.43 1.33,1.33 0 0 0 -0.56,1.1 1.36,1.36 0 0 0 0.49,1.0899997 5.65,5.65 0 0 0 1.89,0.779999 l 0.22,0.06 a 9.59,9.59 0 0 1 4,1.800001 4.44,4.44 0 0 1 1,1.61 6.12,6.12 0 0 1 0.34,2.08 6,6 0 0 1 -1.9,4.65 7.18,7.18 0 0 1 -5.07,1.76 9,9 0 0 1 -3.47,-0.65 9.73,9.73 0 0 1 -3,-2 l 2.24,-3.69 v 0 z m -8.21,-5.300001 a 2.33,2.33 0 1 1 -2.34,2.330001 2.33,2.33 0 0 1 2.34,-2.330001 z M 39.98932,1.5841023 h 4.94 v 8.8399997 a 27.64,27.64 0 0 0 0.1,2.8 5.38,5.38 0 0 0 0.34,1.43 2.06,2.06 0 0 0 1,1.06 4.26,4.26 0 0 0 3.45,0 2.1,2.1 0 0 0 1,-1.06 5.26,5.26 0 0 0 0.34,-1.43 27.6,27.6 0 0 0 0.1,-2.8 V 1.5641023 h 4.94 v 9.6199997 a 19.54,19.54 0 0 1 -0.36,4.42 6,6 0 0 1 -1.22,2.43 5.64,5.64 0 0 1 -2.57,1.66 12.35,12.35 0 0 1 -3.95,0.55 12.33,12.33 0 0 1 -4,-0.55 5.67,5.67 0 0 1 -2.57,-1.66 6,6 0 0 1 -1.21,-2.43 19.35,19.35 0 0 1 -0.36,-4.42 v -9.6199997 0 z m 20,18.1999997 V 1.5641023 h 5.19 a 21.56,21.56 0 0 1 4.24,0.28 5.45,5.45 0 0 1 2.07,0.94 4.9,4.9 0 0 1 1.51,1.9 6.05,6.05 0 0 1 0.53,2.5499997 5.4,5.4 0 0 1 -1,3.44 5.07,5.07 0 0 1 -3,1.76 l 5,7.34 h -5.6 l -4.17,-7.13 v 7.13 h -4.82 z m 4.61,-9.65 h 0.92 a 4,4 0 0 0 2.34,-0.5500011 2,2 0 0 0 0.74,-1.7099999 2.42,2.42 0 0 0 -0.69,-1.9499987 3.62,3.62 0 0 0 -2.32,-0.58 h -1 v 4.7899997 0 z m 30.35,0.57 a 9.41,9.41 0 0 1 -0.72,3.68 9.21,9.21 0 0 1 -2.1,3.07 9.84,9.84 0 0 1 -3.18,2.07 9.79,9.79 0 0 1 -10.58,-2.07 9.33,9.33 0 0 1 0,-13.4999997 9.71,9.71 0 0 1 6.86,-2.82 9.85,9.85 0 0 1 3.73,0.73 9.64,9.64 0 0 1 3.16,2.07 9.31,9.31 0 0 1 2.83,6.7699997 z m -9.72,5.34 a 4.37,4.37 0 0 0 3.41,-1.51 5.55,5.55 0 0 0 1.35,-3.83 5.52,5.52 0 0 0 -1.37,-3.82 4.56,4.56 0 0 0 -6.8,0 5.55,5.55 0 0 0 -1.35,3.82 5.58,5.58 0 0 0 1.33,3.84 4.37,4.37 0 0 0 3.43,1.51 v 0 z m 12.82,3.72 V 1.5641023 h 3.80001 a 30.93,30.93 0 0 1 6,0.4 8.66,8.66 0 0 1 3.09,1.33 7.8,7.8 0 0 1 2.61,3.09 9.89,9.89 0 0 1 0.9,4.2999997 9.89,9.89 0 0 1 -0.9,4.29 7.77,7.77 0 0 1 -2.62,3.09 8.59,8.59 0 0 1 -3,1.31 25.4,25.4 0 0 1 -5.24,0.39 z m 4.91001,-4.07 h 0.83 a 6.3,6.3 0 0 0 4.26,-1.2 4.86,4.86 0 0 0 1.34,-3.81 4.92,4.92 0 0 0 -1.34,-3.83 6.24,6.24 0 0 0 -4.27,-1.2199997 h -0.81 v 10.0599997 0 z m 14.58999,4.07 V 1.5641023 h 5.18999 a 21.55,21.55 0 0 1 4.24,0.28 5.44,5.44 0 0 1 2.07,0.94 4.9,4.9 0 0 1 1.51,1.9 6.06,6.06 0 0 1 0.49,2.5499997 5.4,5.4 0 0 1 -1,3.44 5.07,5.07 0 0 1 -3,1.76 l 5,7.34 h -5.6 l -4.17,-7.13 v 7.13 h -4.72999 z m 4.65999,-9.63 h 0.92 a 4,4 0 0 0 2.34,-0.5500011 2,2 0 0 0 0.74,-1.7099999 2.42,2.42 0 0 0 -0.69,-1.9499987 3.62,3.62 0 0 0 -2.32,-0.58 h -1 v 4.7899997 0 z m 11.84,9.63 V 1.5641023 h 5 V 19.764102 Z m 9,0 V 1.5641023 h 4.79 l 6.88,9.3599997 a 11.87,11.87 0 0 1 0.65,1.15 q 0.45,0.86 1,2.06 c -0.1,-0.76 -0.17,-1.43 -0.22,-2 -0.05,-0.57 -0.1,-1.12 -0.1,-1.58 V 1.5541023 h 4.76 V 19.754102 h -4.76 l -6.88,-9.4 a 10.92,10.92 0 0 1 -0.67,-1.150001 c -0.3,-0.58 -0.63,-1.26 -1,-1.999999 0.1,0.759999 0.17,1.439999 0.22,1.999999 0.05,0.5600013 0.07,1.110001 0.07,1.570001 v 9 h -4.74 z m 21.69,0 h 4.91 v -8.16 l 5.93,8.17 h 6.19 l -7.31,-9.32 6.72,-8.8699997 h -5.78 l -5.79,8.25 v -8.27 h -4.91 v 18.1999997 0 z m -141.239991,-6.9 a 5.35,5.35 0 0 0 2.25,2.59 4.37,4.37 0 0 0 3.730001,0.33 4.36,4.36 0 0 0 2.62,-2.25 h 4.95 a 9.42,9.42 0 0 1 -0.57,1.38 9.9,9.9 0 0 1 -2.35,3 9.79,9.79 0 0 1 -10.700001,1.39 9.33,9.33 0 0 1 -4.32,-12.7899997 9.71,9.71 0 0 1 5.62,-4.84 9.86,9.86 0 0 1 3.770001,-0.54 9.64,9.64 0 0 1 3.66,1 9.3,9.3 0 0 1 4.83,5.4899997 9.6,9.6 0 0 1 0.51,2.63 l -14.000001,2.62 v 0 z m -0.56,-3.2400011 8.800001,-1.6399999 a 5.23,5.23 0 0 0 -2,-1.9999987 4.37,4.37 0 0 0 -3.690001,-0.33 4.37,4.37 0 0 0 -2.73,2.5299987 5.12,5.12 0 0 0 -0.38,1.4399999 z"
     id="path16"
     inkscape:connector-curvature="0"
     style="fill:#000033;fill-opacity:1;fill-rule:evenodd;filter:url(#filter6019)" />
  <ellipse
     style="fill:#db4019;fill-opacity:0"
     id="path4541"
     cx="207.82365"
     cy="18.255295"
     rx="2.3309879"
     ry="2.4254875" />
  <ellipse
     style="fill:#800000;fill-opacity:0"
     id="path4559"
     cx="208.20448"
     cy="20.935966"
     rx="2.0937324"
     ry="2.064034" />
  <path
     style="fill:#000000;fill-opacity:0;stroke-width:0.08399957"
     d="m 47.234562,3.4407683 c -3.141068,-0.343405 -4.923081,-1.320762 -5.876757,-3.223149 -0.355755,-0.709657 -0.512757,-1.207083 -0.689334,-2.183989 -0.125726,-0.695575 -0.148126,-1.593107 -0.174528,-6.9929643 l -0.03029,-6.194968 h 2.440459 2.440459 l 2.01e-4,4.976974 c 2.94e-4,7.1100283 0.08817,7.9176203 0.952936,8.7572073 0.313574,0.304444 0.564544,0.461427 0.910748,0.569681 1.004668,0.314147 2.119115,0.269909 3.008087,-0.119403 0.685305,-0.300119 1.020545,-0.738675 1.310324,-1.71415 0.134717,-0.453489 0.151559,-1.061123 0.179762,-6.4853403 l 0.03112,-5.984969 h 2.431382 2.431381 v 5.872263 c 0,4.8920183 -0.02241,6.0453183 -0.134263,6.9089653 -0.239933,1.852632 -0.711702,2.931786 -1.720945,3.936601 -1.229763,1.224367 -3.089762,1.825651 -5.830753,1.884915 -0.739196,0.01598 -1.495192,0.01253 -1.679991,-0.0077 z"
     id="path846"
     inkscape:connector-curvature="0" />
  <path
     style="fill:#00ffff;fill-opacity:0;stroke-width:0.08399957"
     d="m 60.464494,-6.0823487 v -9.0719533 h 3.366527 c 4.756005,0 6.00496,0.131189 7.301418,0.766936 1.322969,0.648746 2.295304,1.882228 2.641003,3.350317 0.353071,1.499397 0.220058,2.978784 -0.376015,4.1820583 -0.639727,1.291398 -1.624622,2.029856 -3.340065,2.504323 -0.0682,0.01886 0.37815,0.746729 1.191044,1.942231 0.71507,1.051632 1.833486,2.696405 2.485369,3.65505 l 1.18524,1.742991 -2.754283,-0.0017 -2.754284,-0.0017 -2.057989,-3.524911 c -1.131895,-1.938702 -2.08634,-3.525525 -2.12099,-3.526274 -0.03465,-7.48e-4 -0.063,1.586231 -0.063,3.526622 v 3.527981 h -2.351988 -2.351988 z m 7.246273,-0.746932 C 68.629297,-7.189849 69.02795,-7.727 69.097655,-8.697996 c 0.135696,-1.890283 -0.892258,-2.760325 -3.261323,-2.760325 h -0.835861 v 2.444229 2.4442293 l 1.112994,-0.03465 c 0.901053,-0.02805 1.205218,-0.07085 1.597302,-0.224766 z"
     id="path848"
     inkscape:connector-curvature="0" />
  <path
     style="fill:#00ffff;fill-opacity:0;stroke-width:0.08399957"
     d="m 47.234562,3.4407683 c -3.141068,-0.343405 -4.923081,-1.320762 -5.876757,-3.223149 -0.355755,-0.709657 -0.512757,-1.207083 -0.689334,-2.183989 -0.125726,-0.695575 -0.148126,-1.593107 -0.174528,-6.9929643 l -0.03029,-6.194968 h 2.440459 2.440459 l 2.01e-4,4.976974 c 2.94e-4,7.1100283 0.08817,7.9176203 0.952936,8.7572073 0.313574,0.304444 0.564544,0.461427 0.910748,0.569681 1.004668,0.314147 2.119115,0.269909 3.008087,-0.119403 0.685305,-0.300119 1.020545,-0.738675 1.310324,-1.71415 0.134717,-0.453489 0.151559,-1.061123 0.179762,-6.4853403 l 0.03112,-5.984969 h 2.431382 2.431381 v 5.872263 c 0,4.8920183 -0.02241,6.0453183 -0.134263,6.9089653 -0.239933,1.852632 -0.711702,2.931786 -1.720945,3.936601 -1.229763,1.224367 -3.089762,1.825651 -5.830753,1.884915 -0.739196,0.01598 -1.495192,0.01253 -1.679991,-0.0077 z"
     id="path850"
     inkscape:connector-curvature="0" />
  <path
     style="fill:#00ffff;fill-opacity:0;stroke-width:0.08399957"
     d="m 26.318669,3.3261763 c -4.010291,-0.813014 -7.012839,-3.862689 -7.64592,-7.765929 -0.646593,-3.9865493 1.46062,-8.0812513 5.135521,-9.9792633 3.441042,-1.777229 7.33082,-1.468178 10.38662,0.825237 1.600864,1.201468 2.771244,2.914943 3.352004,4.907444 0.144321,0.495144 0.430182,2.1035223 0.382363,2.1513423 -0.01088,0.01088 -2.967913,0.571467 -6.571182,1.245748 -3.603269,0.67428 -6.747991,1.265366 -6.988272,1.313524 -0.433477,0.08688 -0.436117,0.08932 -0.339576,0.313459 0.610717,1.417931 2.071338,2.606681 3.590435,2.92213 1.72235,0.357656 3.753338,-0.500793 4.70928,-1.990499 l 0.264208,-0.411733 h 2.427231 c 1.334977,0 2.427231,0.0137 2.427231,0.03045 0,0.01675 -0.112509,0.303284 -0.25002,0.636752 -0.855229,2.073951 -2.630452,3.966368 -4.686039,4.995394 -0.65814,0.329465 -1.814172,0.696496 -2.656273,0.843347 -0.998028,0.174041 -2.576996,0.157349 -3.537611,-0.0374 z M 27.998661,-7.935474 c 2.309988,-0.42711 4.214959,-0.788912 4.23327,-0.804004 0.07635,-0.06294 -0.474647,-0.780656 -0.964429,-1.25624 -0.893101,-0.867211 -2.093005,-1.379917 -3.22349,-1.377362 -1.582477,0.0036 -3.181087,0.865784 -3.935535,2.122623 -0.340632,0.567461 -0.68363,1.515537 -0.686021,1.896221 -0.0016,0.249753 0.0199,0.277129 0.187227,0.238715 0.10395,-0.02386 2.078989,-0.392843 4.388978,-0.819953 z"
     id="path852"
     inkscape:connector-curvature="0" />
  <path
     style="fill:#00ffff;fill-opacity:0;stroke-width:0.08399957"
     d="m 26.318669,3.3261763 c -4.010291,-0.813014 -7.012839,-3.862689 -7.64592,-7.765929 -0.646593,-3.9865493 1.46062,-8.0812513 5.135521,-9.9792633 3.441042,-1.777229 7.33082,-1.468178 10.38662,0.825237 1.600864,1.201468 2.771244,2.914943 3.352004,4.907444 0.144321,0.495144 0.430182,2.1035223 0.382363,2.1513423 -0.01088,0.01088 -2.967913,0.571467 -6.571182,1.245748 -3.603269,0.67428 -6.747991,1.265366 -6.988272,1.313524 -0.433477,0.08688 -0.436117,0.08932 -0.339576,0.313459 0.610717,1.417931 2.071338,2.606681 3.590435,2.92213 1.72235,0.357656 3.753338,-0.500793 4.70928,-1.990499 l 0.264208,-0.411733 h 2.427231 c 1.334977,0 2.427231,0.0137 2.427231,0.03045 0,0.01675 -0.112509,0.303284 -0.25002,0.636752 -0.855229,2.073951 -2.630452,3.966368 -4.686039,4.995394 -0.65814,0.329465 -1.814172,0.696496 -2.656273,0.843347 -0.998028,0.174041 -2.576996,0.157349 -3.537611,-0.0374 z M 27.998661,-7.935474 c 2.309988,-0.42711 4.214959,-0.788912 4.23327,-0.804004 0.07635,-0.06294 -0.474647,-0.780656 -0.964429,-1.25624 -0.893101,-0.867211 -2.093005,-1.379917 -3.22349,-1.377362 -1.582477,0.0036 -3.181087,0.865784 -3.935535,2.122623 -0.340632,0.567461 -0.68363,1.515537 -0.686021,1.896221 -0.0016,0.249753 0.0199,0.277129 0.187227,0.238715 0.10395,-0.02386 2.078989,-0.392843 4.388978,-0.819953 z"
     id="path854"
     inkscape:connector-curvature="0" />
  <path
     style="fill:#00ffff;fill-opacity:0;stroke-width:0.08399957"
     d="m 26.318669,3.3261763 c -4.010291,-0.813014 -7.012839,-3.862689 -7.64592,-7.765929 -0.646593,-3.9865493 1.46062,-8.0812513 5.135521,-9.9792633 3.441042,-1.777229 7.33082,-1.468178 10.38662,0.825237 1.600864,1.201468 2.771244,2.914943 3.352004,4.907444 0.144321,0.495144 0.430182,2.1035223 0.382363,2.1513423 -0.01088,0.01088 -2.967913,0.571467 -6.571182,1.245748 -3.603269,0.67428 -6.747991,1.265366 -6.988272,1.313524 -0.433477,0.08688 -0.436117,0.08932 -0.339576,0.313459 0.610717,1.417931 2.071338,2.606681 3.590435,2.92213 1.72235,0.357656 3.753338,-0.500793 4.70928,-1.990499 l 0.264208,-0.411733 h 2.427231 c 1.334977,0 2.427231,0.0137 2.427231,0.03045 0,0.01675 -0.112509,0.303284 -0.25002,0.636752 -0.855229,2.073951 -2.630452,3.966368 -4.686039,4.995394 -0.65814,0.329465 -1.814172,0.696496 -2.656273,0.843347 -0.998028,0.174041 -2.576996,0.157349 -3.537611,-0.0374 z M 27.998661,-7.935474 c 2.309988,-0.42711 4.214959,-0.788912 4.23327,-0.804004 0.07635,-0.06294 -0.474647,-0.780656 -0.964429,-1.25624 -0.893101,-0.867211 -2.093005,-1.379917 -3.22349,-1.377362 -1.582477,0.0036 -3.181087,0.865784 -3.935535,2.122623 -0.340632,0.567461 -0.68363,1.515537 -0.686021,1.896221 -0.0016,0.249753 0.0199,0.277129 0.187227,0.238715 0.10395,-0.02386 2.078989,-0.392843 4.388978,-0.819953 z"
     id="path856"
     inkscape:connector-curvature="0" />
  <path
     style="fill:#f9f9f9;fill-opacity:0;stroke-width:0.08399957"
     d="m 26.318669,3.3261763 c -4.010291,-0.813014 -7.012839,-3.862689 -7.64592,-7.765929 -0.646593,-3.9865493 1.46062,-8.0812513 5.135521,-9.9792633 3.441042,-1.777229 7.33082,-1.468178 10.38662,0.825237 1.600864,1.201468 2.771244,2.914943 3.352004,4.907444 0.144321,0.495144 0.430182,2.1035223 0.382363,2.1513423 -0.01088,0.01088 -2.967913,0.571467 -6.571182,1.245748 -3.603269,0.67428 -6.747991,1.265366 -6.988272,1.313524 -0.433477,0.08688 -0.436117,0.08932 -0.339576,0.313459 0.610717,1.417931 2.071338,2.606681 3.590435,2.92213 1.72235,0.357656 3.753338,-0.500793 4.70928,-1.990499 l 0.264208,-0.411733 h 2.427231 c 1.334977,0 2.427231,0.0137 2.427231,0.03045 0,0.01675 -0.112509,0.303284 -0.25002,0.636752 -0.855229,2.073951 -2.630452,3.966368 -4.686039,4.995394 -0.65814,0.329465 -1.814172,0.696496 -2.656273,0.843347 -0.998028,0.174041 -2.576996,0.157349 -3.537611,-0.0374 z M 27.998661,-7.935474 c 2.309988,-0.42711 4.214959,-0.788912 4.23327,-0.804004 0.07635,-0.06294 -0.474647,-0.780656 -0.964429,-1.25624 -0.893101,-0.867211 -2.093005,-1.379917 -3.22349,-1.377362 -1.582477,0.0036 -3.181087,0.865784 -3.935535,2.122623 -0.340632,0.567461 -0.68363,1.515537 -0.686021,1.896221 -0.0016,0.249753 0.0199,0.277129 0.187227,0.238715 0.10395,-0.02386 2.078989,-0.392843 4.388978,-0.819953 z"
     id="path858"
     inkscape:connector-curvature="0" />
  <path
     style="fill:#f9f9f9;fill-opacity:0;stroke-width:0.08399957"
     d="m 26.318669,3.3261763 c -4.010291,-0.813014 -7.012839,-3.862689 -7.64592,-7.765929 -0.646593,-3.9865493 1.46062,-8.0812513 5.135521,-9.9792633 3.441042,-1.777229 7.33082,-1.468178 10.38662,0.825237 1.600864,1.201468 2.771244,2.914943 3.352004,4.907444 0.144321,0.495144 0.430182,2.1035223 0.382363,2.1513423 -0.01088,0.01088 -2.967913,0.571467 -6.571182,1.245748 -3.603269,0.67428 -6.747991,1.265366 -6.988272,1.313524 -0.433477,0.08688 -0.436117,0.08932 -0.339576,0.313459 0.610717,1.417931 2.071338,2.606681 3.590435,2.92213 1.72235,0.357656 3.753338,-0.500793 4.70928,-1.990499 l 0.264208,-0.411733 h 2.427231 c 1.334977,0 2.427231,0.0137 2.427231,0.03045 0,0.01675 -0.112509,0.303284 -0.25002,0.636752 -0.855229,2.073951 -2.630452,3.966368 -4.686039,4.995394 -0.65814,0.329465 -1.814172,0.696496 -2.656273,0.843347 -0.998028,0.174041 -2.576996,0.157349 -3.537611,-0.0374 z M 27.998661,-7.935474 c 2.309988,-0.42711 4.214959,-0.788912 4.23327,-0.804004 0.07635,-0.06294 -0.474647,-0.780656 -0.964429,-1.25624 -0.893101,-0.867211 -2.093005,-1.379917 -3.22349,-1.377362 -1.582477,0.0036 -3.181087,0.865784 -3.935535,2.122623 -0.340632,0.567461 -0.68363,1.515537 -0.686021,1.896221 -0.0016,0.249753 0.0199,0.277129 0.187227,0.238715 0.10395,-0.02386 2.078989,-0.392843 4.388978,-0.819953 z"
     id="path860"
     inkscape:connector-curvature="0" />
</svg>
