<svg id="Layer_1" data-name="Layer 1" xmlns="http://www.w3.org/2000/svg" viewBox="0 0 496.45 16.07"><defs><style>.cls-1{fill:#eeecab;fill-rule:evenodd;}</style></defs><title>footer</title><path class="cls-1" d="M682.29,488.46a0.57,0.57,0,0,1,.46.59h-0.92a0.56,0.56,0,0,1,.46-0.59h0Zm-9.26.19h0v-0.08h0v0h0v0h0v0.08h0Zm4.92,0h0l0-.08h0v0h0v0h0v0.08h0Zm-9.84,0h0l0-.08h0v0h0v0h0l0,0.08h0Zm-4.92,0h0l0-.08h0l0,0h0v0h0l0,0.08h0Zm-50.27-7.77,0,0L613,480.9l0,0.1-0.06.06-0.06-.19h0Zm0-.12h0v0l0,0v0h0Zm-1.91,0h0v0h0l0,0h0l0,0.06h0Zm-0.12.3,0-.08,0.06-.11,0.05,0h0l-0.07.2h0Zm-16.38,6.77h0L594.7,488l-0.05,0-0.17.07v-0.26h0Zm0,0.27h0l0-.06,0-.13v0.2h0Zm-0.2,0,0.15-.06,0-.17-0.33.15,0.15,0.08h0Zm0.13,0.91h0v-0.09h0V489h0Zm-0.1,0h-0.13l0.13-.05V489h0Zm-0.21-1,0.15,0.08,0,0-0.1-.1h0Zm0,0h0l0.1,0.1-0.13.05V488h0Zm0,0.15h0l0-.11v0.1h0Zm-0.21.08,0.16-.06,0-.16-0.34.12,0.14,0.1h0Zm-0.07,0-0.1-.11,0.14,0.1,0,0h0Zm0,0v0.05h0v0l-0.14.06,0-.27h0l0.11,0.12h0Zm-0.19.16h0l0-.24-0.09.25h0.05Zm0,0.4V489h-0.61l0-.09h0.13l0.5-.09,0,0.07h0Zm-0.71,0h0.1l-0.07,0,0,0h0Zm-0.06,0-0.07,0,0,0,0.08,0,0.09,0,0,0,0,0h0Zm-0.1,0h0l0,0-0.07,0h0.09Zm-0.06.13h-0.76l0-.06h0.82l0,0.06h0Zm-0.82-.14h0l0,0,0.07,0h-0.09Zm-0.1,0,0.07,0,0,0-0.08,0-0.09,0,0,0,0,0h0Zm-0.06,0h-0.1l0.07,0,0,0h0Zm-0.1.15,0-.09h-0.13l-0.49-.1,0,0.07h0V489h0.61Zm-0.64-.53,0-.24,0.09,0.25-0.05,0h0Zm-0.17-.07,0.14,0.06,0-.26h0l-0.1.12h0v0.05h0v0h0Zm-0.09-.13,0.14-.09-0.1.11,0,0h0Zm-0.18-.07,0-.15,0.34,0.12-0.14.09-0.16-.06h0Zm0,0h0l0-.11v0.1h0Zm-0.16-.06,0.1-.1h0v0.14l-0.13-.05h0ZM590,489v-0.05l0.13,0.05H590Zm-0.11,0v-0.09h0V489h0Zm0-1.13,0,0.17,0.15,0.06,0.14-.08-0.32-.15h0Zm0,0.23h0v-0.2l0,0.13,0,0.06h0Zm0,0-0.17-.07-0.05,0,0.21-.16h0v0.25h0Zm-0.33-.15,0.08,0,0.21-.16h0l-0.29.12h0Zm0.07,0.15,0,0h0v0h0Zm0,0.12v0h0v0h0Zm0-.14,0,0.1h0v-0.07l0,0,0,0h0Zm0,0.14-0.07,0h0.07v0h0Zm-0.09-.05h0l0.08-.07,0,0.08h-0.08Zm0-.21h0l0,0.06v-0.07h0Zm-0.23-.22,0.23-.14h0l0,0.27-0.21-.14h0Zm0.2,0.21h0l-0.26-.17h0l0.09,0.13,0.18,0h0Zm0,0.17h0l0,0-0.12-.18,0.18,0,0,0.16h0Zm-0.35-.22,0.18,0,0.12,0.17-0.3-.2h0Zm0,0h0l0.2,0-0.09-.13-0.13.08h0Zm-0.19-.26-0.08-.14h0l0.24,0.2-0.18,0h0Zm0.18,0.06h0l-0.18,0,0,0.07,0.13,0h0Zm0,0.15h0l0,0-0.06-.1,0.12,0,0,0.13h0Zm-0.14-.1,0.09,0.07,0-.08h0Zm0-.06,0,0h0.05l0-.08-0.1,0v0l0.06,0h0Zm-0.08-.17v0.1l0.09,0-0.08-.13h0Zm0-.08h0l0,0h0v0h0Zm-0.06.16h0.06v0l-0.06,0h0Zm0,0,0.07,0v-0.08l-0.09,0,0,0h0Zm-0.07-.06,0,0-0.09-.2,0.17,0.06,0,0.15h0Zm-0.3-.29,0.25,0.25-0.09-.19-0.17-.06h0Zm0,0,0.14-.05,0.06,0.14-0.18-.07,0,0h0Zm0,0v0l0-.11H588l0,0.1,0,0h0Zm-0.11-.13h0l0,0.09-0.07-.09h0Zm0,0h0l0-.06h0v0l0.09,0,0,0.08H588Zm0-.57-0.06.16v0l0.07-.14h0Zm-0.08.32-0.08,0,0.09-.1v0.08h0Zm0,0.1-0.06,0,0,0,0.08,0v0.07h0Zm0,0v0l0,0,0,0.05h0Zm-0.1-.17,0.06-.12-0.16-.1,0.05,0.21,0,0,0,0h0Zm-0.25-.31,0.15,0.09,0.05,0.19-0.2-.28h0Zm0,0,0,0,0.16,0.1,0-.15-0.13,0h0Zm0-.06,0,0,0-.1,0.12,0-0.06.08,0,0h0Zm-0.09-.15,0.05,0.09v-0.09h0Zm0-.09,0,0h0v0l0.09,0.06,0,0.09h-0.05l0-.06h0Zm-0.08-.14,0,0h0.08l0,0.07,0,0h0Zm0,0.06v0l0,0,0,0h0Zm-0.08-.16,0,0,0-.21,0.14,0.13h0l-0.07.08,0,0h0ZM587,485.4l0.14,0.31v-0.2L587,485.4h0Zm0-.05h0.13v0.15l-0.13-.12,0,0h0Zm0-.11v-0.1l0.12,0.05-0.06.05,0,0v0h0Zm0-.41h0l0-.05h0v0h0Zm0,0.18-0.07-.08,0-.07h0V485h0Zm0,0.11V485l-0.07-.09v0l0,0.13,0,0h0Zm0,0.1,0-.09h0v0.08h0Zm-0.09-.29v0l0,0h0Zm0-.09v0l0,0,0-.06h-0.07Zm0.11-.1-0.11.07h0.07l0-.08h0Zm-0.14,0,0-.2,0.1,0.15v0l-0.05,0-0.06,0v0h0Zm-0.08-.34,0.07,0.32,0-.19-0.09-.13h0Zm0-.06,0.12,0,0,0.15-0.09-.14v0h0Zm0-.13,0-.09,0.1,0.07,0,0-0.08,0v-0.05h0Zm0-.11v0l0,0h0Zm0-.19v0l0.06,0.1,0,0.09,0,0,0-.16h0Zm0,0h0v0h0Zm0-.07v0.07l0-.05-0.06,0h0Zm0-.07v-0.06l0.05-.19,0.07,0.17v0h0l-0.09,0h0Zm0-.39v0.31l0.05-.18-0.06-.14h0Zm0-.07,0.1,0,0,0.15-0.06-.15v0h0Zm0-.13,0-.07,0.09,0.09h0l-0.11,0v-0.06h0Zm0-.09v0.07l0-.05h0Zm0-.21h0l0,0.12,0,0.09,0,0v-0.18h0Zm0-.1,0,0,0,0v-0.07h0Zm0.12-.05-0.11,0,0.05,0,0.05-.05h0Zm-0.1-.09,0.08-.17,0,0.17v0l-0.11,0v-0.06h0Zm0.06-.32-0.05.3,0.08-.16,0-.14h0Zm0-.26h0v0h0Zm0,0.18,0.09,0.06-0.07.14,0-.15v0h0Zm0.12,0h-0.11l0.08,0.06v-0.07h0Zm-0.08-.1,0-.05,0.06,0.1h-0.11l0-.07h0Zm0-.07v0l0,0h0Zm0-.26h0Zm0,0.2a0.2,0.2,0,0,0,0-.09l0-.07h0v0.13l-0.05.09V481.9h0Zm0.07-.25,0,0,0,0h0l0-.05h0Zm0.12,0h-0.1l0,0,0.06,0h0Zm-0.06-.11,0.1-.14v0.17l0,0h-0.11l0-.07h0Zm0.11-.29-0.1.27,0.09-.13v-0.13h0Zm0.1,0-0.1.14v0.16l0.12-.29h0Zm-0.09,0,0-.06,0.07,0.07-0.1.13V481.2h0Zm0-.25h0l0,0v0h0Zm0.05,0.06,0,0,0,0.11h-0.1l0-.07h0Zm0,0v0l0,0h0Zm0.11-.22,0,0.13-0.07.08v0l0.1-.19h0Zm0,0h0Zm0.12,0-0.07,0,0,0.13,0.11-.13,0,0h0Zm0,0,0,0-0.05,0,0-.05h0Zm0.11,0-0.09,0,0,0,0.06,0h0Zm0-.13,0.12-.11,0,0.16,0,0-0.09,0,0-.07h0Zm0.16-.25-0.14.22,0.11-.1,0-.12h0Zm0.05-.08,0,0.08-0.12.12,0-.13,0-.06h0Zm0.1,0-0.08,0,0,0.07h0l0,0h0Zm-0.05-.21h0l0,0.06,0,0h0Zm0.07,0.06v0.11l-0.09,0,0.05-.07,0,0h0Zm0,0h0Zm0.16-.2,0,0.11-0.09.07h0l0.14-.17h0Zm0-.07,0,0h0Zm0.11,0h-0.07l0,0.12,0.14-.11,0,0h0Zm0-.05,0,0h0l0,0h0Zm0.1,0H588l0,0,0.07,0h0Zm0-.14,0.13-.08-0.08.15,0,0-0.08,0,0.07-.07h0Zm0.19-.2-0.17.18,0.12-.08,0.06-.1h0Zm0.07-.08,0,0.08-0.15.1,0.06-.12,0.06-.06h0Zm0.09,0-0.06,0,0,0.07,0,0h0Zm0-.14h0v0.11h0l-0.07,0,0.08-.06h0Zm0-.08h0l-0.07.06,0-.05h0Zm0.37,0.35-0.26.23-0.06-.35,0.32,0.11h0Zm-0.31-.29,0.1-.05-0.09.14,0,0v-0.1h0Zm0,0h0l0.11-.06,0.07-.09-0.17.15h0Zm0.13-.22h0l0,0v0h0Zm0.07,0.05h0.08v0l-0.16.08,0.07-.11h0Zm0.06-.05v0h0l0,0h0Zm0.08,0h0v0l0.05,0h0Zm0.07-.14-0.09.06,0,0h0l0,0,0.11-.13-0.13.05h0Zm0.21-.15-0.07.09-0.12,0,0.19-.13h0Zm0.1-.07-0.08.05-0.08.09,0.17-.07v-0.08h0ZM589,479l0.1-.12,0.16-.06L589,479h0Zm0.34,0.19,0,0L589,479l0.29-.2,0,0.32h0Zm0-.43,0,0v-0.06l0,0h0Zm0.07-.12-0.08,0,0,0h0l0-.09h0Zm0-.1h0l-0.09.05,0-.06h0Zm0.24,0-0.08.07-0.12,0,0.19-.11h0Zm0-.08h0.05l-0.06,0h0l0,0h0Zm0.14,0.08h-0.09l-0.09.08,0.18-.05h0v0h0Zm0-.06v0h0l0,0h0Zm0,0.47,0-.33-0.32.17,0.28,0.19,0.05,0h0Zm0-.43h0v0l0,0h0Zm0.11-.12,0.13,0-0.13.1,0,0,0,0,0,0,0.1,0h0Zm0.22-.1-0.2.09,0.11,0,0.09-.06h0Zm0.12,0v0.07h0l-0.18,0,0.1-.07,0.1,0h0Zm0,0.13,0,0-0.06.3,0-.28h0Zm0-.11,0,0h0v0h0Zm0.12-.07,0,0.07,0,0v0l0.08,0h0Zm0-.1h0l-0.09,0,0.06-.05h0Zm0.24,0-0.2.06h0.11l0.09-.05h0Zm-0.18,0h0Zm0.13,0h0Zm0,0h0.07l-0.07,0h0v0h0Zm0.15,0.05v0l0,0,0.05,0h0Zm0,0.12-0.08.28,0-.26h0Zm0-.09v0h0v0h0Zm0.16-.07h0.12l-0.15.07h0l0-.05h0l0.12,0h0Zm0.23,0-0.09,0H591l0.2,0h0Zm0.14,0-0.11,0-0.11,0h0.2l0-.07h0Zm0,0v0h0v0h0Zm-0.09.33,0.07-.24h0l-0.1.25h0Zm0.35,0-0.22-.29-0.14.34,0.36-.05h0Zm-0.14-.42,0,0.05,0,0h0.08Zm0.06-.1,0,0,0,0h-0.09l0.08,0h0Zm0,0h0Zm0.17,0.05-0.1,0h-0.1l0.2,0h0Zm0-.09,0.06,0h-0.09l0,0h0Zm0.13,0.08v0l0,0h0.06Zm0,0h0Zm0,0.07,0.2,0.31-0.37,0,0.17-.33h0Zm0.14-.12,0.11,0-0.17,0h0l0-.06H592Zm0.23,0h-0.2l0.1,0,0.1,0h0Zm0.15,0,0,0.06h0l-0.17,0,0.11,0h0.12Zm0.19,0.45-0.37,0,0.2-.31,0.17,0.33h0Zm-0.14-.4h0Zm0.08,0,0,0,0,0h0.07Zm0.07-.09,0,0h-0.1l0.07,0h0Zm0,0h0Zm0.16,0.08h-0.1l-0.1,0,0.2,0h0Zm0-.09,0.06,0h-0.09l0,0h0Zm0.12,0.1,0,0,0-.05H593Zm0.14,0.47-0.36-.06L593,478l0.14,0.35h0ZM593,478h0l0.1,0.25L593,478h0Zm0-.09v0h0v0h0Zm0.13,0,0.1,0H593l0-.07,0.11,0h0Zm0.23,0-0.2,0,0.09,0h0.11Zm0.14,0h0l0,0.05h0l-0.15-.07h0.12l0.12,0h0Zm0.06,0.15,0,0.26-0.08-.28h0Zm0-.1v0h0v0h0Zm0.08,0,0,0v0l0.06,0h0Zm0.09-.07,0,0h0l-0.07,0h0.07Zm0.19,0.15H593.8l-0.09-.05,0.2,0.06h0ZM594,478l0,0-0.09,0h0Zm0.09,0.12h0l0,0,0-.07,0.08,0h0Zm0,0v0h0l0,0h0Zm0,0.39-0.06-.3,0,0v0.28h0Zm0,0.19-1.71,3.83h0l1.29-4,0.45,0.16h0Zm0.07-.56,0.1,0.07-0.18,0h0v-0.07l0.1,0h0Zm0.22,0.09-0.2-.08,0.09,0.06,0.11,0h0Zm0.13,0.05,0,0,0,0,0,0-0.13-.1,0.13,0,0.11,0h0Zm0,0v0h0l0,0h0Zm0,0.13,0.32,0.17-0.29.19,0,0,0-.34h0Zm0-.09h0.09l0.09,0.08-0.18-.05h0v0h0Zm0-.05,0,0h0v0h0Zm0.15,0v0h0l-0.06,0h0.06Zm0.16,0.19-0.2-.11,0.08,0.07,0.12,0h0Zm0,0.08-0.11-.1-0.17,0,0.28,0.15h0Zm0,0,0-.09-0.12,0,0.12,0.11h0Zm0-.16,0,0-0.06,0h0Zm0,0.15,0,0,0-.09,0.08,0,0,0h0Zm0.06,0,0,0,0,0v-0.06h0Zm0.3,0.35-0.3.16,0,0,0.05-.33,0.3,0.2h0Zm-0.27-.35v0.08l0.17,0.07-0.08-.09-0.08-.05h0Zm0.29,0.2-0.19-.13,0.07,0.08,0.12,0h0Zm0,0.07-0.1-.12-0.16-.07,0.26,0.18h0Zm0.13,0-0.09-.06-0.13-.05,0.11,0.13,0,0h0l0,0h0Zm0,0.08h0l0.05,0v0h0Zm0,0h0.08l0.07,0.11-0.16-.08v0h0Zm0-.05,0,0h0v0h0Zm0.16,0v0h0l0,0,0.07,0h0Zm0,0h0Zm0.1,0.17-0.17-.15,0.07,0.09,0.11,0.06h0Zm0,0.11h0l-0.1-.14,0.1,0.05v0.1h0Zm0-.09,0.08,0.07-0.07,0h0v-0.11h0Zm0-.08,0,0.05-0.07-.06h0Zm0.06,0.18-0.06,0,0,0,0-.07h0ZM596,479.4l0.06,0.12-0.15-.1,0-.08L596,479.4h0Zm0.19,0.2-0.17-.18,0.05,0.1,0.12,0.07h0Zm0.08,0.09-0.08,0,0,0-0.08-.15,0.13,0.08,0.07,0.07h0Zm0,0.08h-0.05l0.07,0,0,0h0Zm0,0,0,0h0l0,0h0Zm0.1,0.19-0.14-.11v0l0.08,0,0.05,0.12h0Zm0.1,0.07-0.14-.18,0,0.11,0.09,0.07h0Zm-0.07-.23,0,0,0,0.05h0v0h0ZM596.6,480h0l0.06,0.07-0.09,0V480h0Zm0,0h0Zm0.06-.06,0,0.06-0.05-.07h0Zm0,0.27h0l0,0,0.08,0,0,0.07h0Zm0.07-.06,0,0.08,0.13,0.12,0-.13,0-.06h0Zm0.2,0.31-0.11-.1,0-.12,0.15,0.23h0Zm0.06,0.09,0-.07-0.12-.11,0,0.16,0,0,0.1,0h0Zm0,0.09-0.06,0,0.09,0,0,0h0Zm0.08,0,0,0,0,0,0,0h0Zm0,0.15-0.11-.13,0,0,0.07,0,0,0.13h0Zm0.09,0.08-0.1-.2,0,0.13,0.07,0.08v0h0Zm0-.22v0h0l0,0,0,0h0Zm0.06,0.3,0,0.07h-0.1l0-.11,0,0h0Zm0,0h0v0h0Zm0.08,0h0l0,0,0,0.07v-0.05h0Zm0,0.22,0,0.06v0.15l-0.1-.14,0.07-.07h0Zm0,0.38v-0.16l-0.1-.14h0l0.11,0.3h0Zm0.1,0-0.1-.13v-0.13l0.1,0.27h0Zm0,0.09h-0.11v-0.21l0.1,0.14,0,0.07h0Zm0,0.09-0.06,0h0.1l0,0h0Zm0.07,0v-0.06l0,0,0,0h0Zm0,0,0.05,0.2v0l-0.05-.09v-0.13h0Zm0.06,0.23v0l0,0h0Zm0-.24v0l0,0h0Zm0,0.31,0-.05-0.06.11h0.11l0-.07h0Zm-0.06.18v-0.07h0.11l-0.09.06h0Zm0.1,0-0.09.06,0.07,0.15,0-.15v-0.05h0Zm0-.22v0l0-.06h0Zm0,0.59-0.08-.16,0-.14,0.05,0.3h0Zm0,0.09v-0.06l-0.08-.17,0,0.17v0l0.12,0h0Zm0,0.12v0l0,0,0,0v0h0Zm0,0.24,0,0,0-.09,0-.12h0V483h0Zm0,0.1,0-.05v0.05h0Zm0,0.08v-0.06l0-.07-0.09.09h0l0.11,0h0Zm0,0.12-0.06.15,0-.15,0.11,0v0h0Zm0,0.87h0Zm0-.53v-0.32l-0.06.14,0,0.18h0Zm0,0.08-0.1,0h0v0l0.07-.17,0.05,0.19v0.06h0Zm0,0.12v0l0-.05,0.05,0v0h0Zm0,0h0Zm0,0.19,0,0,0-.09,0.06-.11v0l0,0.16h0Zm0,0.11v-0.07l0,0v0.08h0Zm0,0.08v-0.14l-0.11.08,0,0,0.08,0h0Zm0,0.11-0.1.14v-0.15l0.12,0v0h0Zm-0.08.34,0.07-.32-0.09.13,0,0.19h0Zm0,0.07-0.07,0,0,0v0l0.11-.15,0,0.2v0.05h0Zm0,0.1,0,0,0-.06h0.07v0h0Zm0,0.05v0l0,0h0Zm-0.06.17,0,0v-0.09l0.08-.09v0l0,0.14h0Zm0,0.1h0Zm-0.08,0v-0.08h0l0,0.09h0Zm0-.39h0v0h0Zm0,0.19-0.12.13,0.1-.29h0v0.16h0Zm0,0.1v-0.09l-0.12.14,0.12-.05h0Zm0,0.12v-0.1l-0.12.05,0.05,0.05,0.05,0,0,0h0Zm-0.06.14-0.13.12v-0.15h0.13v0h0Zm-0.15.33,0.14-.31-0.12.11,0,0.2h0Zm0,0.06,0,0L597,485.7h0l0.14-.13,0,0.21,0,0h0Zm0,0.09,0,0,0-.07h0.08v0h0Zm0,0.06,0,0,0,0v0h0Zm0,0h0v0l0,0.07h0l0-.09L597,486v0h0Zm0,0.19h0Zm-0.09,0,0-.08h0l-0.05.09h0Zm0,0.06,0,0,0-.1-0.13,0,0.06,0.08,0,0h0Zm-0.06.08-0.16.1,0-.15,0.14,0,0,0h0Zm-0.22.3,0.2-.28-0.15.09-0.05.19h0Zm0,0,0,0,0,0-0.06-.11,0.16-.1-0.06.21h0Zm-0.08.11-0.06,0v-0.08l0.08,0,0,0h0Zm-0.06.07,0,0,0,0v0h0Zm0-.22v0.08l0.08,0-0.09-.11h0Zm0-.08-0.06-.15,0.07,0.14v0h0Zm0,0.33h0l0,0.06v0h-0.05l0-.08,0.1,0v0h0Zm-0.17.19,0-.09h0l-0.07.09h0Zm0,0,0,0,0-.1h-0.13l0,0.11v0h0Zm-0.07.07-0.18.06,0.07-.14,0.14,0.05,0,0h0Zm-0.27.26,0.26-.24-0.17.06-0.09.18h0Zm0,0v0l0-.14,0.18-.06-0.09.2,0,0h0Zm-0.07.06,0,0-0.09,0v0.08l0.07,0h0Zm-0.08.06v0h0.06l-0.06,0h0Zm0-.17,0,0h0v0h0Zm0,0.13-0.09,0,0.08-.13h0v0.1h0Zm0,0.05v0l-0.1,0,0,0.07h0.06l0,0,0.06,0h0Zm-0.2.16,0-.08h0l-0.09.07h0Zm0,0,0,0,0.06-.1-0.12,0,0,0.13h0Zm0-.17,0.18,0,0,0.07-0.14,0h0Zm0,0.22-0.2,0,0.09-.12,0.13,0.08h0Zm-0.32.21,0.3-.19-0.18,0-0.12.17h0Zm-0.05,0h0l0-.16,0.18,0-0.13.18,0,0h0Zm0-.18h0l0.19,0,0.1-.13h0l-0.27.17h0Zm0-.34,0,0.28,0.22-.14-0.23-.15h0Zm0,0.37h0V488l0-.06h0Zm0,0.2h-0.08l0-.08,0.08,0.06h0Zm-0.09,0h0v0h0.07l-0.07,0h0Zm0,0h0l0-.09,0,0,0,0v0.07h0Zm0,0h0v0h0v0h0Zm0-.17h0l0,0v0h0Zm-0.24-.22h0l0.21,0.17,0.09,0-0.3-.13h0Zm-0.31,0,0.42-.21-2.13-3.69h0l1.73,3.89h0Zm1.25-8.24h0l-0.37-.29-2.47,3.4,0,0,2.82-3.13h0Zm-0.06-.2,0-.36-0.32.15,0.29,0.22h0Zm0,0,0-.34,0,0-0.08.3h0Zm0.13-.34,0.25,0.21-0.09-.13-0.16-.08h0Zm0.22,0.68-0.27-.24,0.33-.12-0.06.36h0Zm0,0,0.11-.3,0-.05-0.06.35h0Zm0.17-.33,0.23,0.24-0.08-.14-0.15-.1h0Zm0.21,0.31-0.24-.25-0.12.31,0,0,0.32-.09h0Zm-0.06.38-0.24-.26,0.34-.08-0.1.35h0Zm0,0h0l0.1-.35,0,0.06-0.15.29h0Zm0.4-.07-0.06-.15-0.15-.11h0l0.2,0.26h0Zm0,0h0l-0.06-.16,0.09,0.07v0.1h0Zm-0.12.44h0l0.13-.33,0,0.07-0.17.27h0Zm0.37,0-0.33,0,0,0,0.17-.27,0.18,0.29h0Zm-0.15-.34h0l0.13,0.13,0,0.15-0.18-.28h0Zm0,0.73h0l0.15-.32,0,0.08-0.19.24h0Zm0.36,0.08-0.15-.3-0.19.24,0,0.05h0.32Zm-0.12-.38h0v0h0v0h0Zm0.16,0.32,0-.16-0.12-.13h0l0.15,0.29h0Zm0,0h0l0-.17,0.07,0.08,0,0.1h0Zm-0.2.4h0l0.18-.3,0,0.08-0.21.22h0Zm0.15,0.44c0-.11-0.07-0.22-0.11-0.33l0.32,0-0.2.28h0Zm0,0,0.23-.19,0-.09-0.21.28h0Zm0.32,0.15-0.09-.31-0.23.19V482l0.3,0.07h0Zm0-.39,0,0,0,0v0h0Zm0.1,0.17-0.08-.14,0,0,0.06,0v0.12h0Zm0,0.2h0l0.06-.1-0.05-.08v0.17h0Zm0,0.6-0.25.23c0-.11,0-0.23,0-0.34l0.29,0.11h0Zm0-.4h0l0.07,0.15,0,0.16-0.06-.31h0Zm0.07,1.6h0l0,0.16-0.08.15,0-.31h0Zm0.05-1.13,0.06,0-0.11,0,0.05,0.05h0Zm0,0.2,0-.11-0.05-.05,0,0,0.06,0.15h0Zm0,0.2,0.08-.09,0-.09,0,0.17h0Zm0,0.16,0.11,0-0.11,0v0.08h0Zm0,0h0Zm0,0v0.31l0.06-.16,0-.16h0Zm0,0.5h0v0h0Zm0-1.1v0l0,0h0v0h0Zm0,0h0Zm0,0h0l0.06,0.16,0,0.16,0-.31h0Zm0,1,0.11,0-0.07,0,0-.07h0Zm0,0.08h0l0,0h0v0h0Zm0,0,0,0.15,0.06-.1,0-.06h0Zm-0.06.34h0l0.1-.07V484l-0.09.16h0Zm0,0.12v0l0.11,0.06-0.12,0v0h0Zm0,0.08-0.07.3,0.1-.14v-0.16h0Zm-0.16.31,0,0h0l0,0h0Zm-0.29.17,0.3-.12-0.22-.21c0,0.11-.05.22-0.09,0.32h0Zm0,0,0.27,0,0-.11-0.3.12h0Zm0.16,0.46v0h0Zm0,0-0.13.28,0.13-.12v-0.16h0Zm-0.18.26,0.12-.26h-0.27l0,0,0.18,0.22h0Zm0,0.2h0.08l-0.1-.09,0,0.08h0Zm-0.05,0,0,0.15L597,486l0-.08h0Zm0,0.17-0.15.11,0.13,0V486h0Zm-0.14.09,0.15-.11,0-.16h0l-0.15.27h0Zm-0.07.11,0,0,0.09,0.1-0.13,0v0h0Zm-0.07-.23,0.07,0.11h0l-0.07-.12h0Zm0,0.27,0,0v0h0Zm0,0-0.18.25,0.16-.09,0-.15h0Zm-0.34-.06,0.27,0.05-0.16.22-0.13-.25,0,0h0Zm-0.26.34h0.33l-0.11-.28-0.22.28h0Zm0.32,0.13,0,0h0v0.05h0Zm0,0-0.05.14,0.09,0v-0.09h0Zm-0.07.16-0.17.08h0.14l0-.08h0Zm-0.16.07,0.17-.08,0.06-.15h0l-0.2.23h0Zm-0.09.09,0,0,0.08,0.11-0.12,0,0,0h0Zm0,0,0,0h0v0h0Zm-0.08,0-0.25-.1h0l0.33,0-0.08.07h0Zm0,0-0.23.21,0.18-.06,0.07-.14h0Zm-0.25.16-0.08-.27,0,0,0.26,0.1-0.19.18h0Zm0,0.09h0v0l0,0h0Zm0,0v0.08l0.08,0-0.07-.12h0Zm0-.29,0,0.2,0,0-0.06-.18h0Zm-0.31.16,0.32,0.07-0.05-.3-0.27.23h0Zm0.3,0.16,0,0h0v0h0Zm-0.08,0-0.24-.13h0l0.32,0.06-0.08.06h0Zm0,0.05-0.25.19,0.19,0,0.08-.14h0Zm-0.26.13-0.06-.27h0l0.25,0.13-0.2.16h0Zm0,0.09h0v0l0,0h0Zm0-.27v0.22l0,0,0-.2h0Zm0,0.32,0,0,0.11,0.07-0.06-.12h0Zm0,0v0h0Zm-0.31-.17,0.31,0.1-0.08.05-0.23-.15h0Zm0.32-.22,0,0.3-0.31-.1,0.29-.21h0Zm0.22-.33a4.55,4.55,0,0,1-.37.3l-2.51-3.45,0,0,2.85,3.17h0Zm-2.8-3.22,3.17,2.86c-0.11.11-.22,0.23-0.34,0.33l-2.85-3.17,0,0h0Zm0.06-1,3.42-2.48a4.57,4.57,0,0,0-.31-0.36l-3.14,2.82,0,0h0Zm3.87,3h0l0.32-.06-0.06.09-0.27,0h0Zm0,0,0.27,0-0.14.24-0.16-.23,0,0h0Zm-0.23.36,0.33,0-0.14-.26c-0.06.1-.12,0.2-0.18,0.29h0Zm0,0h0l0.27,0.05,0.06-.09-0.33,0h0Zm0.14-.43-3.7-2.14v0l3.91,1.74c-0.07.14-.14,0.29-0.22,0.42h0Zm-0.29.44-3.46-2.51,0,0,3.7,2.14c-0.08.14-.17,0.27-0.26,0.4h0Zm-0.33.4-3.17-2.86,0,0,3.45,2.51c-0.1.13-.2,0.25-0.3,0.37h0Zm0.14,0.15,0.07,0.16,0,0-0.05-.18h0Zm0-.09-0.24.26,0.32,0-0.08-.29h0Zm0.15,0.32h0Zm0-.1-0.11-.26,0,0,0.26,0.08-0.18.2h0Zm0.28-.23,0,0h0v0h0Zm-0.08,0,0.07-.08H596l0.26,0.08h0Zm0.65-1-0.32.06c0.06-.1.1-0.2,0.15-0.3l0.17,0.25h0Zm0,0.1v0h0l0,0h0Zm0,0h0v0.06h0v0h0Zm0-.11-0.06-.09,0.06,0.08h0Zm0.19-.42,0,0.1h-0.27l0.31-.09h0Zm0-.11,0,0h0l0-.05h0Zm0,0.08L597,485c0,0.11-.07.21-0.12,0.32l0.31-.09h0Zm0-2.85c0-.11-0.05-0.22-0.08-0.33l0.31,0.08-0.23.25h0Zm0.18-.66h0l0.09,0.15V482l-0.09-.3h0Zm-0.18.69h0l0.24-.17,0-.1-0.23.26h0Zm0.26,1.84,0,0.11-0.27.05h0l0.29-.15h0Zm0,0-0.24-.19c0,0.11,0,.22-0.06.33l0.29-.15h0Zm0,0.12h0v0h0Zm0-.48,0,0.3-0.24-.16V484l0.27-.08h0Zm0-.14-0.28.18h0l0.27-.08v-0.11h0Zm-0.25-.19h0c0,0.11,0,.23,0,0.34l0.28-.18-0.26-.16h0Zm0-.62,0.25-.14v-0.1l-0.25.23h0Zm0,0.08,0.27,0.12,0-.31-0.25.14s0,0,0,.05h0Zm0,0.38s0,0,0-.06,0-.19,0-0.28l0.28,0.14-0.27.2h0Zm0.26,0v0.3l-0.26-.14s0,0,0-.05l0.26-.11h0Zm-0.26.08,0.26-.11v-0.11l-0.27.2h0Zm-0.52-2.32h0c0.05,0.1.1,0.21,0.15,0.31l0.18-.3-0.32,0h0Zm0.41,2.22a4.89,4.89,0,0,0-.44-2L592.84,483v0l4-1.31,0,0-4,1.31v0l4.16-.88v0l-4.16.89a0.17,0.17,0,0,0,0,0l4.24-.44v0l-4.24.44s0,0,0,0h4.26v0h-4.26v0l4.24,0.45v0l-4.24-.45v0l4.17,0.89v0l-4.18-.89v0l4.06,1.32v0l-4.07-1.32v0l3.91,1.74h0a4.88,4.88,0,0,0,.43-2h0Zm-0.66-2.66h0l0.18,0.3,0.15-.32-0.33,0h0Zm0.2,0.6c-0.07-.14-0.14-0.29-0.22-0.42L592.81,483l0,0,3.88-1.73h0Zm-0.49-1h0l0.21,0.28,0.13-.33-0.34,0h0Zm0.24,0.56h0c-0.08-.14-0.17-0.27-0.27-0.4l-3.42,2.49,0,0,3.67-2.12h0Zm-0.63-.83h0l-0.34-.33-2.82,3.13,0,0,3.14-2.82h0Zm-1,7.71,0,0.21,0,0v-0.24h0Zm-0.21-.07-2.13-3.69h0l2.51,3.45-0.4.26h0Zm0.18,0.39,0,0.07,0.07,0.06-0.05-.13h0Zm0-.37h0l-0.31.18,0.3,0.13v-0.31h0Zm-0.07.41h0Zm0,0,0,0h0v0h0Zm2.4-2.73,0.11,0.08H597.2v0l0,0h0Zm0-.11,0.09-.27-0.27,0,0,0,0.2,0.2h0Zm0.16-.49,0.07-.29-0.27.06v0l0.22,0.18h0Zm0,0.1,0,0.08h0.07l-0.11-.07h0Zm0,0.08v0h0l0,0h0Zm0,0h0V485l0.07-.08,0-.07h0Zm0.07-2.67h0Zm0,0.39-0.06-.31-0.24.17v0.05l0.29,0.09h0Zm-0.35-1.48,0,0.05h0l0.07-.07h-0.1Zm0.11,0.45-0.12-.31-0.21.22,0,0.05,0.31,0h0Zm-1-1.79h0v0h0Zm0,0.11-0.15.29,0,0,0.33-.06-0.21-.27h0Zm-0.79-.85h0Zm0,0.1-0.09.32,0,0,0.32-.13-0.27-.23h0Zm-0.52-.37v0.34l0-.3,0,0h0Zm-0.33.16h0l0.31,0.19v-0.37l-0.31.18h0Zm0.37,0.36h0l-0.4-.25-2.1,3.64,0,0,2.47-3.4h0ZM594.6,479h0l-0.43-.21-1.71,3.83,0,0,2.1-3.64h0Zm-0.06-.51,0,0,0,0.29,0-.32h0Zm-0.09,0,0,0h0l0,0h0Zm0.06,0,0,0.37-0.33-.16,0.29-.21h0Zm-0.36-.22,0.29,0.12-0.13-.09-0.16,0h0Zm0.3,0.19-0.34-.14,0,0.34,0.05,0,0.27-.22h0ZM593.72,488L592.4,484h0l1.73,3.89-0.44.17h0Zm-0.5.14L592.33,484h0l1.32,4.05-0.46.12h0Zm-0.05.13h0l0.35-.08-0.11.29-0.24-.2h0Zm0,0.39,0.13-.09,0.08,0.11v0h0l-0.2,0h0Zm0,0-0.16.11,0.35-.06-0.18,0h0Zm-0.18,0,0,0.16h0l0.17-.12-0.17,0h0Zm0,0h0l0,0.1v-0.1h0Zm0-.09h0v0h-0.06l0,0h0Zm0.25-.11-0.13.12,0.19,0-0.06-.09h0Zm-0.18.13h0Zm0.28,0-0.3.06h0l0.17,0,0.14-.09h0Zm0-.06h0.08l-0.2-.17v0l0.11,0.15h0Zm0,0.06h0Zm0.05,0.08h0v-0.08h0l0,0,0,0.07h0Zm-0.68-.4L592.26,484h0l0.88,4.17-0.47.07h0Zm0,0.11,0.18,0,0,0.2h0l0,0-0.22-.23h0Zm0.17,0.33,0,0v0.12l0-.08h0Zm0,0-0.06.08,0.09,0h0l-0.06-.11h0Zm0,0-0.14.08,0.08,0,0.07-.09v0h0Zm-0.32,0h0l0.3,0h0l-0.15.08-0.17-.06h0Zm0,0,0.09,0.08,0.07,0-0.16-.05h0Zm0,0,0.08,0.07-0.09,0h0l0-.12h0Zm0,0,0,0v0.11l0-.08h0Zm-0.25-.34,0.36,0-0.17.27-0.19-.25h0Zm0.12,0.32h0v0.12l0-.11h0Zm-0.18.08,0.19,0.08h0l-0.07-.15-0.15.06h0Zm0,0,0.17,0.08H592l0.18-.08h0Zm-0.16-.07-0.07.15h0l0.19-.08-0.15-.07h0Zm-0.07,0h0l-0.05.11v-0.12h0Zm-0.19-.33,0.37,0-0.2.25-0.17-.27h0Zm0.1,0.36,0,0v0.11l0-.08h0Zm0,0-0.08.07,0.09,0h0l0-.12h0Zm0,0v0l-0.09.08-0.07,0,0.16-.05h0Zm-0.32,0h0l0.3,0h0l-0.17.05-0.15-.08h0Zm0,0v0l0.14,0.08-0.08,0-0.07-.09h0Zm0,0-0.06.1h0l0.09,0-0.06-.08h0Zm-0.05-.07,0,0,0,0.08v-0.12h0Zm0-.11,0-.21,0.19,0-0.22.22,0,0h0Zm-0.23-.37L592,484h0l-0.44,4.23-0.47-.07h0Zm0.14,0.39v0h0l0,0h-0.06Zm0,0.07h0v0.1l0-.11h0Zm-0.19,0,0.16,0,0,0.16h0l-0.17-.12h0Zm0,0,0.16,0.11-0.35-.07,0.18,0h0Zm-0.22,0v0h0l0.2,0-0.13-.09-0.08.11h0Zm0.22-.42h0l-0.33-.08,0.11,0.29,0.22-.18v0h0Zm-0.09.23,0.06-.08,0.12,0.11-0.18,0h0Zm-0.11,0,0.18-.15v0l-0.09.13-0.08,0h0Zm0,0.07h0Zm0,0h0l0,0,0,0.06h0v-0.08h0Zm0.34,0h0Zm0,0.07-0.3-.06h0l0.14,0.1,0.17,0h0Zm0.68-4.63-1.31,4,0.46,0.12L592,484h0Zm-2.26,3.62,0.42,0.22,1.73-3.88h0l-2.12,3.68h0Zm-0.23.41,0-.07-0.05.12,0.07-.06h0Zm0-.13,0.29-.12-0.31-.18v0.3h0Zm0,0v-0.24l0,0.21,0,0h0Zm-0.17-.55h0l0.4,0.26,2.12-3.68h0l-2.49,3.43h0Zm-0.21.3,0.08,0.05,0.23-.14h0l-0.3.09h0Zm0,0.08h0v0h0Zm0,0,0,0,0,0-0.11.07,0.06-.12h0Zm-0.05,0v0l0,0h0Zm0.06-.28v0.22l0,0,0-.2h0Zm0-.1-0.24.12,0.2,0.16,0.06-.27h0Zm-0.32.13,0,0v0h0Zm0-.09,0.08,0.06,0.24-.12h0l-0.31.06h0Zm0-.31,0.26,0.23-0.31.06,0.05-.29h0Zm-0.07.27,0-.2-0.06.18,0,0h0Zm0,0.08v0.08l-0.08,0,0.07-.12h0Zm0,0h0l0,0v0h0Zm-0.19-.27,0.25-.1,0,0-0.08.26-0.19-.18h0Zm-0.06,0h0l0.07,0.14,0.17,0.06-0.22-.21h0Zm0-.12,0.07,0.07,0.25-.1h0l-0.32,0h0Zm0,0.08,0,0h0v0h0Zm0,0-0.08.11,0.12,0,0,0,0,0h0Zm-0.06-.06-0.17-.08,0,0.08h0.14Zm-0.23-.24,0.05,0.15,0.16,0.08-0.2-.23h0Zm0,0h0v0.09l0.09,0-0.05-.14h0Zm0,0h0v-0.05h0l0,0h0Zm0.1-.4-0.11.27h0.31l-0.21-.27h0Zm-0.31,0,0.15,0.22,0.13-.24,0,0-0.26,0h0Zm-0.07,0,0.17,0.25-0.15-.09,0-.15h0Zm0,0h0v0l0,0h0Zm0-.15h0l0.08-.11-0.07.13h0Zm0,0.08-0.09.1,0.12,0v0l0,0h0Zm0-.07L587.4,486v0.08l0.13,0h0Zm-0.17-.28h0l0.15,0.27L587.4,486l0-.16h0Zm-0.14,0h0.08l0-.08-0.1.09h0Zm0.09,0,0,0.08,0.08,0.06,0-.15h0Zm0,0h0v-0.05h0v0h0Zm-0.12-.45,0.11,0.25,0.17-.21,0,0h-0.26Zm-0.07,0h0v0.16l0.13,0.12-0.12-.28h0Zm0,0h0v0h0Zm0,0v-0.08l-0.1.08h0.12Zm-0.08-.46,0.26,0,0,0-0.19.19-0.09-.27h0ZM587,485v0.09l0.12,0.05L587,485h0Zm0-.67,0.06,0.28,0.21-.18v0l-0.26-.05h0Zm-0.08,0,0,0.16,0.1,0.14-0.07-.3h0Zm0-.11-0.11.06,0.11,0v-0.08h0Zm-0.1-.24,0,0.09,0.1,0.07h0l-0.08-.16h0Zm0-.19,0,0.06,0.05,0.1,0-.15h0Zm0,0-0.06,0,0.11,0,0,0.07h0Zm0-.7,0-.31h0l-0.06.16,0,0.16h0Zm0,0.22h0l0,0.16,0.06,0.15V483.3h0Zm0,0v-0.08l-0.11,0,0.1,0h0Zm0,0h0v0h0Zm0-.17,0-.17,0,0.09,0.08,0.09h0Zm0-.34,0,0-0.05.05,0,0.11,0.05-.15h0Zm0-.06v0h0l0,0v0h0Zm0,0h0Zm0,1v0h0v0h0Zm0,0v0h0l0,0h0Zm0.05,0.34,0-.3h0l0,0.16,0.08,0.15h0Zm0-1.58,0.05-.31h0l-0.07.15,0,0.16h0Zm0.32,0c0,0.11,0,.22,0,0.32l-0.23-.22,0.28-.1h0Zm-0.24-.66,0,0.08,0.06,0.1h0v-0.17h0Zm0.09-.16,0,0-0.06,0v0.12l0.08-.14h0Zm0,0v0l0,0,0,0v0h0Zm0.25,0.28,0,0.06-0.28.06,0.08-.31,0.22,0.18h0Zm0,0-0.19-.26,0,0.09,0.22,0.18h0Zm0.11-.34-0.3,0,0.19,0.26c0-.11.07-0.21,0.11-0.31h0Zm-0.12-.42,0.17,0.28h0l-0.2-.21,0-.09h0Zm0-.11,0-.17-0.07.08,0,0.1h0Zm0.16-.31h0l-0.12.13,0,0.16,0.14-.28h0Zm0,0h0v0h0v0h0Zm0.2,0.32-0.18-.23-0.15.3h0.3l0-.06h0Zm0,0h0l-0.18-.23,0-.08,0.15,0.3h0Zm-0.13-.44,0.17-.27h0l-0.13.12,0,0.15h0Zm0.37,0-0.16-.26-0.18.28,0.31,0,0-.05h0Zm-0.1-.35,0.12,0.32h0l-0.16-.25,0-.07h0Zm0-.12,0.06-.16-0.09.07v0.1h0Zm0,0,0.2-.26h0l-0.14.11-0.06.15h0Zm0.39,0.05h0l-0.14-.27,0-.06,0.09,0.34h0Zm0.25-.28-0.32-.08,0.09,0.33,0.23-.26h0Zm-0.3-.19,0.23-.24-0.15.1-0.08.14h0Zm0.36,0.12-0.11-.29-0.24.25,0.31,0.09,0,0h0Zm0,0h0l-0.06-.34,0,0.05,0.11,0.29h0Zm0.29-.12q-0.18.16-.34,0.33l3.12,2.81,0,0-2.81-3.12h0Zm0.08-.23-0.08-.3,0.05,0,0,0.34h0Zm0,0,0.28-.21-0.31-.14,0,0.35h0Zm-0.07.21,0.37-.3,2.46,3.39,0,0-2.81-3.12h0Zm-0.39,7h0c0.11,0.12.22,0.23,0.33,0.33l2.84-3.16,0,0-3.15,2.84h0Zm-0.15,0,0.23,0.26-0.31,0,0.08-.28h0Zm0,0.08-0.07.16,0,0,0.05-.18h0Zm3.3-3-3.44,2.5a4.55,4.55,0,0,0,.3.37l3.16-2.84,0,0h0Zm-3.73,2.07h0c0.08,0.14.17,0.27,0.26,0.4l3.44-2.5,0,0-3.68,2.12h0Zm0.09,0.36h0l-0.26,0-0.06-.09,0.31,0h0Zm-0.19-.31-0.14.25,0.31,0c-0.06-.09-0.12-0.19-0.18-0.29h0Zm0-.07-0.26,0,0.13,0.24,0.15-.23,0,0h0Zm0,0h0l-0.26,0-0.05-.09,0.31,0.06h0Zm-0.26-.89c0,0.15.11,0.3,0.17,0.44l3.89-1.73v0l-4,1.31h0Zm0,0.44h-0.25l0-.1,0.3,0.09h0Zm-0.19-.95c0,0.15.08,0.31,0.12,0.46l4-1.31v0l-4.16.88h0Zm-0.28.36,0,0.1,0.26,0h0l-0.29-.12h0Zm0-.06h0l0,0,0,0h0Zm0.29,0.15L587,484.7l0.21-.2c0,0.11,0,.21.08,0.32h0Zm4.14-1.41-4.23.45a4.68,4.68,0,0,0,.07.47l4.16-.88s0,0,0,0h0Zm-4.26,1h0l-0.26-.05,0-.1,0.28,0.14h0Zm0-1.56,4.22,0.44s0,0,0,0h-4.24a4.35,4.35,0,0,1,0-.48h0Zm-0.29-.79v-0.16l0.09-.15h0l-0.09.3h0Zm0,0.13,0.21,0.24h0l-0.23-.16,0-.1h0Zm0.22,0.21h0c0-.11,0-0.21.08-0.32l-0.29.08,0.21,0.24h0Zm0,1h4.25v0l-4.23.44c0-.16,0-0.31,0-0.47h0Zm0.11-1,4.15,0.88a0.15,0.15,0,0,0,0,0l-4.22-.44a4.57,4.57,0,0,1,.07-0.47h0Zm0.14-.5,4,1.31v0l-4.14-.88c0-.16.08-0.31,0.13-0.46h0Zm0.19-.48,3.86,1.72v0l-4-1.31c0.05-.15.11-0.3,0.17-0.44h0Zm-0.17.1h0l0.14-.3-0.31,0,0.17,0.29h0Zm0.4-.56c-0.08.14-.15,0.28-0.22,0.42l3.85,1.72,0,0-3.65-2.11h0Zm-0.19.1-0.14-.3,0.31,0-0.17.29h0Zm0,4.39h0c0.07,0.14.14,0.28,0.22,0.42l3.68-2.12v0l-3.89,1.73h0Zm0.52-4.93,3.4,2.47,0,0-3.65-2.11c0.08-.14.17-0.27,0.26-0.4h0Zm-0.22.11-0.12-.32,0.32,0-0.2.27h0Zm0.55-.51c-0.11.12-.21,0.24-0.3,0.37l3.4,2.47,0,0L588.47,480h0Zm-1.35,4-0.23.18,0.28,0.14c0-.11,0-0.21,0-0.32h0Zm-0.26.3h0v0h0Zm0-.47,0.25,0.08V484l-0.23.16,0-.29h0Zm0.25,0-0.27-.17v0.11l0.25,0.08v0h0Zm0-.36-0.25.15,0.26,0.17c0-.11,0-0.22,0-0.33h0Zm0-.09s0,0,0,.06l-0.25.14v-0.3l0.25,0.11h0Zm0,0-0.25-.2v0.1l0.25,0.11h0Zm0-.36-0.26.13,0.25,0.2v0c0-.1,0-0.2,0-0.3h0Zm-0.24-.26,0.24,0.13s0,0,0,0l-0.23-.22v0.1h0Zm0.24,0.16-0.24-.13,0,0.3,0.26-.11s0,0,0-.06h0ZM587,484.82v0h0Zm0,0h0V485l0.11,0.13-0.09-.29h0Zm0.17,0.31,0.05-.06-0.05.05h0Zm0.19-.19-0.18.22,0.3,0.09c0-.1-0.08-0.21-0.11-0.31h0Zm0.18,0.45c0,0.1.09,0.2,0.15,0.3l-0.31-.06,0.16-.24h0Zm-0.16.36h0v0h0Zm0-.15h0l0.07-.08-0.06.1h0Zm0.58,1,0,0v0h0Zm0-.1h0.32l-0.25.07-0.07-.08h0Zm0.25,0.39h0Zm-0.17-.29,0.26-.07,0,0-0.11.25-0.17-.2h0Zm0.82,0.34h0l0.37,0.3,2.5-3.44,0,0L588.85,487h0Zm0.47,0.51-0.28-.21,0,0.3,0.3-.09h0Zm0.44-8.69v-0.3l0,0,0,0.32h0Zm0.86-.21,1.29,4h0l-1.7-3.82,0.44-.17h0Zm0-.11-0.27-.23-0.07.36,0.34-.12h0Zm-0.23-.24,0.05,0.05-0.06-.05h0Zm0-.07,0.14-.08H590.4l0,0.08h0Zm0.32-.1-0.3.09,0.13-.08,0.16,0h0Zm0,0-0.18,0,0.1-.06h0l0.07,0h0Zm-0.1.41h0l0.06,0,0.05-.33-0.35.11,0.24,0.24h0Zm0.5,0,0.87,4.09h0l-1.29-4,0.46-.12h0Zm0-.1-0.25-.26-0.1.35,0.35-.09h0Zm-0.13-.18-0.09-.09h0l0.08,0.09h0Zm0.68,0.2,0.44,4.16h0l-0.87-4.09,0.47-.07h0Zm0.49,4.15v-4.18l-0.44,0,0.44,4.16h0Zm0.08,0,0.44-4.16-0.46,0h0v4.18h0ZM592,488.69h0.31l-0.16.07L592,488.7h0Zm0.15-.31-0.12.25h0.25l-0.12-.25h0Zm-0.48-.14,0.47,0V484h0l-0.44,4.23h0Zm0,0.11-0.14.23,0.24,0-0.09-.26h0Zm-0.25.22h0.08l0.13-.22-0.21.21h0Zm0,0.08h0v0h0Zm0,0h0Zm0.38,0h0Zm0-.07h0.07l-0.15-.24,0.09,0.24h0Zm0.17,0.07h0Zm0-.06H592l0.11-.23-0.18.23h0Zm0.41,0.06h0Zm0-.06h0.08l-0.18-.23,0.11,0.23h0Zm-0.11-.36h0V484h0.06l0.44,4.23-0.49,0h0Zm0.44,0.09-0.09.26,0.25,0-0.14-.24h0Zm-0.15.33h0Zm0-.07h0.07l0.09-.23-0.15.24h0Zm0.37,0h0.08l-0.21-.22,0.13,0.22h0Zm0,0.06h0Zm0,0h0v0h0Zm-0.57-6.09,0.87-4.1-0.47-.07-0.44,4.16h0Zm1.1-4.36,0.08-.1h0l-0.1.1h0Zm-0.12.17h0l0.35,0.09-0.1-.36-0.25.27h0Zm0.4,0.22-0.46-.12-0.87,4.09h0l1.3-4h0Zm0.3-.35-0.35-.11,0.05,0.34,0.05,0,0.24-.25h0Zm-0.34-.17,0.18,0-0.1-.06h0l-0.08,0h0Zm0.32,0.1-0.13-.08h-0.16l0.3,0.09h0Zm0,0h0l0-.08h-0.13l0.14,0.08h0Zm0.06,0.08-0.27.24,0.34,0.13-0.07-.37h0Zm-0.1.05,0.06-.06h0l-0.07.06h0ZM593.1,478l0.3,0.06-0.14-.06H593.1Zm0.33,0.13-0.36-.07,0.09,0.33h0.06l0.22-.27h0Zm-0.9-.13,0.12,0.32h0.06l0.19-.29-0.37,0h0Zm0,0.21-0.08-.21h0l0.11,0.21h0Zm0-.27,0.17,0-0.11,0h0l-0.07.05h0Zm0.33,0-0.31,0,0.16,0,0.15,0h0Zm0.08,0.07h0l-0.09.14,0.11-.14h0Zm-0.05-.07h0l-0.06-.07h-0.13l0.16,0.05h0Zm-0.51,0-0.09.18,0.12-.18h0ZM592,477.9h0.31l-0.15,0-0.15,0h0Zm0,0.24-0.09-.17h0l0.11,0.17h0ZM592,478l0.16,0.31h0.05l0.16-.31H592Zm-0.49.19-0.1-.13h0l0.09,0.14h0Zm-0.06-.14,0.37,0-0.12.32h-0.06l-0.19-.29h0Zm0-.06,0.16-.05h-0.13l-0.06.07h0Zm0.33,0-0.31,0,0.15-.05,0.16,0h0Zm0.06,0.06-0.08.21,0.11-.22h0Zm0-.06h0l-0.07-.05h0l-0.11,0,0.17,0h0Zm-0.9.14,0.3-.06h-0.16l-0.14.06h0Zm0.33,0-0.36.08,0.21,0.27h0.06l0.09-.33h0Zm-1.36.36,0.29-.12-0.16,0-0.12.09h0Zm0.32-.07-0.33.14,0.26,0.21,0.06,0,0-.33h0Zm-0.37.16h0l0,0h0Zm0.25,0.22-0.28-.2,0,0.36,0.32-.16h0Zm-0.36-.23h0Zm0.39,0.34,1.7,3.82,0,0L589.71,479l0.42-.21h0Zm-0.49.12-0.3.18v-0.36l0.3,0.18h0Zm-0.12-.39-0.11.1,0.28-.15-0.17,0h0Zm-0.13.12h0l0-.09,0.12,0-0.12.11h0Zm-0.07.45v-0.34l0,0,0,0.3h0Zm0.35-.06-0.4.25,2.46,3.39,0,0L589.68,479h0Zm-0.86,0h0Zm-0.28.25,0.25-.21-0.16.08-0.09.13h0Zm0.27-.15-0.27.23,0.3,0.12,0,0-0.08-.31h0Zm-0.78.66h0l0,0v0h0Zm0,0.1-0.21.27,0.31,0.06,0,0L588,479.9h0Zm-0.86,1.29h0l0,0h-0.1l0.07,0.07h0Zm0,0.08,0.2,0.21,0,0.06-0.3,0,0.12-.3h0Zm-0.36.94h0Zm0.05,0.07-0.05.31,0.27-.09v-0.06l-0.23-.16h0Zm2.56,5.7h0Zm0,0,0,0v0h0Zm0.72,0h0l-0.15.08,0,0,0.1-.09h0Zm-0.06-.15,0.44,0.17,1.31-4h0l-1.73,3.88h0Zm-5.8,1.73-0.62-.09-0.1,0v-0.32l0.19,0.1,0.57,0.26,0.18,0.07h-0.23Zm-0.72,0h0v0h0Zm-0.1-.13-0.44-.11-0.19-.07v-0.51l0.36,0.21,0.26,0.14v0.35h0Zm0,0.13v0l-0.5-.13-0.13-.05v0.23h0.63Zm-0.72-.35-0.33-.13-0.29-.16v-0.66l0,0,0.52,0.35,0.08,0v0.53h0Zm0,0.37V489.3l-0.39-.15-0.23-.13v0.55h0.63Zm-0.71-.71-0.19-.1-0.44-.31v-0.77l0.24,0.21,0.38,0.29,0,0.68h0Zm0,0.71V489l-0.26-.14-0.37-.26,0,1h0.63Zm-0.71-1.19h0l-0.49-.44-0.13-.15,0-.77,0,0,0.46,0.43,0.14,0.12,0,0.78h0Zm0,1.19,0-1.07-0.08-.06-0.5-.45,0-.06,0,1.63h0.64Zm-0.69-1.89-0.22-.25-0.38-.55,0-.06v-0.6l0.31,0.37,0.32,0.33v0.76h0Zm0,1.89,0-1.74-0.3-.35L580,487,580,489.57h0.64Zm-0.68-2.93-0.18-.36-0.24-.63,0-.18,0.08,0.12,0.39,0.51h0v0.53h0Zm0,0.29v-0.06h0l-0.27-.53-0.24-.64-0.14-.6v0.35l-0.06.23-0.06,3.9h0.74l0.05-2.64h0Zm-3.14-3.46h0l0-.57,0,0.57h0Zm-0.33,6.45-0.09,0,0.08-.16h0v0.12h0Zm0,0.25-0.1.21-0.14-.1,0.12-.26,0.12,0v0.19h0Zm-0.43,0,0.14,0.1,0.09-.19-0.23.09h0Zm-0.09-.07,0,0,0.32-.13,0.07-.16L576,490l0,0.1h0ZM575.8,490l0,0,0.12-.25,0.12,0-0.14.31-0.05,0h0Zm-0.12-.09-0.1-.07,0.17-.07-0.07.14h0Zm-0.24-.17,0.09,0.06,0.25-.1,0.06-.12-0.39.16h0Zm0.12-.35-0.15.31,0.44-.17-0.29-.14h0Zm-0.28.24,0.09-.2,0.06,0-0.12.25,0,0h0Zm-0.19-.14,0.18-.07,0-.08-0.28.11,0.06,0h0Zm0.11,0.08-0.06,0,0.1,0,0,0.08h0Zm-0.31-.22L575,489.4l0.35-.14-0.33-.16-0.11.23h0Zm0.54,0,0,0-0.06,0,0,0h0Zm0.53,0.24,0.07,0-0.11,0,0-.08h0Zm0.17,0.08-0.13.27,0.38-.15-0.25-.12h0Zm-1.56-.53-0.2-.14,0.06-.12L574.8,489l-0.23.09h0Zm0.19,0,0,0-0.17.07,0,0,0.11,0h0Zm0,0.09,0,0h0v0h0Zm-0.43-.3,0,0,0.06,0,0,0h0Zm-0.43-.31v0l0.42,0.19-0.11,0-0.31-.22h0ZM569.59,490l-0.1,0v-0.18l0.1,0.22h0Zm0.14-.32-0.19.09,0.28,0.11-0.09-.2h0Zm0.33,0.08,0.08,0.17-0.07,0-0.1,0-0.12-.26,0.21,0.08h0Zm-0.09-.19-0.12.05,0.18,0.07-0.06-.12h0Zm0.32-.15,0.11,0.24-0.34-.14,0.23-.11h0Zm0.28,0.06,0.05,0.11-0.1.07-0.12-.25,0.16,0.06h0Zm-0.07-.16,0,0.09-0.12,0,0.08,0h0Zm0.36-.17,0.1,0.2-0.06,0-0.3-.12,0.27-.12h0Zm0.22,0,0,0.06-0.06,0-0.07-.14,0.11,0h0Zm-0.06-.11,0,0-0.07,0,0,0h0Zm0.4-.19,0,0.1-0.17.12-0.19-.08,0.31-.14h0Zm-0.23.29,0.06,0-0.11,0,0,0.08h0Zm-0.44.31,0.09-.06-0.23-.09,0.06,0.12,0.08,0h0Zm-0.44.31,0.12-.08h0l-0.34-.14,0.08,0.16,0.15,0.06h0Zm-0.09.06,0-.05,0.06,0,0,0h0Zm-0.35.25,0,0-0.07-.15-0.28-.11,0.09,0.2,0.22,0.09h0Zm-0.13.09-0.05-.11,0.13,0.05-0.08.06h0Zm-0.25.18,0,0V490l0.14,0.05,0.08,0.18-0.2.14h0Zm2-1.5,0,0h0l0,0h0l0-.05h0Zm0.42-.25-0.25.18-0.07,0,0.32-.15h0Zm-5.94.94L566,486.93v-0.06h0l0.27-.52,0.24-.63,0.14-.6v0.35l0.06,0.23,0.06,3.88H566ZM566,486.12h0v0.52l0.18-.34,0.23-.63,0-.16-0.07.11-0.38.5h0Zm-0.66,3.45,0-1.73,0.3-.34,0.31-.46,0.06,2.54H565.3Zm-0.06-2.63,0,0.75,0.21-.24,0.37-.55,0-.06v-0.59l-0.3.36-0.31.33h0Zm-0.67,2.63,0-1.07,0.08-.06,0.49-.45,0,0,0,1.62h-0.62Zm0-2,0,0.77h0l0.49-.44,0.13-.15,0-.76,0,0-0.45.43-0.14.12h0Zm-0.68,2V489l0.25-.14,0.36-.26,0,1h-0.62Zm0-1.38,0,0.68,0.18-.1,0.43-.31,0-.76-0.24.2-0.38.29h0Zm-0.69,1.38v-0.27l0.39-.15,0.23-.12v0.55h-0.62Zm0-.89,0,0.53,0.32-.13,0.29-.16v-0.65l0,0-0.51.35-0.08,0h0Zm-0.7.89v-0.05l0.49-.13,0.12,0v0.23h-0.62Zm0-.48v0.34l0.43-.11,0.18-.07v-0.51l-0.35.21-0.26.14h0Zm-0.24.48,0.1,0h0v0h-0.15Zm-0.79,0h0.22l0.61-.08,0.1,0v-0.32l-0.19.1-0.56.26-0.17.07h0Zm25.26-5.42h0Zm0-1.35h0Zm0,0.28v0h0v0h0Zm11.17-.27h0Zm0,0.26v0h0ZM521,488.17V488.1h0.08l-0.08.07h0Zm-14.68,1.34H505.9v-0.64h0v0h0v-0.08l0-.08,0-.07,0.07-.05h0.06l0.07,0,0.06,0,0,0.06,0,0.07v0.07h0v0h0v0.6h0v0.05h0Zm-1,0h-0.8v-0.08h0v-1h0v0l0,0v-0.09l0-.11,0.07-.09,0.09-.07,0.11,0,0.12,0,0.12,0,0.11,0,0.09,0.07,0.07,0.09,0,0.11v0.08l0,0v0h0v1h0v0.08h0Zm-1.34,0h-0.43v-0.05h0v-0.6h0v0h0v-0.07l0-.07,0-.06,0.06,0,0.07,0h0.07l0.07,0.05,0,0.07,0,0.08v0.08h0v0h0v0.64h0Zm-10.91,0v-1.3h0v-0.07h0v-0.22h0v-1h0v-0.21h0v0h0v-0.13h0v-0.37l0.56-.53,0.06,0.05,0,0h0l0,0,0.09,0.08,0.06,0.06,0.11,0.1,0.17,0.16v0.38h0v0.12h0v0h0v0.21h0v1.27h0v0.07h0v1.31h-1.12Zm-23.53-.57v-0.5h0v-0.07h0V488.3l0-.07,0-.06,0.06,0,0.07,0h0v0.18l0.07,0.07h0.06l0.07-.07V488.1h0l0.07,0,0.06,0,0,0.06,0,0.07v0.07h0v0.07h0v0.5h-0.67Zm40.05-6.11,0,0,0,0v-0.13l0,0,0,0h-0.11l0,0,0,0v0.13l0,0,0,0h0.11Zm-1.56.08h0.05l0,0,0,0v-0.13l0,0,0,0H508l0,0,0,0v0.13l0,0,0,0h0.06Zm-66.9,7.31L439,490v-2a1.09,1.09,0,0,1,2.17,0v2.25h0Zm-8-6.38-0.53-.27a0.69,0.69,0,0,0,.19-0.51,0.82,0.82,0,0,0-.05-0.3,1.91,1.91,0,0,1,.44.16c0,0.33,0,.64,0,0.91h0Zm-1.58,0c0-.26,0-0.57,0-0.89a1.58,1.58,0,0,1,.58-0.21,0.85,0.85,0,0,0-.06.33,0.74,0.74,0,0,0,.14.46l-0.62.31h0ZM455.67,481s0,0,0,0,0,0.29,0,.43v0c-0.26,0-.53,0-0.76,0l0.74-.47h0Zm0.37,0.45c0-.14,0-0.28,0-0.43s0-.07,0-0.11a1.58,1.58,0,0,1,.86.27,0.06,0.06,0,0,1,0,.05l0,0a1.81,1.81,0,0,1-.87.21v0h0Zm-33.07,10h0Zm-89.69-2.68v1.35h-0.45v-1.35h0.45Zm0.85,0v1.35h-0.53v-1.35h0.53Zm0.84,0v1.35h-0.55v-1.35H335Zm297.49,2.69H661.6v-0.29l-0.12-.12v-0.27l0.19-.28,0.24-.25,0.28-.2,0.31-.15,0.33-.09,0.34,0,0.34,0,0.33,0.09,0.31,0.15,0.28,0.2,0.24,0.25,0.19,0.28V491l-0.12.12v0.29h1.75v-0.29L666.4,491v-0.27l0.19-.28,0.24-.25,0.28-.2,0.31-.15,0.33-.09,0.34,0,0.34,0,0.33,0.09,0.31,0.15,0.28,0.2,0.24,0.24,0.19,0.28V491l-0.12.12v0.29h1.75v-0.29l-0.12-.12v-0.27l0.19-.28,0.24-.25L672,490l0.31-.15,0.33-.09,0.34,0,0.34,0,0.33,0.09L674,490l0.28,0.2,0.24,0.24,0.19,0.28V491l-0.12.12v0.29h1.75v-0.3l-0.12-.12v-0.27l0.19-.28,0.24-.25,0.28-.2,0.31-.15,0.33-.09,0.34,0,0.34,0,0.33,0.09,0.31,0.15,0.28,0.2,0.24,0.24,0.19,0.28V491l-0.12.12v0.3h-47Zm-165.4,0H585.39v-1.6h-6.12l0,1.19,0,0v0.38h-2.84v-1.14l-0.07.15-3.11-2.21,0.07-.16,0.25,0.12,0.25,0.12,0.25,0.12,0.25,0.12,0.25,0.12,0.25,0.12,0.25,0.12,0.25,0.12,0.25,0.12,0.25,0.12,0.25,0.12,0.25,0.12,0.12,0.05h0.09l0-3.71-0.05-.21v-0.45h-7.18v0.45l-0.05.21h0l0,3.7h0l0.09,0,0.25-.12,0.25-.12,0.25-.12,0.25-.12,0.25-.12,0.25-.12,0.25-.12,0.25-.12,0.25-.12,0.25-.12,0.25-.12,0.25-.12h0l0,0,0,0h0l0.07,0.15-2.88,2h0l0,0-0.24.17v1h-2.93v-0.39l0,0,0-1.18h-5.41v1.62H467.06Zm-48-5.51h0Zm-1.62,0h0ZM412,489.46h-0.48v0h0v-0.61l0-.06,0,0,0,0,0.06,0h0.12l0.06,0,0,0v0.09l0.06,0.08v0.55h0v0h0Zm-1.86,0h0.08V488.9h0v-0.05l0-.06,0,0,0,0,0.06,0h0.13l0.06,0,0.05,0,0,0,0,0.05v0.63h-0.56Zm-0.57,0h0V488.9h0l0-.09v0l0,0,0.05,0,0.06,0h0.13l0.06,0,0.05,0,0,0,0,0.06v0.62h-0.49Zm-0.09,0v0h0Zm1.41-.63,0-.06,0,0,0.05,0,0.06,0h0.13l0.06,0,0,0,0,0v0l0,0.08v0.59h-0.47v-0.62h0Zm-3,.63h-0.11v-0.76l0,0,0,0.07v0.65h0Zm-0.3,0h-0.29v0h0V488.9h0.08v0.55h0.13v-0.56h0.09v0.57h0Zm-0.7,0h-0.51V488.8l0-.08,0.05-.07,0.07-.05,0.06,0h0l0.08,0,0.07,0.05,0,0.07,0,0.08v0.65h0Zm-0.81,0h-0.54V488.8l0-.08,0.05-.07,0.07-.05,0.06,0h0.07l0.08,0,0.07,0.05,0.05,0.07,0,0.08v0.65h0Zm-0.81,0h-0.57V488.8l0-.08,0.05-.07,0.07-.05,0.06,0H405l0.08,0,0.07,0.05,0,0.07,0,0.08v0.65h0Zm-0.77,0h-0.37v-0.57h0.37v0.57h0Zm-0.55,0h-0.6V488.8l0-.08,0.05-.07,0.05,0,0.06,0h0.16l0.07,0,0.06,0,0,0.06,0,0.08v0.65h0Zm-0.69,0h-0.62v-0.65l0-.08,0-.06,0.06,0,0.07,0H403l0.07,0,0.06,0,0,0.06,0,0.08v0.65h0Zm-1.31,0v-0.65l0-.08,0-.06,0.06,0,0.07,0h0.16l0.07,0,0.06,0,0,0.06,0,0.08v0.66h-0.61Zm-0.54,0v-0.57h0.37v0.57H401.4Zm-0.78,0v-0.65l0-.08,0-.07,0.07-.05,0.08,0H401l0.05,0,0.07,0.05,0.05,0.07,0,0.08v0.66h-0.58Zm-0.81,0v-0.65l0-.08,0-.07,0.07-.05,0.08,0h0.08l0.06,0,0.07,0.05,0.05,0.07,0,0.08v0.66h-0.55Zm-0.81,0v-0.65l0-.08,0.05-.07,0.06-.05,0.08,0h0.06l0.06,0,0.07,0.05,0.05,0.07,0,0.08v0.66H399Zm-0.81,0v-0.64l0-.07,0-.06,0.06,0,0.07,0h0l0.07,0,0,0.06,0,0.07v0.62h0v0h-0.41Zm-0.18,0v-0.65l0-.07,0,0v0.76H398Zm-15.9,0H382v-0.72l0,0,0,0.08v0.61h0Zm-0.18,0h-0.42v-0.6l0-.07,0-.06,0.06,0,0.08,0h0l0.06,0,0,0.06,0,0.07v0.64h0Zm-0.64,0h-0.52v-0.6l0-.07,0-.06,0.06,0,0.07,0h0.08l0.06,0,0,0.06,0,0.07v0.07l0.09,0v0.54h0Zm-0.73,0H380v-0.6l0-.07,0-.06,0.06,0,0.07,0h0.07l0,0,0.06,0,0,0.06,0,0.07v0.07l0.09,0v0.54h0Zm-0.74-.05v0.05h-0.57v-0.6l0-.07,0-.06,0.06,0,0.07,0h0.14l0.06,0,0,0.06,0,0.07v0.07l0.07,0v0.48h0Zm-0.75,0v0.05h-0.57v-0.6l0-.07,0-.06,0.06,0,0.07,0h0.18l0.05,0,0,0.06,0,0.07v0.07l0,0v0.48h0Zm-0.94.05h-0.5v-0.62l0-.06,0-.06,0.05,0,0.06,0h0.13l0.06,0,0.05,0,0,0,0,0.05v0.63h0Zm-1.17,0v-0.53l0,0v-0.07l0-.07,0-.06,0,0,0.05,0h0.13l0.06,0,0.05,0,0,0.06,0,0.07v0.6h-0.5Zm-0.66,0v-0.53l0.05,0v-0.07l0-.07,0-.06,0.05,0h0.14l0.06,0,0.05,0,0,0.06,0,0.07v0.6h-0.5Zm-0.94,0v-0.53l0.09,0v-0.07l0-.07,0-.06,0.06,0,0,0h0.09l0.07,0,0.06,0,0,0.06,0,0.07v0.61h-0.56Zm-0.73,0v-0.54l0.09,0v-0.07l0-.07,0-.06,0.06,0,0,0h0.06l0.07,0,0.06,0,0,0.06,0,0.07v0.61h-0.53Zm-0.72,0v-0.55l0.09,0v-0.07l0-.07,0-.06,0.06,0h0.06l0.07,0,0.06,0,0,0.06,0,0.07v0.61h-0.5Zm-0.72,0v-0.55h0.09v-0.07l0-.07,0-.06,0.06,0h0l0.07,0,0.06,0,0,0.06,0,0.07v0.61h-0.47Zm-0.55,0v-0.56h0.11v0.52h0.13v-0.47h0v0.53h-0.25Zm-0.11,0v-0.56h0v0.57h0Zm-0.22,0v-0.61l0-.07,0.06-.06h0l0,0v0.7h-0.15Zm18-9.4h0V480l0,0h0l0,0h0v0h0v0h0l0,0h-0.06v0h0v0.11h0l0,0h0v0.12h0v0h0v0h0Zm316,9.84a1.26,1.26,0,0,1,2,0,1.9,1.9,0,0,1,.41.82h-2.76a1.62,1.62,0,0,1,.36-0.86h0Zm1-4.37a7,7,0,0,0,.12.88H707.2a6.93,6.93,0,0,0,.12-0.88h0Zm0.49,2.77h-1c0.1-.45.17-0.83,0.23-1.14h0.51c0.06,0.32.14,0.7,0.23,1.14h0Zm4.49,0.06h0a0.72,0.72,0,0,1,.69.57v1.83h-1.44v-1.83a0.75,0.75,0,0,1,.72-0.57h0Zm-12.88,3.09h48.75l-14.74-2.75v-0.8h-2.31v0.75a10.39,10.39,0,0,0-1-.52v-1h-0.47v-1.09a1.15,1.15,0,0,0-.89-1.14v-0.66a4.69,4.69,0,0,0-.23-0.7,4.59,4.59,0,0,0-.23.7v0.65a1,1,0,0,0-.66.41h0v-0.75h0.11s0,0,0-.07v-0.08s0-.08,0-0.08h-0.1a1.7,1.7,0,0,0-1.3-1.52v-1a6.49,6.49,0,0,0-.26-1,6.45,6.45,0,0,0-.26,1v1a1.67,1.67,0,0,0-1.27,1.52h-0.1a0.07,0.07,0,0,0-.07.08v0.08a0.06,0.06,0,0,0,.07.07h0.11v0.74h0a1,1,0,0,0-.69-0.41v-0.65a4.61,4.61,0,0,0-.23-0.7,4.59,4.59,0,0,0-.23.7v0.66a1.13,1.13,0,0,0-.88,1.14v1.09H722v1.39c-0.21.12-.42,0.24-0.63,0.38v-1.36h-1.1V489h-1.56v0.23h-0.23v-0.46h0.06a0.1,0.1,0,0,0,.11-0.09v0a0.11,0.11,0,0,0-.11-0.12h-0.15l-0.89-1.23,0,0,1.73,1.19,0.33-.7-2-.57v0a0.19,0.19,0,0,0-.07-0.15l1.23-1.76-0.7-.33L717.38,487h-0.06a0.2,0.2,0,0,0-.14.06l-1.77-1.22-0.33.7,2.07,0.58a0.17,0.17,0,0,0,0,.07,0.19,0.19,0,0,0,.08.16l-0.83,1.19h-0.17a0.13,0.13,0,0,0-.13.12v0a0.12,0.12,0,0,0,.12.11l-0.18.28,0.29,0.13v1.58H716v-1.26h-1.27v-1.83h0.17v-0.23h-0.17v-0.52h0.06v-0.06h0.06v-0.12h-5v0.12h0.06v0.06h0.06v0.51h-0.17v0.23h0.17v3a6.18,6.18,0,0,1-.86-1.4v-1h-0.4a14.46,14.46,0,0,1-.48-1.48l0.21-.41h-0.32a28.05,28.05,0,0,1-.68-4.42,0.22,0.22,0,0,0,.17-0.21v-0.31a0.22,0.22,0,0,0-.15-0.21l-0.07-1-0.06,1a0.22,0.22,0,0,0-.18.21v0.31a0.22,0.22,0,0,0,.17.21,28.09,28.09,0,0,1-.68,4.42h-0.32l0.21,0.41a14,14,0,0,1-.48,1.48h-0.4v1a6.06,6.06,0,0,1-.95,1.5h-2.22l-3.37-3.94H699V486h0l0,0h0v0h0v0l-0.13-.12v-0.47l-0.06-.09v-0.14l-0.18-.36-0.18.34v0.14l-0.06.09v0.48l-0.12.11h0v0l0,0h0v0.05h0v0l-0.08-.12v-0.07l-0.39-.24v-0.36l0-.05v-0.1l-0.16-.23-0.17.22v0.1l0,0v0.37l-0.41.24V486l-0.17.24v0.6h-0.2V486h0l-0.08-.07h0l-0.1-.09v-0.46l-0.06-.09v-0.14l-0.19-.35-0.21.33v0.14l-0.07.08v0.48l-0.22.18h0l0,0.81h0l0,2.19h-0.25v-1.26l-0.19-.25,0,0-0.23-.07v0h0v-0.22h0v0.22h0v0l-0.18.07,0,0.08,0,0,0,0H694.4v-0.07h0l0-.06v-0.11l0,0,0.06,0-0.07,0,0,0,0,0v-0.09l0,0.06v0l0,0-0.1-.05,0,0-0.25-.11v0h0V487h0v0.17h-0.36V487h0v0.17h0v0l-0.26.1h0l0,0.05v0.06l-0.14.16h0l0-.06v-0.11l0,0,0.06,0-0.07,0,0,0,0,0v-0.09l0,0.06v0l0,0-0.1-.05,0.07,0.09,0,0.08,0,0,0,0v0.08l0,0.07h-0.14v0l0,0-0.05-.08-0.17-.07v0h0v-0.22h0v0.23h0v0l-0.24.07,0,0-0.2.25,0,1.27h-0.39v-2l-0.08-.07H691l0,0V485.3l0.16-.16V485l-0.15-.75V483.9h0v0.34l0,0.1h0V484h0v0.32l-0.09.48-0.26-1.12h0v-0.12h0v0.12h-0.28v-0.12h0v0.15L690,484.85l-0.1-.5V484h0v-0.1h0v0.35l-0.14.76v0.16l0.07,0.07,0.08,0.08v2.05h0l0-.35v-0.32h0V487h0l0,0.41h0v0.05H689.7v0.3h0.08V489h-0.47l0-1.42,0-.65h-0.66v0.21h-0.32l-0.17,0h-0.31l0,0h-0.3v-0.64l-0.16-.18,0-1.47,0.09-.09v-0.16l-0.11-.66-0.07.56-0.06-.4v-0.22l-0.1-.64-0.07.59-0.19-1.18-0.14,1.21-0.1-.6-0.08.64V484h0l0,0.32,0-.32-0.08.63v0.13l-0.13-.36h-0.27l-0.35.91v-0.5l0,0h0l0.06-.06v-0.16l-0.1-.65,0,0.25,0-.14h0v-0.15l-0.1-.63-0.08.61-0.16-1.2L685,483.88l-0.09-.63-0.08.63V484h0v-0.09l0,0.13v0l-0.08.62v0.15l0.09,0.08v1.4l-0.14.17v0.86l-0.06,0v1l0.06,0.48v0h0V489h0l0,0h-0.62v-1.73h0.06v0h0v0h0V487h0l-0.1-.13h0v-0.64h0v0l0.1-.15h0v-0.28h0l0-.05-0.07-.69h0V484.6h0.08l0,0,0.06,0h-0.13V485h0l-0.06.53h-0.13l-0.13-1.79h0v-0.39h0v0.39h-0.53v-0.39h0v0.39h0L683,485.51h-0.14l-0.06-.53h0V484.6h0.07l0,0,0.06,0h-0.12V485h0l-0.07.69,0,0h0V486h0l0.1,0.15v0h0V487h0v0.32h0v0.07h0V488h-0.11v-0.06h0v0H682.5V488h-0.13v-0.06h0v0h-0.16V488h-0.13v-0.06h0v0h-0.16V488h-0.12v-0.53l0.09-.06-0.11-.11v-0.07h0V487h0v0h0v-0.14h0v0h0v-0.1h0v0.1h-0.13l-0.23-1.15v-0.41h0v0.41h-0.58v-0.39h0v0h0v0.41h0l-0.23,1.15h-0.13v-0.1h0v0.1h0v0h0V487h0v0h0v0.15h0v0.06l-0.1.1,0.08,0.07v1.25h0v0h0v0h0v0.14h0v0h0v0H678v0h0v0h0v-0.28h0V489h0v0h0v0h-2.23v0h0v0h-0.2v0h-0.16v0h0v0h0v0h0v0h-2.26v0h0v0h0v-0.27h0V489h0v0h0v0h-2.23v0h0v0h-0.2v0h-0.16v0h0v0h0v0h0v0h-2.26v0h0v0h0v-0.27h0V489h0v0h0v0h-2.24v0h0v0h-0.2v0h-0.16v0h0v0h0v0h0v0h-2.26v0h0v0h0v-0.27h0V489h0v0h0v0h-2.25v0h0v0h-0.37v0h0v0h0v0h0v0h-1.26V487l-0.35-.48h-0.2l-0.09-.11-0.73,0-0.11-.11-0.08,0v-1.5l-0.58-1.3-3.47,0v-0.92l-0.19-1.58-0.17,1.57v0.92l-0.48,0,0,0.05H652.6v-0.92h0v0h0l-0.08-.08,0-.08,0.07-.09v-0.06l-0.13-.08V482.1l0,0v0l0,0v0l0,0v0l0,0h0v0.14l-0.12.09v0.06l0.07,0.09,0,0.06-0.05-.06-0.06-.2v-0.06l0.06-.06,0,0,0-.11-0.08-.11-0.09-.07v0l-0.06,0v-0.49h0l0,0,0-.09v-0.09l-0.1-.17v-0.34l0,0,0-.09v0l0,0-0.1-.49,0,0v0l0,0v0l0,0v0l0,0-0.1.48,0,0v0l0,0.09,0,0v0.34l-0.1.17v0.09l0,0.09,0,0h0v0.49l-0.16.11-0.08.11,0,0.12,0,0,0.06,0.06v0.06l-0.06.2-0.05.06,0,0,0-.08,0.08-.09v-0.06l-0.13-.09,0-.15h0l0,0v0l0,0,0-.17V482l0,0v0l0,0h0v0.15l-0.13.09,0,0.06,0.08,0.09,0,0.09-0.08.08h0v0h0v1h-0.6l-0.46-2.21-0.41,2.22h-0.1l-0.53-2.52-0.69,3.75,0,2,0,1.49V489H648V488.7l-0.21-.15-0.07,0,0-.58,0-.66,0-1.16h-0.15V486h0l-0.15-.3-0.19-.13h0v-0.24l0,0.24-0.06,0h0l-0.07,0-0.12.1-0.09.13,0,0.06-0.1-.17-0.13-.08h0v0l-0.05,0-0.06,0-0.07.06,0,0-0.07.1,0,0.11H645l-0.09-.3h-0.1l0,0.05v-0.52h-0.06l0-.29h0V485h0l0,0.12,0-.11-0.07-.15-0.18-.19,0,0v-0.44l0-.14-0.1-.1v-0.1h0v0h0v0.1l-0.1.1,0,0.14v0.44l0,0-0.18.19-0.07.15,0,0.1V485h0V484.9h0l0,0.29h-0.06v0.52l0-.05h-0.1l-0.1.3h-1.15l-0.11-.22-0.16-.11h0v0l-0.06,0,0,0-0.1.08-0.05.09v0l-0.15-.24-0.17-.11h0v0h0l-0.06,0h0l-0.07,0-0.1.08-0.09.14-0.05.14h0v0.17H640.6l0,1.12v1.2l-0.06,0-0.18.13v-0.15h0l-0.11-.06v-1.3h-0.05v-1.73h0l0,0-0.09,0h0v-1.06h0v-0.1H640l0-.48h-0.1v-0.09l-0.06-.35v0.12l0-.14v0h0l-0.27-1.41v-0.13h0.06v0h-0.06v-0.07h-0.07v0.06h-0.07v0h0.07v0.14l-0.22,1.39h0v0l0,0.26v0h0l0,0.19H639v0.48h0v0.16h0v0.11h0v0.87h-0.36v-0.08h0v-0.4h0l0-.1h0v0l-0.11-.42,0,0.17h0v0.07h-0.06v0h0.05l0,0.16v0h0l0,0.1h0v0.4h0l0,0.09h-0.36v-1h0v-0.16h0v-0.45h-0.11l0-.3v0l0-.17v-0.06h0l-0.24-1.39v-0.14h0.05v0h-0.05v-0.06h-0.07v0.07h-0.05v0h0.05v0.13L637,483.18h0v0l0,0.12,0-.11-0.06.35v0.11h-0.1l0,0.45h-0.06v1.16h0l-0.06,0,0,0h0v1.73h0v1.1h0v0.21l-0.05.06V489h-1.07v-0.9l0.06,0V487.8H635.4v0h0v0h-0.05V487.8H635.2v0.06h0v0h-0.05V487.8H635v0.06h0v0h0v-0.1h-0.06v-0.15h-0.1v0h0v0h0v0h0v0h0v-0.4h0v-0.07h0l0-.09-0.07-.41h0l-0.07.41v0l-0.21,0-0.09-.36h0l0-.09h0l0,0.09h-0.21v-0.14h0l0-.1h0V486l0,0,0-.09-0.07-.4h0l-0.07.4,0,0.09,0,0v0.39h0l-0.05.1h0v0.14h-0.11v-0.07h0v0.07h-0.06l-0.1.4-0.18,0-0.06-.34h0v0l0-.17h0l-0.08.41,0,0.09h0v0.49h0v0h0v0h0v0.23h0V487.8h-0.11v0.1h0v0H633V487.8h-0.11v0.1h0v0h0V487.8h-0.11v0.1h0v0h0v0h-0.12v0.33l0.06,0V489l-0.05.49H630.2V486.6h0.07v-0.06h-0.18l0-.05-0.05-.07-0.06,0v-0.16H630v0h-0.06v-0.8H630v-0.06h-0.15V485.1h0V485h0v0h0l0,0,0,0,0,0,0,0,0,0,0,0,0,0,0,0V484.6h0v0h-0.08v-0.17h0v0h0v-0.18h0v0h0V484h0v0h0v-0.05h0v0h0v0h0v0h-0.12v0h0v0h0v0.06h0v0h0v0h0v0.14h0v0h0v0.2h0v0h0v0.17H629v0h0v0.16l0,0,0,0,0,0,0,0,0,0,0,0,0,0,0,0h0v0h0v0.05h0v0.21h-0.15v0.06h0.06v0.79h-0.06v0h0.06v0.18h0l-0.06,0,0,0.06,0,0h-0.17v0.06h0.07v0.14h-0.34v-0.25h0.06v0H628l0,0,0-.06,0,0h0v-0.14H628v0h-0.06v-0.72H628v-0.06h-0.14v-0.19h0v0h0v0h0l0,0,0,0,0,0,0,0,0,0,0,0v-0.21h0v0h-0.07v-0.15h0v0h0v0h0v-0.14h0v0h0v-0.08h0v0h0v0h0v0h0v0h0v0h0v0h0v0h0v0h0v0h0v0.14h0v0h0v0h0v0.15H627.1v0h0v0.18l0,0,0,0,0,0,0,0,0,0,0,0,0,0h0v0h0v0h0v0.18h-0.14v0.06h0.06v0.71h-0.06v0h0.06v0.16h0l0,0,0,0.06v0h-0.14v0h0.06v0.29l-2.61,0v-0.3h0.06v0h0v-1.06h0v-0.15h0v0h0V484.9h-0.4V484.4h0v0h0v-0.07h0v0h-0.07v-0.07h0v0h0v0h0l0-.16,0-.16,0-.15-0.06-.15-0.07-.14-0.09-.13-0.1-.12-0.11-.11-0.12-.1-0.13-.09-0.14-.08-0.12-.06h0v-0.06h0.05v-0.07h-0.13v-0.18h0.06v0h-0.06v-0.49h0v-0.05h-0.15V481.3h0v0h0v0h0v0h0v0h-0.1v0h0v0h0v0h0v0h0l0,0v-0.08h0v0l0,0,0,0H622l0,0,0,0v0.08h0v0l0,0h0v0h0v0h0v0h0v0h0v0h0v0h0v0h0v0h0v0h0v0h0v0.29h0l-0.15,0v0.05h0v0.49l-0.06,0v0h0.06v0.17h-0.13v0.08h0.05v0h0l-0.13.06-0.14.08-0.13.09-0.12.11-0.11.11-0.1.12-0.09.13-0.08.14-0.06.14-0.05.15,0,0.16,0,0.15h0v0h0v0h0v0.08h-0.07v0h0v0.07h0v0h0v0.48h-0.4v0.29h0v0h0v0.15h0v1.07h0v0h0.06v0.37l-4.33.08,0,0h-0.19l0,0v2.59H613.5l0,0,0.1-.54,0.14-1.15,0.06-1.09v-1.08l-0.07-1.11-0.14-1.08-0.21-1-0.27-1-0.11-.33,0.08-.09h0l0-.13h0l-0.11-.07,0-.08h0l-0.08-.06-0.07-.21-0.24-.44-0.19-.35-0.27-.37,0,0-0.07,0h-0.14l0,0,0,0-0.27.38-0.2.35-0.23.45-0.07.2h0l-0.06.11h0l-0.06,0h0l-0.07.12h0l0.07,0.12h0l-0.12.35-0.27,1-0.21,1-0.14,1.07-0.07,1.1v1.07l0.06,1.08,0.14,1.14,0.12,0.53,0,0h-2.5l0.1-.06,0-.06,0,0-0.14-.85h0l-0.19-.64h0l-0.2-.5-0.06-.15h0l-0.33-.65h0l-0.44-.65h0l-0.52-.59-0.05-.06h0l-0.75-.65h0l-0.51-.32-0.1,0-0.25-.16,0,0h0l-0.12-.08-0.11-.05-0.14-.06-0.18-.08-0.18-.07-0.18-.06-0.16-.06-0.17-.05-0.17,0-0.17,0-0.15,0-0.19,0-0.13,0-0.18,0h-0.1l-0.17,0-0.18,0h-1.05l-0.19,0H600.4l-0.2,0h-0.09l-0.12,0-0.07,0h0l-0.06,0h0v0l0,0h0l-0.11.56,0,0.07,0.09,0.05-0.1,0,0,0.06,0,0.32,0,0.06,0.07,0,0,0.57,0,0h0l-0.06.61,0.05,0h0.07v0.63H600v0.66l0.08,0,0.17,0v0.61l0.09,0.05,0.17,0v0.56l0.1,0.08,0.24,0.08h0v0.7L601,489.5l0.09,0h-6.46l-0.17-.54h0v-0.13l0.37-.14v-0.12l0.06,0,0-.1v0l0-.06,0-.12,0,0h0l0.1,0,0.45-.29,0.13-.1a0.17,0.17,0,0,0,0,0,0.2,0.2,0,0,0,.4,0,0.2,0.2,0,0,0-.15-0.19l0,0,0.09-.07,0.39-.37,0.11-.12h0a0.2,0.2,0,1,0,.22-0.19l0,0,0.07-.08,0.32-.44,0.07-.13,0,0a0.2,0.2,0,0,0,.2.18,0.2,0.2,0,1,0,0-.4h0l0,0h0l0-.08,0.23-.5,0-.13,0,0a0.2,0.2,0,0,0,.19.13,0.2,0.2,0,0,0,0-.39l0,0h0l0,0h0l0-.09,0.12-.53,0-.12v0a0.2,0.2,0,0,0,.16.08,0.2,0.2,0,0,0,.16-0.09h0l0,0,0-.06,0-.08h0v-0.05h0a0.19,0.19,0,0,0-.13-0.05h-0.13v-0.11l0-.55v-0.16a0.2,0.2,0,0,0,.13,0,0.2,0.2,0,0,0,.16-0.09h0v0l0-.06,0-.11v0h0a0.2,0.2,0,0,0-.14-0.06,0.21,0.21,0,0,0-.13.05h0v-0.11l-0.09-.55,0-.1V482a0.19,0.19,0,0,0,.11,0,0.2,0.2,0,0,0,.2-0.2v0h0a0.18,0.18,0,0,0,0-.09v0h0l-0.09,0h-0.12l-0.06,0v0l0,0,0,0,0-.07-0.2-.52,0-.08v-0.08h0.07a0.2,0.2,0,0,0,.2-0.2h0v0l0-.11h0l-0.06,0h-0.1a0.21,0.21,0,0,0-.14.06h0a0.22,0.22,0,0,0,0,.08l0,0,0-.06-0.3-.47L596.7,480l0-.08h0a0.2,0.2,0,0,0,.2-0.2v0h0l0,0h0l0-.07h0l-0.12-.05h0a0.2,0.2,0,0,0-.2.18l-0.06,0,0,0-0.39-.4-0.06-.05,0-.07h0a0.2,0.2,0,0,0,.2-0.2,0.2,0.2,0,0,0-.05-0.13v0h0l-0.12-.05-0.08,0h0l0,0,0,0,0,0,0,0,0,0h0l-0.09,0,0,0-0.47-.32-0.06,0,0-.06a0.2,0.2,0,0,0,.15-0.19,0.19,0.19,0,0,0,0-.11l0-.07h0l-0.11,0h0l-0.13.05,0,0v0a0.2,0.2,0,0,0,0,.13,0.16,0.16,0,0,0,0,0h-0.09l-0.05,0-0.52-.22-0.06,0L594,478a0.19,0.19,0,0,0,.06-0.31l0,0h0l-0.11,0h0l-0.13.05v0a0.19,0.19,0,0,0-.07.15,0.19,0.19,0,0,0,0,.09h-0.09l-0.06,0-0.55-.11h-0.06l-0.08,0a0.2,0.2,0,0,0,.09-0.16,0.19,0.19,0,0,0-.07-0.15v0l-0.13-.05-0.13.05v0a0.19,0.19,0,0,0-.06.14,0.19,0.19,0,0,0,.05.13l-0.1,0h-0.69l-0.08,0a0.19,0.19,0,0,0-.11-0.33l0,0-0.12.06v0a0.2,0.2,0,0,0,0,.12,0.19,0.19,0,0,0,.08.16l-0.1.05h-0.06l-0.55.12-0.06,0h-0.09a0.18,0.18,0,0,0,0-.26h0l-0.08,0,0,0h0l0,0h0l0,0h0a0.2,0.2,0,0,0-.06.14,0.2,0.2,0,0,0,.12.18l-0.08.06-0.06,0-0.52.22-0.05,0h-0.08a0.2,0.2,0,0,0,0-.07,0.19,0.19,0,0,0-.18-0.19l0,0h0l-0.11,0h0l0,0a0.19,0.19,0,0,0,0,.12,0.2,0.2,0,0,0,.15.19l-0.06.07-0.06,0-0.46.32,0,0-0.06,0v0a0.2,0.2,0,0,0-.2-0.2h0l-0.12.05h0l0,0.07h0v0h0v0a0.2,0.2,0,0,0,.18.19l0,0.08-0.06,0-0.39.4,0,0.05,0,0a0.2,0.2,0,0,0-.19-0.17h0l-0.12.05h0l0,0.11h0v0h0a0.2,0.2,0,0,0,.2.2h0l0,0.07-0.05.07-0.3.47,0,0.06,0,0a0.2,0.2,0,0,0-.18-0.12h0l-0.12.05h0l0,0.11,0,0.07a0.2,0.2,0,0,0,.19.16h0V481l0,0.08-0.2.51,0,0.07v0a0.2,0.2,0,0,0-.16-0.08h-0.06l-0.12.05v0l0,0.11,0,0.11v0h0a0.2,0.2,0,0,0,.17.1h0.07v0l0,0.1-0.09.54v0.1h0l-0.07,0h0l-0.05,0h-0.05a0.2,0.2,0,0,0-.1,0h0v0h0a0.21,0.21,0,0,0,0,.08h0a0.2,0.2,0,0,0,.2.2,0.19,0.19,0,0,0,.13-0.05v0.81l-0.07,0h-0.05a0.2,0.2,0,1,0,.16.31v0l0,0.12,0.12,0.53,0,0.1h0l0,0h0l-0.08,0h0l0,0v0a0.19,0.19,0,0,0,0,.12h0a0.2,0.2,0,0,0,.2.2,0.2,0.2,0,0,0,.18-0.12h0l0,0.13,0.22,0.49,0,0.08h0l-0.06,0a0.2,0.2,0,0,0-.16.19,0.2,0.2,0,0,0,.2.2,0.2,0.2,0,0,0,.19-0.15l0.07,0.13,0.31,0.44,0.07,0.08-0.11,0,0,0a0.2,0.2,0,0,0-.08.16,0.2,0.2,0,0,0,.2.2,0.2,0.2,0,0,0,.2-0.2h0l0.09,0.11,0.39,0.37,0.09,0.07,0,0h0l0,0a0.2,0.2,0,0,0-.08.15,0.2,0.2,0,0,0,.2.2,0.2,0.2,0,0,0,.2-0.2,0.2,0.2,0,0,0,0-.05l0.12,0.09,0.45,0.29,0.1,0.05h0l0,0,0,0.11,0,0.06v0l0,0.1,0.06,0v0.12l0.37,0.15V489h0l-0.19.58h-4.2v0h-0.57l-0.35-.14-0.57-.26-0.56-.29-0.54-.32-0.52-.35-0.5-.38-0.48-.41-0.46-.43-0.43-.46L580,486l-0.38-.51-0.36-.53h0l0-1.49-0.24-1-0.16.61h-0.1l-0.06-.27-0.07.27h-0.41l-0.3-.52v-0.07h0v-0.14h0v-0.09h0v0h0v0h-0.06v0h0v0h0v0.09h0v0h0v0h0v0.11h0v0.07l-0.23.45h-0.44l-0.15-.61-0.15.57-0.06-.23h0l-0.24.94v0.71h-7.19v-0.71l-0.24-.93h0l0,0.89h0l0-.89h0l-0.06.26H569l-0.16-.6-0.15.6h-0.38l-0.24-.45v-0.07h0v-0.11h0v0h0v0h0v-0.09h0v0h0v0H568v0h0v0h0v0.09h0v0h0v0.11h0v0.07l-0.3.52H567.3l-0.07-.27-0.06.27H567l-0.16-.61-0.24,1,0,1.48h0l-0.35.53-0.38.5-0.41.48L565,487l-0.45.43-0.47.4-0.49.38-0.51.35-0.53.32-0.55.29-0.56.26-0.34.13h-2.39l-0.06-3.37h0v-0.25h0l0-1.08v-0.05h-0.06v-0.05h0v0l0,0-0.09-.09h0l0,0,0,0,0,0,0-.05,0-.05,0-.05,0-.05,0-.05v-0.11l0,0,0,0v-0.32l0,0,0-.1,0-.1,0-.1,0-.1,0-.1,0-.1,0-.1,0-.1,0-.1,0-.1,0-.11v-0.33h0v-0.11h0v0.11h0v0.53l0,0.1,0,0.1,0,0.1,0,0.1,0,0.1,0,0.1,0,0.1,0,0.1,0,0.1,0,0V484h0l0,0v0.1l0,0.05,0,0.05,0,0.05,0,0,0,0,0,0,0,0,0,0,0,0,0,0h-0.05l0.05,0v0.11h-0.08v0h0l0,1.09h0v0.23h0l0,1.77h-0.9l0-1.46-0.07-.11-0.08-.14,0,0.08-0.07-.12-0.08.14-0.07.11v0.69h-0.41v-0.64l-0.07-.11-0.08-.14,0,0.09-0.07-.13-0.08.15-0.07.11v1.06h-0.89v-1l-0.07-.11-0.08-.14-0.06.11h0l-0.08-.14-0.07.14-0.07.11v0.68h0L554,487.1l-0.05.08H553.6v-0.63l-0.07-.11-0.08-.14-0.06.12v0l-0.08-.14-0.07.14-0.07.11v1.13h-0.38v-0.27h-0.07V487l-0.07-.11v-0.13l-0.07-.11-0.07.11v0.13l-0.06.1v0.41h-0.07v0.28l-3.18,0v-0.26h-0.4v0.27h-0.2v-0.16l-0.06-.17-0.15-.28-0.14.28v-0.67l-0.07-.1-0.07-.13-0.07.13,0,0-0.05-.08-0.07-.13-0.07.13-0.07.1v0.51h-0.19l0-.07,0,0.07h0v-0.47l-0.07-.1-0.07-.13-0.07.13,0,0.06-0.06-.09-0.07-.13-0.07.13-0.07.1v0.55l-0.1-.2-0.15.29-0.07.17v0.11h0v-1l0-.49,0,0.49v0.06l-0.11-.1,0-.29v-0.15l0-.49,0,0.41-0.07-.13,0-.3v0.23h0V485l0-.49,0,0.34,0-.16v-0.16h0l-0.19-1-0.19,1v0h0v0.06l0,0.2,0-.34,0,0.49v0.6h0v0.28l-0.08.15,0-.41,0,0.49v0.43l-0.12.11v-0.06l0-.49,0,0.49v1h-0.22V487.3l-0.13-.24v-0.3l-0.06-.12-0.06-.26-0.06.26-0.06.12v0.31l-0.11.2,0-.06v-0.28l-0.07-.11-0.07-.24-0.07.24-0.07.11v0.28l-0.14.22v0.24h-0.93v0l-0.05-.35-0.05.35v0h-0.08l0-.12,0-.13v-0.63l-0.06-.1-0.07-.12-0.07.12-0.06.1v0.47h0v-0.5l-0.06-.1-0.07-.12-0.07.12-0.06.1v0.48H542.1V486.8l-0.06-.09-0.07-.12-0.07.12-0.06.09v0.45h0v-0.48l-0.06-.1-0.07-.12-0.07.12-0.06.1V488H539.9l0-4.86-0.1-.14-0.12-.36-0.12.36-0.1.14V484l-0.1-.22-0.14,0V483l-0.1-.14-0.12-.37-0.12.37-0.1.14V483l0,0v-1.58l0,0,0,0V483l-0.08.13,0-.05-0.11-.35-0.12.35-0.1.14v0.49h-0.16l-0.11.22V483l-0.1-.14-0.12-.36-0.12.36-0.1.14,0,5h-0.3v-1.16l-0.06-.09-0.06-.12-0.07.12-0.06.09v0.48h0l-0.07.08h0v-0.58l-0.06-.09-0.06-.12-0.07.12-0.06.09v0.58h0v-0.54l-0.06-.09-0.06-.12-0.06.12-0.06.09v0.54h-0.12v-0.57l-0.06-.09-0.06-.12-0.06.12-0.06.09v0.89h-0.22v-0.85l-0.06-.09-0.06-.12-0.06.12-0.06.09v0.56h-0.13v-0.58l-0.06-.09-0.06-.12-0.06.12-0.06.09v0.57h0V486.9l-0.06-.09-0.06-.12-0.06.12-0.06.09v0.53h-0.14v-0.56l-0.06-.09-0.06-.12-0.07.12-0.06.09,0,2.7h-2.83v-0.08h-0.27v-0.07h-0.06l0,0h0v0.05H531v0h-0.13v0h-0.16v0.06h-0.08v-0.05h-0.13v-0.16H530.3V489.2l-0.09-.07,0,0v-0.58l0.05,0,0-.05h0v0h0l-0.08,0v0h0v0h0l0-3.39h0v0h0v-0.14l0,0v0l0,0,0,0,0,0,0,0,0,0-0.06,0H530l0-.16h0v0h-0.12v0h-0.07v0h-0.09v0h0v0h0.05v0h0v0h0v0h0v0h-0.07l-0.06,0,0,0v0h0l0,0,0,0,0,0v0.25h0v3.39h0v0h0v0h0l-0.08,0h0v0.08h0v0l0.08,0.06v0.57h0l-0.08.07v0.16H529.4v0.16h-0.13v0.05h-0.15v-0.06h-0.06v0H529v0h0v0l0,0H528.8v0h-0.1v0h0l0,0h-0.06v0.07h-0.27v0.08H526.5l-2-1.45V487.9h0.06l0-.06v0l-0.13-.06v-0.2h0l0-.07v0l-0.59-.44v-0.15h0v0h0v-0.1l0,0,0,0,0,0h-0.25l0,0,0,0,0,0v0.1h0v0h0V487l-0.6.43v0l0,0.06v0.21l-0.14.06v0l0,0.06h0v0.23h-1.61l0,0h0V488H521V485.8h0l0,0-0.09-.05v0l0,0h0v0l0-.09,0-.1v-0.1l0-.09-0.05-.08-0.07-.06-0.09-.11-0.06-.1,0-.08h0l0-.21h0l0,0h0v-0.09l0,0h-0.07l0,0h0v0.09l0,0h0l0,0.21,0,0.09-0.06.1-0.08.11-0.07.07,0,0.08,0,0.09v0.1l0,0.09,0,0.08v0h0l0,0v0l-0.09.06h0v0.94h-2.62v0l-0.67.87L517,483.13l0.13-.16h0.24l0.09,0v-0.15l-0.07,0v-0.25h0.08v-0.16h-0.19v-0.21h0.18v-0.17H517v-0.18l0.12-.17h0.3v-0.92H517v-0.4h0.13l0.09,0v-0.15l-0.07,0h-0.27v-1.56l-0.05,0h0v-1.36l0,0v-1.49l0,0h-0.06l-0.07,0,0,0V477l0,0v1.36l-0.06,0V480h-0.27l-0.09,0v0.15h0.24v0.4h-0.32l-0.1,0v0.92h0.31l0.11,0.14v0.21H516v0.17h0.18v0.21H516v0.16h0.17v0.23h-0.07l-0.1,0v0.15l0.08,0h0.24l0.13,0.17-0.14,4.29h-0.92l-0.88-1.18-4.32,0,0-.06v-0.72h0v-0.19h0v-0.41h0v-1l0-.14,0-.12V483.4l0-.11-0.05-.1-0.07-.09L510,483l-0.09-.06-0.1,0h-0.32l-0.1,0-0.09,0-0.08.06-0.06,0-0.08.08-0.07.1,0,0.11,0,0.11v0.12h0v0.11l0,0.11v0.07l0,0.11v0.83h0v0.42h0v0.2h0v0.78H508.7V485.5h0v-0.19h0v-0.4h0v-1l0-.14,0-.12v-0.12l0-.11,0-.11-0.05-.1-0.07-.09-0.08-.07-0.09-.06-0.1,0H508l-0.1,0-0.09,0-0.08.06-0.06,0-0.08.08-0.07.1,0,0.11,0,0.12v0.12h0v0.11l0,0.11,0,0v0l0,0.11v0.83h0v0.42h0v0.2h0v4H507v-0.39h0l0-.78h0v-0.06h0l0-.72,0,0h0v-0.12l0.08-.07,0,0v0H507l0-.64,0.05-.09h0v-0.09h-0.11v0h-0.18l0,0h-0.9v0h-0.06v0h-0.07v-0.2h-1.26v0.19h-0.07v0h-0.1v0h-0.91l0,0h-0.18v0H503v0.09h-0.07l0.07,0.08v0.5h0v0.1l0,0v0h-0.16v0l0,0.07,0.09,0.08v0.12h0l0,0v0.74h0v0.05h0l0,0.76h0v0.39h-0.55v-1.69l-1.27-1.19h-4.89v-0.07H496v-0.26h0v-2.12h0v-0.07h0.08V484h0.07v-0.08l-0.21,0h0v-0.14h0v-0.11l0,0h-0.09l0,0,0,0,0,0,0,0v-0.38h0v0l0,0h0.06v0l0,0,0,0v-0.07h0l-0.07,0,0,0v0h0v-0.19l0-.08,0-.07,0-.07,0-.05,0,0,0,0,0,0h0l-0.07-.16,0-.67,0,0.68-0.06.15h0l0,0,0,0,0,0,0,0.05,0,0.06,0,0.07v0.29h0v0.09l-0.06,0h0V483h0v0h0l0,0v0h0.06v0.31h0v0.07l0,0,0,0,0,0h-0.08l0,0v0.11h-0.06v0.18h-0.18V484h0v0.07h0.08v0.06h0.09v1.64l-0.16-.1-0.81-.79-0.87.84-0.13.08v-1.68h0.09v-0.07h0.09V484h-0.06v-0.08h-0.14v-0.18h0l0,0h0v-0.05l0,0h-0.09v-0.45h0.06v0l0,0,0,0v-0.13h0l0,0v0l0,0v-0.25l0-.08,0-.07,0-.06,0-.06,0,0,0,0,0,0h0l-0.06-.15,0-.69,0,0.68-0.07.16h0l0,0,0,0,0,0,0,0.05,0,0.07,0,0.07v0.28h0v0l0,0v0l-0.06,0h0v0.08l0,0,0,0v0h0.06v0.45l0,0,0,0,0,0H491.4l0,0v0.12h0v0h0v0.11l-0.22,0V484h0.09v0.07h0.1v2.21h0v0.26h0v0h-0.13v0.07h-2.75l-0.81.77h-0.15l0,0.1h0.06l-0.38.36h0V486.3l-0.05-.4,0,0.33v-1.88h0v-1.5l-0.47-2.63L486,482.8v1.46h0v1l-3.85,0-0.22-1.41,0,0.22-0.08-.51-0.25,1.57v1.32h-1l-0.83.86v0.1l-0.09.13v0.68l0-.05h0l0-.1-0.14.38v0h-0.69l0,0.38h-1.2v0h0.06l0,0v-0.06l0,0h0v-0.31l0.2-.18v-0.06l0-.06-2.24-.63h0v0h-0.11v0h0l0-.05v0h0v0h-0.13l0,0h0v0l0,0h0l0,0h0v0h0v0h0l-1.81.51H473v0h0v0l0,0h0V488h0v0h0v0l-0.09,0,0,0.06v0.06l0.2,0.17v0.31h0l0,0v0.06l0,0h0.06v0H472.1l0-1.23v-0.18l0.07,0v-0.12h0v0l0.05-.08-0.16-.2,0-.12-0.19-.32-0.27-.28-0.35-.22-0.43-.17-0.27-.11-0.26,0h-0.1v-0.25l0,0h0v-0.14h0l0-.13v-0.12l-0.09,0h0v0h0v0h0l0-.08,0-.05H470V485l0.09,0V485h0v0l-0.06-.09,0-.23a0.25,0.25,0,0,0-.25.05v0h0v0h0l0,0v0l0,0H469.6l-0.06,0,0.24,0.19v0.2l-0.13,0v0.23h0v0.14h0l0,0v0.25h-0.1l-0.26,0-0.31.12-0.4.15-0.35.22-0.28.28-0.19.32,0,0.12-0.16.21,0.05,0.09v0h0v0.12l0.07,0v0.18l-0.05,1.81h-0.65l-5.11-1.4v-1.57h-0.21v-1.14h-3.08v1.45l-1.05.19v-0.25h-0.49L455.2,482h0.53l0,0.23c0,0.22.05,0.41,0.08,0.54l0,0.15v0s0-.09,0-0.15,0-.32.07-0.54,0-.16,0-0.24a2.3,2.3,0,0,0,1.23-.33,0.53,0.53,0,0,0,.2-0.37,0.55,0.55,0,0,0-.15-0.42,2.08,2.08,0,0,0-1.22-.44c0-.09,0-0.19,0-0.28s0-.29,0-0.43,0-.54-0.06-0.76-0.05-.41-0.07-0.54,0-.21,0-0.21,0,0.08,0,.21,0,0.32-.08.54,0,0.48-.06.76,0,0.28,0,.43,0,0.16,0,.24l-0.89,0h-0.13v0.49h0.13l0.76,0-0.92.59h-0.16l2,4.93-0.44.43h-1.23v1c-0.49.16-1,.34-1.47,0.54v-7.09a8,8,0,0,0-3.43,4.87l-0.67,0,0.31,0.56s-0.14.84-.22,2h-1.47c0-3.42-.33-9-2.43-9-1.2,0-1.82,1.76-2.14,3.9H442.8c0,0.07,0,.08,0,0.1a0.29,0.29,0,0,0,.14.25,0.49,0.49,0,0,0-.29.23,0.47,0.47,0,0,0-.29-0.22,0.31,0.31,0,0,0,.14-0.26s0,0,0-.1H442c0,0.07,0,.08,0,0.1a0.29,0.29,0,0,0,.14.25,0.48,0.48,0,0,0-.35.46,0.31,0.31,0,0,0,0,.16h-1.33a0.39,0.39,0,0,0-.79,0h-1.33a0.27,0.27,0,0,0,0-.15,0.47,0.47,0,0,0-.35-0.46,0.32,0.32,0,0,0,.14-0.26s0,0,0-.1h-0.52c0,0.07,0,.08,0,0.1a0.29,0.29,0,0,0,.14.25,0.49,0.49,0,0,0-.29.23,0.47,0.47,0,0,0-.29-0.22,0.32,0.32,0,0,0,.14-0.26s0,0,0-.1h-0.52c0,0.07,0,.08,0,0.1a0.29,0.29,0,0,0,.14.25,0.48,0.48,0,0,0-.35.46,0.29,0.29,0,0,0,0,.16h0v1.23l0.21,0v2.43h-0.14v0.49h0.14v0.9h-0.28v0.21l-0.41,0c-0.08-2.24-.16-2.51-0.31-4.08-0.1-1.08-.42-4.2-0.58-5.5a0.31,0.31,0,1,0-.14,0L434.77,485l-0.56-.49s-0.27-4.27-.49-5.86a0.32,0.32,0,1,0-.09,0c-0.09.62-.27,2.31-0.38,3.78a2.31,2.31,0,0,0-.65-0.16,0.37,0.37,0,0,0,.16-0.31,0.38,0.38,0,0,0-.76,0,0.37,0.37,0,0,0,.17.31,2.18,2.18,0,0,0-.65.18c-0.11-1.48-.3-3.18-0.38-3.8a0.31,0.31,0,1,0-.09,0c-0.22,1.59-.49,5.86-0.49,5.86L430,485l-0.27-4.89a0.31,0.31,0,1,0-.4-0.3,0.31,0.31,0,0,0,.26.31c-0.36,3-.6,5.78-0.73,8.75L423,487.1l-1.92,0V486.9l-1.35-.56v-0.46h-0.27v0l0-.32-0.16-.28-0.11-.07-0.23-.2-0.29-.11-0.08,0-0.1,0h-0.34l-0.09,0-0.28.08-0.11,0-0.27.2,0,0.07h0l-0.13.2-0.08.32-0.05.08v0.06h-0.21v0.4l-1.47.62v0.16h-0.78l0,0,0,0h-0.93v0.06h-0.07v0h0v0l0,0v0.42h0v1.81h-0.8v-1.52h0.08v-0.13l-0.06,0h0l0-1.22,0.1-.09h-0.24v-0.49l0,0h0l-0.07-.2-0.07-.09-0.11,0v-0.11l0,0h0l0,0v0.11l-0.09,0h0l-0.07.09-0.07.19h0l0,0V486l-0.29-.26h-1l0,0h-0.1l0,0h-1.06l-0.25.22v0l0,0h0l-0.07-.2-0.07-.09h0l-0.1,0v-0.11l0,0h0l0,0v0.11l-0.1,0-0.07.09-0.06.21h0l0,0,0,0.51h-0.23l0.11,0.09,0,1.25h-0.05l0,0v0.14h0.1l0,0.56v0.4l0,0.53H408l0-1v-0.53l0.1,0v-0.13H408l0-1.36,0.12-.11H408v-0.07h0v-0.06h0V486l0-.14h-0.05v0l0,0h0l-0.07-.2-0.08-.08-0.12,0v-0.11l0,0h0l0,0v0.11l-0.09,0,0,0-0.08.1-0.07.19,0,0,0,0v0.09h-0.06l-0.4-.07h0v-0.06h-0.07l-0.07.06h-0.37v-0.07h-0.39l0,0,0,0H404.5l0-.11-0.05-.12H403.2l-0.14-.22h-0.24l-0.12.2,0,0h-1.24l0,0.12v0.11H399.1l-0.4.07h-0.06v-0.1l0,0,0,0-0.07-.19-0.08-.1,0,0-0.09,0v-0.11l0,0h0l0,0v0.11l-0.12,0-0.07.09-0.07.2h0l0,0v0h0l0,0.14v0.18h0v0.05h0v0.07h-0.17l0.12,0.11,0,1.36h-0.1v0.13l0.1,0v1.52h-0.6v-1.64h0.06v-0.09l-0.06,0v-1.15l0.06,0v-0.11h-0.13V486h0v0.16l-0.05-.23h-0.09l-0.24-.67v-0.18H396.6v-0.35h0l0,0h0l0,0,0,0v-0.09l0,0,0,0h0l0,0h0v0h0v0.48h-0.22v0.18l-0.13.39h-0.32l-0.19-.86h-0.37l0,0.22,0-.15H395l-0.15.79h-0.2l-0.08-.26v-0.12h-0.13v-0.2h0v0h0v-0.06h0V485h0v0h0v0.06h0v0.22h-0.13v0.11l-0.08.25h0v-0.37h0v-0.09l0-.09,0,0.09v0.09h0V485l0.05,0V484.9H394v-0.45h-0.06v-0.36l0-.09,0,0,0,0h0v-0.18l0.06,0v0h0l-0.08,0v0h0v0.27h0l0,0,0,0,0,0.09v0.36h-0.06v0.46h-0.12V485l0.05,0v0.3h0v-0.09l0-.09,0,0.09v0.09h0v0.37h-0.09l-0.09-.18V485.4h-0.06l-0.26-.51v-0.11h-0.72v-0.34h-0.06v-0.36l0-.09,0,0,0,0h0V483.7l0.06,0v0h0l-0.08,0v0h0v0.27h0l0,0,0,0,0,0.09v0.36H392v0.34h-1.25v-0.82h0v0h0v0h-0.06v0h0v-0.73h0v-0.18h0v-0.09h0v-0.29h0v-0.08h0v-0.07h0v-0.23h0v-0.42l0,0.09-0.09,0v-0.69h0l0,0.09h0l0-.1,0,0.09h0v-0.38l-0.07,0v-0.18l0-.26,0-.26,0,0.26,0,0.26v0.18l-0.07,0v0.38h0l0-.09,0,0.1h0l0-.08h0v0.69l-0.09,0,0-.09v0.55h0v0.16h0v0.32l0,0.06v0.09h0v0.18h0v0.73h0v0h-0.06v0h0v0h0v0.83h-1.27v-0.34h-0.06v-0.37l0-.09,0,0,0,0h0v-0.18l0.06,0v0h0l-0.08,0v0h0v0.27h0l0,0,0,0-0.05.09v0.36H388.1v0.34h-0.74v0.11l-0.09.18h0l-0.17.33H387v0.15l-0.09.17h-0.09v-0.37h0v-0.09l0-.09,0,0.09v0.09h0V485l0.05,0v-0.09h-0.12v-0.46h-0.07v-0.37l0-.09,0,0,0,0h0v-0.18l0.06,0v0h0l-0.08,0v0h0v0.28h0l0,0,0,0-0.05.09v0.36h-0.06v0.46h-0.12V485l0.05,0v0.3h0v-0.09l0-.1,0,0.1v0.09h0v0.38h0l-0.08-.26v-0.12H386V485h0v0h-0.06v0h0v0.06h0v0H386v0.23h-0.14v0.12l-0.09.26h-0.21l-0.16-.8H385l0,0.14,0-.21H384.6l-0.2.87h-0.33l-0.14-.4v-0.18h-0.23v-0.49h0v0h0l0,0h0l0,0v0.09l0,0h0l0,0h0v0.36h-0.23v0.18l-0.26.68h-0.09l-0.05.23v-0.16h0v0.3H382.9v0.12l0.07,0v1.18l-0.07,0v0.09h0.07v1.59h-0.75v-1.56h0.12V487.7h-0.12l0-1.42,0.12-.1h-0.28l0,0v-0.28l0-.07h0v-0.12l0,0h0l-0.07-.2-0.08-.09-0.12,0v-0.11l0,0h0l0,0v0.11l-0.09,0,0,0-0.08.1-0.07.19,0,0,0,0v0.08h0l-0.18,0v-0.09h-0.12l-0.1.07h0l-0.36,0h-0.6v-0.12h-0.2v0.12h-1.5v0h-0.3l-0.1-.33h-1.55l-0.11.33h-0.25v0h-1l-0.13-.12h-0.81v0.12h-0.64l-0.65.05-0.24-.16-0.32.15-0.15.41H372l0.13,0.1,0,1.43h-0.08v0.14h0.08l0,0.6v1h-1.05V488.3l-0.07-.12h0v-2.59l0.18,0v-0.29l-0.18-.09H371l-0.1-.38-0.1-.06-0.34-.15-0.45.2-0.1.39-0.23.08v0.29l0.22,0.07h0V487H369.6l0-.28,0,0.28h-0.18l0-.3,0,0.31h-0.13l-0.06-.51-0.05.51H369l-0.05-.48-0.05.49h0v2.41h-1l0-2.51h-0.5l-0.13-6.07,0.63-.19,0-.12h0l0-.12h-0.31v-0.31h0.11v-0.91h-0.41v-0.42h-0.14v-0.1l0,0,0,0v0l0,0h0v-0.51h0l0,0v0l0,0,0,0v-2.79H367v2.78h-0.12l0,0,0,0,0,0.05,0,0.06v0.14l0,0.06,0,0.05,0,0,0,0H367v0.08h-0.14v0.42h-0.41v0.91h0.11v0.31h-0.26l0,0.12,0,0.12,0.57,0.18-0.14,6.49h0v-0.38H365.9v0.36h-1.13v-2.9l0-.1h-0.19v0.41l-0.52,0h-0.26V484.4h-0.39l-0.19,0h0v0.24h-0.24v-0.37l-0.12,0-0.48.07v2.2h-0.37v-0.17h-0.18l-0.61,0v1.59h-0.49v0.17h-0.16l-0.13,0v-2.5l-0.2-.06H360v0.31l-0.47,0h-0.27V485.6h-0.71v0.14h-0.14l0,0v0.11l-0.31,0v-0.33l-0.17,0-0.4,0v0.74l-0.41,0-0.31,0v-0.48h0l-0.83,0v0.48l-1.44.24v-0.22l-0.39-.4,0,0v-0.46l0.06,0-0.2-.23v-0.28l-0.2-.22-0.19.22v0.28l-0.19.23,0.06,0v0.42h-0.05l-0.39.36v0.35h-0.06l0-1.11-0.51-.52-0.08,0v-0.57l0.08-.06-0.26-.29v-0.36l-0.25-.27-0.25.27v0.36l-0.25.3,0.08,0v0.53h-0.09l-0.4.34v-0.18l-0.22-.28v-0.33l0.08-.08-0.24-.22v-0.39l0.06-.07-0.19-.15v-0.26l-0.18-.18v-0.56l0-.06V483l-0.16.14,0,0v0.25l-0.13.1-0.06.07,0.06,0V484l-0.16.14-0.08.1,0.08,0v0.37l-0.19.22h0v1l-0.37-.46-1,1.43v0.2h-0.52l-0.29,0-2.18-1.45-0.44,0v-0.15h0V485.4l-0.28,0-0.2,0v0.06h0v0.2l-1.12.1v-0.16h0v-0.06l-0.28,0-0.19,0v0.06h0v0.21l-1,.09v-0.15h0v-0.06l-0.28,0-0.18,0v0.06h0v0.2l-0.43,0L339.28,487h0v0h-0.07v0.1l-0.33.22h-0.14v0h0v0h0v0H338.6v0h0v0h-0.05v0.92h-0.68v0h-0.12v0h-0.13v0h0v0h-0.63v0h0v0h0v0h-0.13v0h-0.1v0h0l-0.57-.59-0.56.6h0v0h0v0h0v0h-0.15v0h0v0h0l-0.41-.12H332.9l-0.5.11h0v0h-0.12v0h0l-0.07,0h0v0h0v0h-0.12v0h0l-0.41-.45-0.1,0-0.39.4h-0.06l-0.13.14h0v0h0v0h-0.12v0h0v0h-0.69v0H330v0h0v0h-0.62v-0.92h-0.05v0h0v0h0v0h-0.11v0h0v0h-0.1l-0.33-.24v0h0v0h-0.08l-1.35-1-0.46,0v-0.18h0V485.8h-0.18l-0.21,0v0.06h0V486l-1.07-.08v-0.2h0v-0.06h-0.19l-0.2,0v0.06h0v0.16l-1.14-.08v-0.2h0v-0.07h-0.2l-0.19,0v0.07h0v0.15l-0.5,0-1.83,1.4-0.35,0v0.22l-0.23-.25h-1.18l-0.77.76h-0.16v0h0v0h0v0h0v0h-0.06v0h0v0h0v0h0v0.21h-0.13l0-.28H317.8v0.28H317v-1.57h0l-0.07-.06v-0.21l0-.19-0.06-.22-0.08-.22-0.1-.2-0.12-.19-0.14-.18-0.16-.17h0l-0.07-.06-0.17-.14-0.18-.12-0.19-.1-0.17-.06h0v-0.19l0,0-0.08,0-0.12,0h0v-0.65h0l0,0v0h0v-0.1h0l0,0h0v0h0v0h0V483.2l0,0,0,0,0,0,0,0,0,0h0l0,0,0,0-0.16-.37v-0.41h0V482h0v0h0v0h0v-0.27h0v0.21h0v0.06h0v0.22h0v0.4l-0.16.37,0,0,0,0,0,0,0,0,0,0,0,0,0,0v0.17h0l0,0v0.13l0,0h0v0.65l-0.12,0-0.1,0,0,0v0.2l-0.14.05-0.19.1-0.08,0-0.19.13-0.17.14-0.16.16-0.14.18-0.12.19-0.1.2-0.08.22-0.06.22,0,0.23v0.19l-0.07,0h0v1.72h0l-0.19,0v-0.22l-1.17-.55v-0.45h0V487h0l-0.13-.52-0.12.55h0v0.15h0v0.07h0l0,0v0h0v-0.14h-0.18v0.13h-0.18v-0.13h-0.18v0.13H310v-0.13h-0.16v0l0,0.18h-0.15v-0.13h-0.18v0.13h-0.18v-0.14h-0.18v0.13h-0.18v-0.14h-0.18v0.13h-0.18v-0.13h-0.18v0.13h-0.19v-0.14h0v-2.48l0.11-.21-0.33-.62v-0.7l-0.31-1.23v0h0l-0.07.34-0.23,1.12v0.62l-0.2.49-0.09.31h0.1v2.11l-0.13.33v0.45h0v-0.06l-0.15-.35-0.14.36v0.17h-0.08v0.13h-0.19v-0.14h-0.17v0.13H306v-0.14h-0.17v0.13h-0.19v-0.14h-0.17v0.14h-0.18v-0.13h-0.17v0.14h-0.19v-0.13h-0.17v0.14h-0.19v-0.13h-0.18v0.14h-0.19v-0.13H304v0.14h-0.19v-0.13h-0.18v0.14h-0.19v-0.13h-0.18v0.14h-0.19v-0.13h-0.18v0.14h-0.19v-0.13h-0.18v0.14h-0.19v-0.13h-0.18v0.14H302v-0.13h-0.12l0-.19-0.07.32h-0.14v-0.13h-0.18v0.14h-0.19v-0.13h-0.19v0.11H301v0h0V487.8l0,0h0v-0.05h0v-0.15h0l-0.12-.56-0.13.54h0v0.15h0v0.38l-0.26.16H300l-0.05.26-0.2.12H299v-0.13l0-.72,0,0.61,0-.61h-0.56v-0.19h0.08v0l-0.11-.19-0.17-.82-0.11.83-0.1.2v0h0.07v0.19l-2.73.07v-0.08l-0.1,0v-2h0.07v0l-0.24-.24-0.08-.86V484l0-.46-0.07-.1h0v-0.26l0.05,0-0.07-.1-0.11-.1v-0.19l0,0,0-.07-0.09-.1h0v-0.11h0l0-.08-0.06-.2-0.07.19,0,0.08v0.12l-0.05,0-0.11.12,0,0v0.2h0l-0.18.16,0.05,0.06v0.27l-0.1.07L294,484v0.59l-0.1.83-0.29,0v0l0.08,0.06-0.05,2.15h-0.13l0,1h-0.15l-0.61.44h-0.2l-0.1-.17-1.68-.26-1.1.25-1.64.38-0.12.27h-0.42l-0.09.15-0.41-.1h-0.16l0-1.16L286.6,488l-1.13-.86h-0.52l-0.82.77h-2.54v-0.42h-0.08v-1l0,0,0-.13h0v-0.15h-0.17l-0.06,0,0,0,0,0,0-.1,0-.1v-0.1l0-.11-0.07-.13,0,0h0l-0.06,0h-0.06v-0.49h0.05v-0.12h0V484.5l0-.13-0.06-.1,0,0v-0.06h0V484l0,0v0h0v-0.08l0,0v-0.13l0-.09v-0.07l0-.07v-0.12l-0.07,0-0.05-.06v-0.12h0v-0.05h0V483h0v0h0v-0.22h0v0h0v0h0V483h0v0h0v0.06h0v0.06h0v0.12l0,0.06-0.07,0v0.12l0,0.07v0.07l0,0.09v0.13l0,0V484h0v0l0,0v0.11h0v0.06l0,0-0.06.1,0,0.13v0.23h0v0.11h0.05v0.49H280.5l-0.08.05,0,0-0.07.13,0,0.11v0.1l0,0.1,0,0.1,0,0,0,0-0.06,0h-0.17v0.15h0l0,0.13,0,0v1h-0.07v0.42h-2.56l-0.84-.79h-0.54L275,488l-0.18.42,0,1.17H274.6l-0.07,0-0.09,0h0l-0.41.1-0.09-.15h-0.36l-0.13-.27-0.95-.22v-0.25h-0.1l-0.1-.08h0l-0.15-.07-0.29-.06h-0.15v0h-0.32v0H271.2l-0.29,0h0l-0.14.06-0.21,0-1.78.26-0.13.21-0.93,1-16,1.35h447.7Z" transform="translate(-251.71 -475.37)"/></svg>