<svg id="Layer_1" data-name="Layer 1" xmlns="http://www.w3.org/2000/svg" viewBox="0 0 25.37 13.5"><defs><style>.cls-1{fill:#981b1e;}.cls-1,.cls-2{fill-rule:evenodd;}.cls-2{fill:#100f1d;}</style></defs><title>hamburger</title><path class="cls-1" d="M0.49,0H24.7a0.48,0.48,0,0,1,.49.18V0.6a0.48,0.48,0,0,1-.49.18H0.49A0.48,0.48,0,0,1,0,.6V0.18A0.48,0.48,0,0,1,.49,0Z"/><path class="cls-2" d="M0.35,6.5H8.86A0.18,0.18,0,0,1,9,6.68V7.09a0.18,0.18,0,0,1-.17.18H0.35A0.18,0.18,0,0,1,.18,7.09V6.68A0.18,0.18,0,0,1,.35,6.5Z"/><path class="cls-2" d="M14.09,5.33a1.9,1.9,0,0,0-2.69,0h0A1.9,1.9,0,0,0,14.09,8h0A1.9,1.9,0,0,0,14.09,5.33Z"/><path class="cls-2" d="M17.11,6.5h8.09a0.17,0.17,0,0,1,.16.18V7.09a0.17,0.17,0,0,1-.16.18H17.11A0.17,0.17,0,0,1,17,7.09V6.68A0.17,0.17,0,0,1,17.11,6.5Z"/><path class="cls-1" d="M0.49,2.59H24.7a0.48,0.48,0,0,1,.49.18V3.19a0.48,0.48,0,0,1-.49.18H0.49A0.48,0.48,0,0,1,0,3.19V2.78A0.48,0.48,0,0,1,.49,2.59Z"/><path class="cls-1" d="M0.49,10.13H24.7a0.48,0.48,0,0,1,.49.18v0.41a0.48,0.48,0,0,1-.49.18H0.49A0.48,0.48,0,0,1,0,10.72V10.31A0.48,0.48,0,0,1,.49,10.13Z"/><path class="cls-1" d="M0.49,12.73H24.7a0.48,0.48,0,0,1,.49.18v0.41a0.48,0.48,0,0,1-.49.18H0.49A0.48,0.48,0,0,1,0,13.32V12.91A0.48,0.48,0,0,1,.49,12.73Z"/></svg>