<?xml version="1.0" encoding="UTF-8"?>
<svg width="190" height="34.384" data-name="Layer 1" version="1.1" viewBox="0 0 190 34.384367" xmlns="http://www.w3.org/2000/svg" xmlns:cc="http://creativecommons.org/ns#" xmlns:dc="http://purl.org/dc/elements/1.1/" xmlns:rdf="http://www.w3.org/1999/02/22-rdf-syntax-ns#">
  <metadata>
    <rdf:RDF>
      <cc:Work rdf:about="">
        <dc:format>image/svg+xml</dc:format>
        <dc:type rdf:resource="http://purl.org/dc/dcmitype/StillImage"/>
        <dc:title>Untitled-1</dc:title>
      </cc:Work>
    </rdf:RDF>
  </metadata>
  <defs>
    <style>.cls-1{fill:#131126;}.cls-1,.cls-2{fill-rule:evenodd;}.cls-2{fill:#fff;}</style>
    <filter id="b" color-interpolation-filters="sRGB">
      <feFlood flood-color="rgb(3,9,0)" flood-opacity=".98824" result="flood"/>
      <feComposite in="flood" in2="SourceGraphic" operator="in" result="composite1"/>
      <feGaussianBlur in="composite1" result="blur" stdDeviation="0.6"/>
      <feOffset dx="0.7" dy="0.7" result="offset"/>
      <feComposite in="SourceGraphic" in2="offset" result="composite2"/>
    </filter>
    <filter id="a" color-interpolation-filters="sRGB">
      <feFlood flood-color="rgb(0,0,0)" flood-opacity=".43137" result="flood"/>
      <feComposite in="flood" in2="SourceGraphic" operator="in" result="composite1"/>
      <feGaussianBlur in="composite1" result="blur" stdDeviation="0.9"/>
      <feOffset dx="1" dy="0.8" result="offset"/>
      <feComposite in="SourceGraphic" in2="offset" result="composite2"/>
    </filter>
  </defs>
  <title>Untitled-1</title>
  <path class="cls-1" d="m174.7 13.612a9 9 0 0 0 2.18 1.88 4.26 4.26 0 0 0 2.14 0.62 2.47 2.47 0 0 0 1.63 -0.53 1.69 1.69 0 0 0 0.64 -1.35 1.77 1.77 0 0 0 -0.55 -1.4 7 7 0 0 0 -2.5 -1 8.18 8.18 0 0 1 -3.78 -1.88 4.39 4.39 0 0 1 -1.11 -3.17 5.59 5.59 0 0 1 1.75 -4.26 6.34 6.34 0 0 1 4.53 -1.66 9.9 9.9 0 0 1 2.85 0.4 9.28 9.28 0 0 1 2.56 1.23l-1.56 3.56a6.55 6.55 0 0 0 -1.74 -1.09 4.59 4.59 0 0 0 -1.76 -0.37 2.33 2.33 0 0 0 -1.45 0.43 1.33 1.33 0 0 0 -0.56 1.1 1.36 1.36 0 0 0 0.49 1.09 5.65 5.65 0 0 0 1.89 0.78l0.22 0.06a9.59 9.59 0 0 1 4 1.8 4.44 4.44 0 0 1 1 1.61 6.12 6.12 0 0 1 0.34 2.08 6 6 0 0 1 -1.9 4.65 7.18 7.18 0 0 1 -5.07 1.76 9 9 0 0 1 -3.47 -0.65 9.73 9.73 0 0 1 -3 -2l2.24-3.69zm-8.21-5.3a2.33 2.33 0 1 1 -2.34 2.33 2.33 2.33 0 0 1 2.34 -2.33zm-143.73-7h4.94v8.84a27.64 27.64 0 0 0 0.1 2.8 5.38 5.38 0 0 0 0.34 1.43 2.06 2.06 0 0 0 1 1.06 4.26 4.26 0 0 0 3.45 0 2.1 2.1 0 0 0 1 -1.06 5.26 5.26 0 0 0 0.34 -1.43 27.6 27.6 0 0 0 0.1 -2.8v-8.86h4.94v9.62a19.54 19.54 0 0 1 -0.36 4.42 6 6 0 0 1 -1.22 2.43 5.64 5.64 0 0 1 -2.57 1.66 12.35 12.35 0 0 1 -3.95 0.55 12.33 12.33 0 0 1 -4 -0.55 5.67 5.67 0 0 1 -2.57 -1.66 6 6 0 0 1 -1.21 -2.43 19.35 19.35 0 0 1 -0.36 -4.42v-9.62zm20 18.2v-18.22h5.19a21.56 21.56 0 0 1 4.24 0.28 5.45 5.45 0 0 1 2.07 0.94 4.9 4.9 0 0 1 1.51 1.9 6.05 6.05 0 0 1 0.53 2.55 5.4 5.4 0 0 1 -1 3.44 5.07 5.07 0 0 1 -3 1.76l5 7.34h-5.6l-4.17-7.13v7.13h-4.82zm4.61-9.65h0.92a4 4 0 0 0 2.34 -0.55 2 2 0 0 0 0.74 -1.71 2.42 2.42 0 0 0 -0.69 -1.95 3.62 3.62 0 0 0 -2.32 -0.58h-1v4.79zm30.35 0.57a9.41 9.41 0 0 1 -0.72 3.68 9.21 9.21 0 0 1 -2.1 3.07 9.84 9.84 0 0 1 -3.18 2.07 9.79 9.79 0 0 1 -10.58 -2.07 9.33 9.33 0 0 1 0 -13.5 9.71 9.71 0 0 1 6.86 -2.82 9.85 9.85 0 0 1 3.73 0.73 9.64 9.64 0 0 1 3.16 2.07 9.31 9.31 0 0 1 2.83 6.77zm-9.72 5.34a4.37 4.37 0 0 0 3.41 -1.51 5.55 5.55 0 0 0 1.35 -3.83 5.52 5.52 0 0 0 -1.37 -3.82 4.56 4.56 0 0 0 -6.8 0 5.55 5.55 0 0 0 -1.35 3.82 5.58 5.58 0 0 0 1.33 3.84 4.37 4.37 0 0 0 3.43 1.51zm12.82 3.72v-18.2h3.8a30.93 30.93 0 0 1 6 0.4 8.66 8.66 0 0 1 3.09 1.33 7.8 7.8 0 0 1 2.61 3.09 9.89 9.89 0 0 1 0.9 4.3 9.89 9.89 0 0 1 -0.9 4.29 7.77 7.77 0 0 1 -2.62 3.09 8.59 8.59 0 0 1 -3 1.31 25.4 25.4 0 0 1 -5.24 0.39zm4.91-4.07h0.83a6.3 6.3 0 0 0 4.26 -1.2 4.86 4.86 0 0 0 1.34 -3.81 4.92 4.92 0 0 0 -1.34 -3.83 6.24 6.24 0 0 0 -4.27 -1.22h-0.81v10.06zm14.59 4.07v-18.2h5.19a21.55 21.55 0 0 1 4.24 0.28 5.44 5.44 0 0 1 2.07 0.94 4.9 4.9 0 0 1 1.51 1.9 6.06 6.06 0 0 1 0.49 2.55 5.4 5.4 0 0 1 -1 3.44 5.07 5.07 0 0 1 -3 1.76l5 7.34h-5.6l-4.17-7.13v7.13h-4.73zm4.66-9.63h0.92a4 4 0 0 0 2.34 -0.55 2 2 0 0 0 0.74 -1.71 2.42 2.42 0 0 0 -0.69 -1.95 3.62 3.62 0 0 0 -2.32 -0.58h-1v4.79zm11.84 9.63v-18.2h5v18.2zm9 0v-18.2h4.79l6.88 9.36a11.87 11.87 0 0 1 0.65 1.15q0.45 0.86 1 2.06c-0.1-0.76-0.17-1.43-0.22-2s-0.1-1.12-0.1-1.58v-9h4.76v18.2h-4.76l-6.88-9.4a10.92 10.92 0 0 1 -0.67 -1.15c-0.3-0.58-0.63-1.26-1-2 0.1 0.76 0.17 1.44 0.22 2 0.05 0.56 0.07 1.11 0.07 1.57v9h-4.74zm21.69 0h4.91v-8.16l5.93 8.17h6.19l-7.31-9.32 6.72-8.87h-5.78l-5.79 8.25v-8.27h-4.91v18.2zm-141.24-6.9a5.35 5.35 0 0 0 2.25 2.59 4.37 4.37 0 0 0 3.73 0.33 4.36 4.36 0 0 0 2.62 -2.25h4.95a9.42 9.42 0 0 1 -0.57 1.38 9.9 9.9 0 0 1 -2.35 3 9.79 9.79 0 0 1 -10.7 1.39 9.33 9.33 0 0 1 -4.32 -12.79 9.71 9.71 0 0 1 5.62 -4.84 9.86 9.86 0 0 1 3.77 -0.54 9.64 9.64 0 0 1 3.66 1 9.3 9.3 0 0 1 4.83 5.49 9.6 9.6 0 0 1 0.51 2.63l-14 2.62zm-0.56-3.24 8.8-1.64a5.23 5.23 0 0 0 -2 -2 4.37 4.37 0 0 0 -3.69 -0.33 4.37 4.37 0 0 0 -2.73 2.53 5.12 5.12 0 0 0 -0.38 1.44z" fill="#131126" fill-rule="evenodd" filter="url(#a)"/>
  <path class="cls-2" d="m2.7338 31.466h1a5.24 5.24 0 0 0 1.25 -0.11 1.83 1.83 0 0 0 0.73 -0.38 2.23 2.23 0 0 0 0.63 -0.9 3.77 3.77 0 0 0 0 -2.49 2.23 2.23 0 0 0 -0.63 -0.9 1.88 1.88 0 0 0 -0.75 -0.38 6.12 6.12 0 0 0 -1.37 -0.11h-0.86v5.25zm-1.21 1.06v-7.39h1.63c1.81 0 3.52 0 4.34 2a4.41 4.41 0 0 1 0.34 1.72 4.35 4.35 0 0 1 -0.33 1.75c-0.77 1.78-2.29 2-4 2h-1.98zm10.83 0v-7.39h1.2v7.39zm5.65-1.49 1-0.44a1.32 1.32 0 0 0 0.5 0.76 1.56 1.56 0 0 0 0.93 0.26 1.2 1.2 0 0 0 0.86 -0.3 1 1 0 0 0 0.32 -0.8 1.48 1.48 0 0 0 -1.09 -1.17l-0.23-0.11a5.23 5.23 0 0 1 -1.63 -1.08 1.78 1.78 0 0 1 -0.41 -1.18 1.9 1.9 0 0 1 0.58 -1.45 2.3 2.3 0 0 1 1.62 -0.56 2.73 2.73 0 0 1 1.37 0.32 1.67 1.67 0 0 1 0.76 0.91l-0.94 0.49c-0.65-1-2.16-0.85-2.16 0.26 0 1.43 3.33 1.24 3.33 3.52a2.18 2.18 0 0 1 -0.66 1.67 2.53 2.53 0 0 1 -1.8 0.62 2.6 2.6 0 0 1 -1.52 -0.44 2 2 0 0 1 -0.79 -1.25zm11.65-4.91v6.4h-1.2v-6.36h-2v-1h5.14v1h-2zm7.18 2.18h0.22a2.43 2.43 0 0 0 1.27 -0.22 0.91 0.91 0 0 0 0.31 -0.79 1 1 0 0 0 -0.34 -0.86 2.21 2.21 0 0 0 -1.25 -0.25h-0.21v2.13zm0 0.93v3.29h-1.16v-7.39h1.68a5.29 5.29 0 0 1 1.15 0.1 1.7 1.7 0 0 1 1.23 1 2.28 2.28 0 0 1 0.19 0.93 2.08 2.08 0 0 1 -0.43 1.4 1.9 1.9 0 0 1 -1.27 0.61l2.54 3.35h-1.35l-2.47-3.32h-0.11zm7.8 3.29v-7.39h1.2v7.39zm7.25-4.29h0.46a2.32 2.32 0 0 0 1.22 -0.23 0.88 0.88 0 0 0 0.36 -0.79 1 1 0 0 0 -0.33 -0.85 2.22 2.22 0 0 0 -1.25 -0.25h-0.45v2.13zm0 3.28h0.41a6.63 6.63 0 0 0 0.96 0.01 1.21 1.21 0 0 0 0.5 -0.18 1 1 0 0 0 0.34 -0.39 1.22 1.22 0 0 0 0.12 -0.55 1.24 1.24 0 0 0 -0.15 -0.62 1 1 0 0 0 -0.42 -0.41 1.44 1.44 0 0 0 -0.39 -0.13 3.52 3.52 0 0 0 -0.59 0h-0.77v2.28zm-1.18 1v-7.38h1.87a5.92 5.92 0 0 1 1.18 0.09 1.73 1.73 0 0 1 0.65 0.28 1.68 1.68 0 0 1 0.53 0.66 2.14 2.14 0 0 1 0.19 0.91 1.71 1.71 0 0 1 -0.27 1 1.42 1.42 0 0 1 -0.8 0.56 1.52 1.52 0 0 1 1 0.59 2 2 0 0 1 0.37 1.23 2.36 2.36 0 0 1 -0.16 0.86 2 2 0 0 1 -0.44 0.69 1.7 1.7 0 0 1 -0.76 0.44 6.28 6.28 0 0 1 -1.51 0.13h-1.85zm9.13-7.38h1.19v4.51a2.16 2.16 0 0 0 0.46 1.51 2.15 2.15 0 0 0 2.77 0 2.15 2.15 0 0 0 0.46 -1.51v-4.51h1.12v4.62a3 3 0 0 1 -0.76 2.25 3.88 3.88 0 0 1 -4.58 0 3 3 0 0 1 -0.66 -2.25zm13.28 1v6.39h-1.28v-6.36h-2v-1h5.2v1h-2zm6 6.39v-7.39h1.2v7.39zm12.42-3.66a2.8 2.8 0 0 0 -0.8 -2 2.63 2.63 0 0 0 -1.9 -0.78 2.64 2.64 0 0 0 -1.92 0.81 2.72 2.72 0 0 0 -0.59 0.9 2.86 2.86 0 0 0 -0.2 1.07 2.81 2.81 0 0 0 0.2 1.06 2.77 2.77 0 0 0 0.59 0.9 2.64 2.64 0 0 0 1.92 0.81 2.62 2.62 0 0 0 1 -0.21 2.69 2.69 0 0 0 0.88 -0.6 2.76 2.76 0 0 0 0.59 -0.9 2.8 2.8 0 0 0 0.21 -1.06zm1.26 0a3.77 3.77 0 0 1 -1.16 2.75 4 4 0 0 1 -1.29 0.85 4 4 0 0 1 -1.51 0.29 4 4 0 0 1 -1.53 -0.3 4 4 0 0 1 -1.28 -0.84 3.79 3.79 0 0 1 -0.86 -1.25 4 4 0 0 1 0 -3 3.78 3.78 0 0 1 0.86 -1.26 3.91 3.91 0 0 1 1.29 -0.84 4.15 4.15 0 0 1 3 0 3.93 3.93 0 0 1 2.15 2.11 3.81 3.81 0 0 1 0.3 1.49zm4.51 3.66v-7.68l4.71 4.53 0.39 0.41c0.13 0.15 0.27 0.31 0.42 0.49v-5.14h1.11v7.71l-4.81-4.62c-0.13-0.12-0.25-0.26-0.37-0.4s-0.23-0.28-0.34-0.44v5.14zm23.68-5.61a3.71 3.71 0 0 0 -1.08 -0.65 3.33 3.33 0 0 0 -1.2 -0.22 2.64 2.64 0 0 0 -2 0.78 3 3 0 0 0 0 4 2.47 2.47 0 0 0 1.87 0.78 3.4 3.4 0 0 0 1.25 -0.23 4 4 0 0 0 1.14 -0.7v1.36a3.54 3.54 0 0 1 -1.06 0.52 4.28 4.28 0 0 1 -1.24 0.17 4.33 4.33 0 0 1 -1.57 -0.28 3.71 3.71 0 0 1 -2.1 -2.08 4.2 4.2 0 0 1 0 -3.07 3.8 3.8 0 0 1 2.11 -2.09 4.17 4.17 0 0 1 1.54 -0.28 4 4 0 0 1 1.25 0.19 4.36 4.36 0 0 1 1.15 0.58l-0.07 1.21zm11 1.92a2.8 2.8 0 0 0 -0.8 -2 2.63 2.63 0 0 0 -1.91 -0.81 2.64 2.64 0 0 0 -1.92 0.81 2.71 2.71 0 0 0 -0.59 0.9 2.86 2.86 0 0 0 -0.2 1.07 2.81 2.81 0 0 0 0.2 1.06 2.76 2.76 0 0 0 0.59 0.9 2.64 2.64 0 0 0 0.88 0.6 2.67 2.67 0 0 0 1 0.21 2.61 2.61 0 0 0 1 -0.21 2.69 2.69 0 0 0 0.88 -0.6 2.76 2.76 0 0 0 0.59 -0.9 2.79 2.79 0 0 0 0.21 -1.06zm1.26 0a3.77 3.77 0 0 1 -1.16 2.75 4 4 0 0 1 -1.29 0.85 4 4 0 0 1 -4.32 -0.85 3.79 3.79 0 0 1 -0.86 -1.25 4 4 0 0 1 0 -3 3.79 3.79 0 0 1 0.86 -1.26 3.91 3.91 0 0 1 1.29 -0.84 4.15 4.15 0 0 1 3 0 3.93 3.93 0 0 1 2.15 2.11 3.81 3.81 0 0 1 0.3 1.49zm10.56 0c0-0.06 0-0.22-0.07-0.48s-0.05-0.4-0.07-0.54a3.9 3.9 0 0 1 -0.13 0.51 4 4 0 0 1 -0.21 0.52l-1.94 4-1.94-4c-0.08-0.17-0.15-0.33-0.21-0.48s-0.11-0.31-0.15-0.46a4.53 4.53 0 0 1 0 0.49c0 0.17-0.06 0.35-0.1 0.53l-0.86 3.6h-1.11l1.75-7.73 2.2 4.73 0.15 0.37 0.25 0.63a8.3 8.3 0 0 1 0.34 -0.81l0.13-0.19 2.14-4.68 1.75 7.68h-1.12l-0.82-3.66zm7.24-0.65h0.31a2.75 2.75 0 0 0 1.34 -0.22 0.85 0.85 0 0 0 0.33 -0.77 0.94 0.94 0 0 0 -0.36 -0.84 2.52 2.52 0 0 0 -1.31 -0.24h-0.31zm-0.07 1v3.34h-1.14v-7.39h1.82a5.85 5.85 0 0 1 1.2 0.09 1.88 1.88 0 0 1 0.67 0.29 1.74 1.74 0 0 1 0.55 0.7 2.33 2.33 0 0 1 0.2 1 2.38 2.38 0 0 1 -0.2 1 1.68 1.68 0 0 1 -0.55 0.7 1.84 1.84 0 0 1 -0.67 0.29 6 6 0 0 1 -1.2 0.09h-0.69zm9.09 0.42h2.07l-0.76-1.69c0-0.11-0.09-0.23-0.14-0.37s-0.09-0.3-0.14-0.47c0 0.16-0.08 0.31-0.13 0.45a4.05 4.05 0 0 1 -0.14 0.39zm3.31 2.92-0.84-1.91h-2.94l-0.86 1.91h-1.27l3.59-7.71 3.59 7.71zm5.1 0v-7.68l4.71 4.53 0.39 0.41c0.13 0.15 0.27 0.31 0.41 0.49v-5.14h1.11v7.71l-4.81-4.62c-0.13-0.12-0.25-0.26-0.37-0.4s-0.23-0.28-0.34-0.44v5.14h-1.11zm13.06 0v-3.36l-2.5-4h1.27l1.53 2.49 0.14 0.25 0.17 0.34c0-0.12 0.1-0.23 0.15-0.33a3 3 0 0 1 0.16 -0.29l1.59-2.49h1.21l-2.55 4v3.39h-1.19z" fill="#fff" fill-rule="evenodd" filter="url(#b)"/>
  <ellipse cx="190.12" cy="34.725" rx="2.331" ry="2.4255" fill-opacity="0"/>
  <ellipse cx="166.48" cy="10.636" rx="2.3088" ry="2.3012" fill="#db4019" stroke-width="12.936"/>
  <ellipse cx="190.5" cy="37.405" rx="2.0937" ry="2.064" fill-opacity="0"/>
</svg>
